<svg xmlns="http://www.w3.org/2000/svg" viewBox="0 0 917.2 929.08"><defs><style>.cls-1,.cls-2,.cls-3,.cls-4{fill:#222;}.cls-2{font-size:73.97px;}.cls-2,.cls-4{font-family:BebasNeue-Bold, Bebas Neue;font-weight:700;}.cls-3{font-size:70.02px;font-family:MyriadPro-Regular, Myriad Pro;}.cls-4{font-size:42.11px;}</style></defs><g id="Capa_2" data-name="Capa 2"><g id="Capa_1-2" data-name="Capa 1"><path class="cls-1" d="M503.77,226.3c.85-.23,6.54,7.74,8.33,18.37,3.93-18.34.69-27.19-3.62-31.86-2.45-2.66-9-8.05-11.56-14.56a30.47,30.47,0,0,1-2.35-11.56c0-.77.13-1.47,0-1.5-.45-.1-4.1,7.39-3.22,15,.68,5.81,3.32,5.71,4.93,12.21.39,1.56,2.65,11.3-2.78,19.26-2.05,3-6.72,8-10.28,6.86-3.86-1.27-5.78-9.62-3-15,3.1-6,11.28-6.8,10.92-8.57-.14-.71-1.55-.84-3.69-1a15.64,15.64,0,0,1-11.08.82,16,16,0,0,1-8.93-7.62c0,.84,0,1.65-.08,2.45.11,2,.21,4.39.23,7.1.07,7.54.07,11.39-1.28,15.41-1.19,3.52-3.19,9.45-8.35,10.92-4.49,1.28-8.74-1.56-9.85-2.35,2.54.43,7.73.93,11.34-2.14,3.34-2.85,3.65-7.31,4.07-15.21,0-.41,0-.8.05-1.19a8.28,8.28,0,0,1-5.19,3.76c-2.49.43-5.92-.72-7.28-3.21-2.49-4.58,4.22-9.81,6-19.7a30.57,30.57,0,0,0-1.71-16.05,29.9,29.9,0,0,1-7.28,11.77c-3.86,3.76-6.11,3.69-10.28,6.85-1.79,1.36-10.05,7.94-12,18.84-1.63,9.16,2,16.63,3.64,19.49-.28-1.22-2.93-13.42,5.35-22.48a23.83,23.83,0,0,1,12.64-7.07c-.56.7-9.82,12.55-5.14,23.55,3,7.16,10.46,10.38,12.2,11.14,6.36,2.76,9.14.79,19.91,4.28,6.33,2.05,8.33,3.69,9.42,5.78,1.83,3.52.64,7.5,0,9.2,2.06-1,15.2-7.35,19.06-22a32.92,32.92,0,0,0-.43-17.77,44.74,44.74,0,0,1,2.52,4C504.2,228.71,503.34,226.42,503.77,226.3Z"/><path class="cls-1" d="M510.41,251.57a42.46,42.46,0,0,0-5.4-19.15,43.35,43.35,0,0,1-.38,21.71c-2.24,7.62-9.08,22.1-19.91,24-4.15.72-9-.37-16.7,2.57a36.83,36.83,0,0,0-5.35,2.57c.8-.47,6.63-4,7.7-11.13a15.72,15.72,0,0,0-4.92-13.7c-4-3.71-7.11-2.11-14.13-5.14-2.1-.91-11.06-4.78-14.35-12-5.17-11.37,6.37-25.34,6.86-25.91a28.14,28.14,0,0,0-12,16.49c-.2.77-3.47,14.7,4.06,21.84,4.23,4,8.07,2.27,19.06,8.77,5.65,3.35,6.66,5,6.64,6.43-.06,2.66-3.76,3.35-9,9-2.17,2.34-4.26,4.6-5.35,7.71-1.9,5.41.09,11,1.93,14.56a22.51,22.51,0,0,1,9.2-10.07c6.43-3.43,12-1.43,17.77-1.5,14.74-.16,31.09-13.64,35.33-28.9a34.43,34.43,0,0,0,.62-15C511.64,246.84,511.08,249.13,510.41,251.57Z"/><path class="cls-1" d="M467.16,206.6c.07.14.17.32.28.52,0-.73,0-1.47-.06-2.23A27.5,27.5,0,0,0,477.65,212a35.19,35.19,0,0,0,9.8,2c.68-.38,1.06-.77,1.06-1.11,0-1.25-5.46-.83-10.86-3.85-6.41-3.59-9.61-10.28-11.34-15.84a45.68,45.68,0,0,0-2.79,10.49c-1,7.23.37,10.07.05,18.5,2-2.86,3.46-7.2,3.79-12.54C467.3,208.45,467.23,207.45,467.16,206.6Z"/><path class="cls-1" d="M299.63,760.16a209.85,209.85,0,0,1,41.43,33.07l37.25-11.56a250.28,250.28,0,0,0-53.39-45.91c3.49-13.87,13.36-53.14,13.89-55.25,0,0-27.49,29.8-38.88,41.39-33.21-15.93-64.7-22-85.72-26-34.22-6.54-56.39-6.27-78.05-25.1-14.1-12.25-19.09-24.85-20.23-27.89-10.78-28.84,3.63-56.06,6.75-61.66L98.59,557.51A125.91,125.91,0,0,0,82.86,598.3c-1.57,8-4.54,24-1,41.75a83.06,83.06,0,0,0,5.78,17.84c-9.49,10.26-36.61,40.28-36.61,40.28.76.26,36.93-11.17,52.45-16.09a126.2,126.2,0,0,0,20.77,18.66c17.39,12.64,23.33,9.72,90.57,28.26C268.66,743.85,285,751.29,299.63,760.16Z"/><path class="cls-1" d="M133.28,352.62s1,3.19,1,3.21c.44,1.45,9.17,30,9.61,31.47,20.94-19.91,35.31-39.23,45.35-56.12C205.91,335,240.77,343,241.5,343l-37.45-41.37c18.89-44.94,27.5-92.87,27.5-92.87,5.23-29.17,5.91-50.15,23.44-68.41,3.69-3.85,15.14-15.44,34-19.27,23.72-4.8,42.6,6,47.53,9l25.05-27.61c-6.3-3.77-46.27-26.81-89.28-10.92-1.62.6-3.19,1.25-4.74,1.92C254.63,81,225.16,52.78,224.16,52s10.85,38.48,17,59.06c-15.24,14.41-23.62,31.24-27.91,39.85-7.23,14.55-4.65,16.07-17.66,64.87-9.06,34-13.59,51-21.52,69.69A276.59,276.59,0,0,1,133.28,352.62Z"/><path class="cls-1" d="M308.62,160.57a234.81,234.81,0,0,1-66.8,30.83q-2.88,17.83-5.78,35.65a286.61,286.61,0,0,0,53.31-18c2.29-1,4.92-2.23,7.84-3.61,11.89,13.21,39.58,40.6,41.3,41.82,0,0-7.09-39.63-10.61-58.73a234.35,234.35,0,0,0,31.8-24.44,529,529,0,0,0,51.39-54.6c7.32-9.24,16.66-21.85,33.08-26a48.39,48.39,0,0,1,26,1c18.66,5.78,27.7,20.61,29.87,24.41l36-8a139.12,139.12,0,0,0-27.61-30.19c-11-9-21.59-17.52-37.26-20.87-.73-.16-1.46-.3-2.18-.43Q462.64,24.67,456.35,0c-3.16,10-6.18,20.83-8.85,32.55q-2,8.91-3.54,17.31a98.52,98.52,0,0,0-25.51,9.55c-17.17,8.87-22.46,17.8-44,40.79C352.7,123.44,333.82,143.6,308.62,160.57Z"/><path class="cls-1" d="M414.92,116.58l-25.37,28.26a193.79,193.79,0,0,0,53.31,10.27l.88,0c2.72,12.52,7.37,31.67,7.79,34.65l22.53-35.54c34.54-3.31,67.28-13.53,91.16-21,26.78-8.37,51.11-18,74.75-7.51a63.72,63.72,0,0,1,17.1,11.36c18.6,17.27,21.28,40.5,21.84,48.17l36.28,6.75a108.83,108.83,0,0,0-16.05-56.85A115.83,115.83,0,0,0,676,108.65c4.14-16.23,13.47-52.77,13.47-52.77V54c-1,.74-27.9,26.3-40.64,38.4a84,84,0,0,0-14-4c-14.82-2.93-31.38.79-63.91,8.35-40,9.28-48.23,15.49-72.58,20.23C479.09,120.66,451,123.21,414.92,116.58Z"/><path class="cls-1" d="M609.22,165.07a236.81,236.81,0,0,1-37.9-26.33L536,149.33a244.48,244.48,0,0,0,52.76,43.41c-3.6,18.26-10.45,53-10.69,54.22l38.38-40c23.84,10.25,46.57,15.61,60.22,18.83,28.88,6.8,47.63,7.91,78.36,20.55,16.29,6.7,24.57,10.21,31.15,17.66,23.71,26.86,6.27,74.91,2.89,83.82l25.05,22.8a118.08,118.08,0,0,0,17.66-59.09,121.55,121.55,0,0,0-5.91-40.74q20.29-21.85,40.6-43.72l-53.73,18a84,84,0,0,0-8.58-10c-12.1-12-24.23-16.47-48.49-25.37-34.32-12.6-41.51-7.83-86.07-20.88C633.35,178.22,615,168.3,609.22,165.07Z"/><path class="cls-1" d="M714.23,745.06c8.43-28.61,5.38-29.86,15.84-65.85,10.79-37.16,19-52.21,22.38-58.11a190.49,190.49,0,0,1,29.22-38.54l-11.88-35A237.3,237.3,0,0,0,729,596c-13.49-3.12-55.24-12.73-56.86-12.19s29.21,29.57,41.57,40.52a306.63,306.63,0,0,0-14.59,40.4c-8.55,28.49-5.36,30.31-15.42,68.41-13.66,51.75-23.79,63.82-35,70.33-9.71,5.64-19.47,6.66-26.34,7.39-24.12,2.53-43.1-6-51.7-10.6L546.59,826a184.88,184.88,0,0,0,34.69,13.49c10.21,2.82,22.85,6.31,36.61,6.1a85.29,85.29,0,0,0,34.79-8.35c12.25,12.4,37.55,36.85,38.75,37.57,0,0-8.29-35.44-12.58-55,.9-.82,1.58-1.47,2-1.87C697.57,801.65,703.12,782.79,714.23,745.06Z"/><path class="cls-1" d="M595.73,770.43c15.63-11.1,41.7-26.06,80.93-34q3-18.63,6.1-37.25a277.87,277.87,0,0,0-69,21.94c-12.69-13.85-36-40.25-36-40.25.23.92,7.31,34.3,12,53.29-3.89,2.4-7.34,4.68-10.34,6.77-21.14,14.66-37.35,25.9-52.67,46.24C514.75,803,507.59,810.65,493.28,826c-5.78,6.2-12.41,13-23.26,16.38a45.83,45.83,0,0,1-23.63.64c-18.16-4.1-28.15-17.62-30.83-21.52l-36.29,8.68c5.19,9,16.89,26.11,38.54,37.57,5.6,3,14.48,7.54,26,9.62l12.54,51.72,15.24-52.44c14.54-3.45,25.3-11.12,33.25-16.93,15-11,20.84-20.61,32.12-34.36C537,825.35,562.85,793.78,595.73,770.43Z"/><path class="cls-1" d="M494.89,813.14l24.73-29.22c-16.78-1.94-31.93-3.13-45.62-3.71L458,721.3c-.24.69-10.24,38.1-15.73,58.69-35.46,1.13-58.11,7.14-73.23,13.89a170.31,170.31,0,0,1-47.53,13.48c-18.87,2.5-37.75,5-54.6-4.49-28.53-16.08-31.45-55.42-31.79-61L202,735.11c-.39,9.79-.39,41.5,21.84,70.65a117,117,0,0,0,15.06,16.47c-3.61,13.32-13.13,53.22-13.13,53.22l38.64-36.62a78.19,78.19,0,0,0,18.52,5.47c15,2.43,28.72,0,38.16-1.63,15.49-2.72,24.84-6.89,36.35-11.22,10.62-4,45.29-16.47,78.68-20.23A208,208,0,0,1,494.89,813.14Z"/><path class="cls-1" d="M827.16,654.39c.5-1.43,1-2.89,1.4-4.39,5-17.55,2.79-32.75.64-47.53-1.56-10.73-3-13.21-12.84-45.92-8.66-28.84-13-43.47-14.78-53.95a257.36,257.36,0,0,1-3.21-50.42,260.61,260.61,0,0,1,2.89-30.83l-28.9-21.2a246.12,246.12,0,0,0-8.29,47.44c-15.77,4-57,14.4-57.55,15.18s41.61,10.37,57.57,13.67a177.49,177.49,0,0,0,3.45,23.91c10,46.34,19.91,72.58,19.91,72.58,4.9,12.93,10.52,25.63,10.92,44.31.2,9.32.52,24.39-7.71,38.54-15.38,26.45-49.23,30.05-54.27,30.51l-8,38.22a122.67,122.67,0,0,0,61-23.12A132,132,0,0,0,809,684.21c16.49,5.21,52.27,14.44,53.24,14.93C862.28,699.14,838.94,669.65,827.16,654.39Z"/><path class="cls-1" d="M917.2,465.66l-47.53-14.05a69.89,69.89,0,0,0-1.93-8.11c-4.42-14.51-13.39-24.11-31.15-42.71-23.48-24.59-28.52-22.53-47.85-43A252.72,252.72,0,0,1,729,248.25a107,107,0,0,0-34.36-4.18,243.47,243.47,0,0,0,18.43,61.82c-11.59,11-40.59,37.74-40.59,37.74,2.5.5,37.95-8.94,53.48-13.14q1.63,2.72,3.37,5.43a257.18,257.18,0,0,0,55.23,61.34c20.09,15.78,45.27,30.14,51.71,56.84a45.61,45.61,0,0,1,1.28,13.81c-1.62,24.5-23.54,40-29.54,44q5.28,16.43,10.57,32.87c7.18-3.4,30.83-15.72,43.7-43.79a93.81,93.81,0,0,0,7.18-22.49Z"/><path class="cls-1" d="M86.28,266.45c-7.75,20.69-5.77,40.35-4.92,48.49.77,7.41,2,10.76,10.49,39.61,7.58,25.63,14.37,48.59,16.7,57.37,5.46,20.67,9.56,51.21,2.35,93.14l28.48,24.83a256.26,256.26,0,0,0,8-52.15l55.3-15.29S164,451.71,146.8,446.83a280.77,280.77,0,0,0-5.07-34.26c-5-24.54-7.92-29.88-18.73-64.77-6.2-20-11.19-34.8-8-54.27,1.37-8.43,2.89-20.69,12.2-30.83,5.67-6.16,11.74-9,22.48-13.81a155.92,155.92,0,0,1,33-10.6q3.1-18.09,6.2-36.18a144.06,144.06,0,0,0-51.38,14.34c-11.22,5.56-24.23,12-35.3,24-16.77-4-52-13.44-52-13.44C51.27,228.46,74.1,253.24,86.28,266.45Z"/><path class="cls-1" d="M48.36,478.4c3.61,16.41,13,29.77,19.08,38.33,13.24,18.75,22.07,20.91,44.8,42.39,10.34,9.77,30.56,29.09,46.73,55.4a211.87,211.87,0,0,1,27,69.36l36.13,4.82c-4.22-26.74-11.51-48.09-19.74-65.13l40.78-39.08s-39.42,8.85-56.5,12.38q-2-2.86-4-5.48c-10.13-13.21-35.87-43-68.88-75-19.2-18.58-32-29.34-33.24-46.88-1.41-20.36,13.68-37.37,23.12-46.25l-8.19-34.2c-3.86,2.62-39.88,27.81-47.19,63.48L0,465C1.51,465.53,34.37,474.56,48.36,478.4Z"/><text class="cls-2" transform="translate(377.68 671.49) scale(1.67 1)">BITÉ</text><text class="cls-2" transform="translate(346.53 511.88) scale(1.67 1)">A</text><text class="cls-3" transform="translate(518.65 508.21) scale(1.16 1)">Ω</text><text class="cls-4" transform="translate(378.91 713.76) scale(1.74 1)">NIRATA</text><path class="cls-1" d="M563,422l-18.3-18C515,429.62,488.81,450.69,468,466.92q.14-30.81.28-61.63c23.25,2.08,44.14-5.91,52.85-21.23a40.92,40.92,0,0,0,5-19.24c0-3.41-.49-19.56-13.49-29.54a34.5,34.5,0,0,0-17-6.75H439a36,36,0,0,1,4.49,10,35.36,35.36,0,0,1,1.29,9.63c-.18,39.78,2.44,79.58,2.33,119.34-26.3-23.26-50.6-46.25-73-68.6a47,47,0,0,0-14.46,17.35c32.25,27.25,58.7,50.33,78,67.44l3.87,3.41C394,522.82,347,555.25,349.09,558.47c.27.44,1.37.24,2.24,0l14.14,18.95c24.58-22.58,51.39-45.82,80.49-69.29-1.1,26.54-1.86,61.89-.85,104.3l22.17.32q.24-51.16.47-102.31c1.78,1.61,3.61,3.26,5.49,5,29.94,27.23,54,50.37,70.78,66.82a68.28,68.28,0,0,0,17.67-22.16c-29.14-21.49-59.51-45.36-90.59-71.82C502.7,463.77,533.49,441.75,563,422Zm-95.54-31.48q.17-24.56.32-49.13a31,31,0,0,1,11.56-1.77c2.19.09,13.36.54,20.56,9,7.89,9.26,7.85,24.44.16,33.88-7.38,9-19.12,9.54-21.36,9.63A31.34,31.34,0,0,1,467.43,390.51Z"/></g></g></svg>