<svg xmlns="http://www.w3.org/2000/svg" viewBox="0 0 992.13 992.13"><defs><style>.cls-1{fill:#e3e5e4;}.cls-2{fill:#fff;}.cls-3{fill:#b91d32;}.cls-4{fill:#f9f000;}.cls-5,.cls-6,.cls-7,.cls-8{fill:#000201;}.cls-6{font-size:73.97px;}.cls-6,.cls-8{font-family:BebasNeue-Bold, Bebas Neue;font-weight:700;}.cls-7{font-size:70.02px;font-family:MyriadPro-Regular, Myriad Pro;}.cls-8{font-size:42.11px;}</style></defs><g id="Capa_2" data-name="Capa 2"><g id="Capa_1-2" data-name="Capa 1"><path class="cls-1" d="M496.06,992.13A496.19,496.19,0,0,1,303,39,496.19,496.19,0,0,1,689.16,953.14,493,493,0,0,1,496.06,992.13Z"/><circle class="cls-2" cx="496.06" cy="496.06" r="481.8"/><path class="cls-3" d="M465.82,273.16c-1.61-2.85-5.27-10.33-3.64-19.48,1.94-10.9,10.2-17.48,12-18.84,4.17-3.16,6.42-3.09,10.28-6.85a30,30,0,0,0,7.28-11.78,30.61,30.61,0,0,1,1.71,16.06c-1.78,9.88-8.49,15.11-6,19.69,1.35,2.49,4.78,3.64,7.27,3.22,5.22-.89,9.66-9.19,9-21A27.59,27.59,0,0,0,514,241.26c7,2.66,13.18,1.45,13.49,3,.36,1.76-7.82,2.58-10.92,8.56-2.78,5.37-.86,13.72,3,15,3.56,1.16,8.24-3.86,10.28-6.85,5.43-8,3.17-17.71,2.78-19.27-1.61-6.5-4.24-6.4-4.92-12.21-.89-7.59,2.76-15.08,3.21-15,.13,0,0,.72,0,1.5a30.5,30.5,0,0,0,2.35,11.56c2.53,6.51,9.11,11.9,11.56,14.56,4.82,5.21,8.3,15.66,1.93,38.75a42.31,42.31,0,0,0-7.92-23.12,32.91,32.91,0,0,1,.43,17.77c-3.86,14.69-17,21.08-19.06,22.05.64-1.71,1.83-5.69,0-9.21-1.08-2.09-3.09-3.73-9.42-5.78-10.77-3.49-13.55-1.52-19.91-4.28-1.74-.76-9.16-4-12.2-11.13-4.68-11,4.58-22.86,5.14-23.56a23.83,23.83,0,0,0-12.64,7.07C462.9,259.74,465.54,271.94,465.82,273.16Z"/><path class="cls-4" d="M480.17,244.69a28.07,28.07,0,0,0-12,16.48c-.2.77-3.47,14.7,4.06,21.84,4.24,4,8.07,2.27,19.06,8.78,5.65,3.34,6.66,5,6.64,6.42-.06,2.66-3.76,3.35-9,9-2.17,2.35-4.26,4.6-5.35,7.71-1.9,5.41.09,11,1.93,14.56a22.44,22.44,0,0,1,9.2-10.06c6.43-3.44,12-1.44,17.78-1.5,14.73-.17,31.08-13.64,35.32-28.91,4.75-17.11-6.49-33.73-7.71-33.4-1,.29,5.27,12.84.86,27.84-2.24,7.61-9.08,22.09-19.91,24-4.15.72-9-.38-16.7,2.57a36,36,0,0,0-5.35,2.56c.81-.47,6.63-4,7.7-11.13a15.72,15.72,0,0,0-4.92-13.7c-4-3.7-7.11-2.11-14.13-5.14-2.1-.91-11.06-4.77-14.34-12C468.14,259.22,479.68,245.26,480.17,244.69Z"/><path class="cls-4" d="M484.45,270c1.11.79,5.36,3.63,9.85,2.35,5.16-1.47,7.16-7.4,8.35-10.91,1.35-4,1.35-7.88,1.28-15.42,0-4.23-.25-7.72-.43-10.06.76,1.45,3.55,6.4,9.21,8.13s12.16-.57,12.14-1.93-5.46-.83-10.86-3.85c-6.41-3.59-9.61-10.27-11.34-15.84a46,46,0,0,0-2.79,10.49c-1.07,7.57.51,10.31,0,19.7-.42,7.89-.73,12.36-4.06,15.2C492.19,270.88,487,270.39,484.45,270Z"/><path class="cls-5" d="M336,789.46a209.48,209.48,0,0,1,41.43,33.08L414.65,811a250.51,250.51,0,0,0-53.38-45.91c3.48-13.86,13.35-53.13,13.88-55.25,0,0-27.49,29.81-38.88,41.39-33.21-15.93-64.7-22-85.72-26-34.22-6.54-56.39-6.27-78.05-25.09-14.1-12.25-19.09-24.85-20.23-27.9-10.78-28.84,3.63-56.06,6.75-61.66l-24.09-23.77A126.14,126.14,0,0,0,119.2,627.6c-1.57,8-4.54,24-1,41.75A82.88,82.88,0,0,0,124,687.19c-9.49,10.26-36.61,40.29-36.61,40.29.76.25,36.93-11.17,52.45-16.1a126.39,126.39,0,0,0,20.77,18.67c17.4,12.63,23.34,9.71,90.57,28.26C305,773.15,321.37,780.59,336,789.46Z"/><path class="cls-5" d="M169.62,381.92s1,3.19,1,3.21c.44,1.45,9.17,30,9.61,31.48,20.94-19.92,35.31-39.24,45.35-56.13,16.69,3.83,51.55,11.81,52.28,11.81l-37.45-41.37c18.9-44.93,27.5-92.87,27.5-92.87,5.23-29.17,5.91-50.15,23.44-68.41,3.7-3.84,15.14-15.43,34-19.26,23.72-4.81,42.6,6,47.53,9L398,131.75c-6.3-3.77-46.27-26.8-89.28-10.92-1.62.6-3.19,1.25-4.74,1.93-13-12.44-42.43-40.68-43.43-41.43s10.85,38.48,17,59.07c-15.24,14.4-23.62,31.23-27.91,39.84-7.23,14.55-4.65,16.08-17.66,64.87-9.06,34-13.59,51-21.52,69.69A276.59,276.59,0,0,1,169.62,381.92Z"/><path class="cls-5" d="M345,189.88a235.23,235.23,0,0,1-66.8,30.83q-2.88,17.82-5.78,35.64a286.61,286.61,0,0,0,53.31-18c2.29-1,4.92-2.23,7.84-3.6,11.89,13.2,39.58,40.59,41.3,41.82,0,0-7.08-39.64-10.61-58.73A236,236,0,0,0,396,193.41a528.39,528.39,0,0,0,51.38-54.6c7.32-9.24,16.66-21.85,33.08-26a48.39,48.39,0,0,1,26,1c18.66,5.78,27.7,20.61,29.87,24.41l36-8A139.23,139.23,0,0,0,544.72,100c-11-8.95-21.59-17.53-37.26-20.88-.73-.16-1.46-.3-2.18-.43Q499,54,492.69,29.3c-3.15,10-6.18,20.83-8.85,32.56q-2,8.91-3.54,17.3a98.28,98.28,0,0,0-25.5,9.55c-17.18,8.88-22.47,17.8-44,40.79C389,152.74,370.16,172.9,345,189.88Z"/><path class="cls-5" d="M451.26,145.88l-25.37,28.26a193.72,193.72,0,0,0,53.31,10.28l.88,0c2.72,12.52,7.37,31.67,7.79,34.65l22.53-35.54c34.54-3.3,67.28-13.52,91.16-21,26.78-8.37,51.11-18,74.76-7.51a64,64,0,0,1,17.09,11.36c18.6,17.27,21.28,40.5,21.84,48.17l36.29,6.75a108.84,108.84,0,0,0-16.06-56.84A115.39,115.39,0,0,0,712.37,138c4.14-16.24,13.47-52.78,13.47-52.78V83.26c-1,.73-27.9,26.29-40.64,38.39a84,84,0,0,0-14-4c-14.82-2.92-31.38.79-63.91,8.35-40,9.28-48.23,15.5-72.58,20.23C515.43,150,487.37,152.51,451.26,145.88Z"/><path class="cls-5" d="M645.56,194.37A236.16,236.16,0,0,1,607.66,168l-35.32,10.6A244.43,244.43,0,0,0,625.09,222c-3.6,18.27-10.45,53-10.68,54.22l38.37-40c23.84,10.26,46.57,15.61,60.22,18.83,28.88,6.8,47.64,7.91,78.36,20.55,16.29,6.71,24.57,10.21,31.15,17.67,23.71,26.85,6.27,74.91,2.89,83.82l25.05,22.8a118.15,118.15,0,0,0,17.66-59.09,121.57,121.57,0,0,0-5.91-40.75l40.6-43.72-53.73,18a84.12,84.12,0,0,0-8.58-10c-12.1-12-24.23-16.46-48.49-25.37-34.32-12.6-41.51-7.82-86.07-20.87C669.69,207.53,651.35,197.6,645.56,194.37Z"/><path class="cls-5" d="M750.57,774.36c8.43-28.61,5.38-29.85,15.84-65.84,10.79-37.17,19-52.22,22.38-58.12A190.49,190.49,0,0,1,818,611.86l-11.88-35a237.58,237.58,0,0,0-40.77,48.49c-13.49-3.13-55.24-12.74-56.86-12.2s29.21,29.57,41.57,40.52a306.19,306.19,0,0,0-14.59,40.41c-8.55,28.49-5.36,30.3-15.42,68.4-13.66,51.75-23.79,63.82-35,70.33-9.71,5.64-19.47,6.67-26.34,7.39-24.12,2.54-43.1-6-51.7-10.6l-24.09,25.69a184.19,184.19,0,0,0,34.69,13.49c10.21,2.83,22.85,6.31,36.61,6.1A85.29,85.29,0,0,0,689,866.53c12.25,12.4,37.55,36.86,38.75,37.58,0,0-8.29-35.45-12.58-55,.9-.82,1.58-1.47,2-1.87C733.91,831,739.46,812.09,750.57,774.36Z"/><path class="cls-5" d="M632.07,799.73c15.63-11.09,41.7-26.05,80.93-34q3-18.62,6.1-37.25a278.29,278.29,0,0,0-69,21.94c-12.69-13.85-36-40.25-36-40.25.23.92,7.32,34.31,11.95,53.29-3.89,2.4-7.33,4.69-10.34,6.77-21.14,14.67-37.34,25.9-52.67,46.24-11.93,15.85-19.09,23.52-33.4,38.86-5.78,6.21-12.41,13-23.26,16.38a45.68,45.68,0,0,1-23.62.64c-18.17-4.1-28.16-17.62-30.83-21.51l-36.29,8.67A97.72,97.72,0,0,0,454.15,897c5.6,3,14.48,7.54,26,9.63l12.54,51.71L507.93,906c14.54-3.46,25.3-11.13,33.25-16.94,15-11,20.84-20.61,32.12-34.36C573.3,854.65,599.19,823.08,632.07,799.73Z"/><path class="cls-5" d="M531.23,842.45q12.36-14.61,24.73-29.23c-16.78-1.94-31.93-3.13-45.62-3.7l-16-58.92c-.24.7-10.23,38.1-15.73,58.69-35.46,1.14-58.11,7.15-73.23,13.89a170.17,170.17,0,0,1-47.53,13.49c-18.86,2.49-37.75,5-54.6-4.5-28.53-16.07-31.45-55.42-31.79-61l-33.08-6.74c-.39,9.79-.39,41.5,21.84,70.65a116.39,116.39,0,0,0,15.06,16.47c-3.61,13.32-13.13,53.22-13.13,53.22l38.64-36.61a78.18,78.18,0,0,0,18.52,5.46c15,2.43,28.72,0,38.16-1.63,15.49-2.72,24.84-6.89,36.35-11.22,10.62-4,45.29-16.47,78.68-20.23A207.72,207.72,0,0,1,531.23,842.45Z"/><path class="cls-5" d="M863.5,683.69c.5-1.43,1-2.89,1.4-4.39,5-17.55,2.79-32.75.64-47.53-1.55-10.73-3-13.2-12.84-45.92-8.66-28.83-13-43.47-14.78-54a257.36,257.36,0,0,1-3.21-50.42,260.82,260.82,0,0,1,2.89-30.83l-28.9-21.2a246.25,246.25,0,0,0-8.29,47.44c-15.77,4-57,14.41-57.55,15.19s41.61,10.36,57.57,13.66a177.49,177.49,0,0,0,3.45,23.91c10,46.35,19.91,72.58,19.91,72.58,4.9,12.93,10.52,25.63,10.92,44.32.2,9.31.52,24.39-7.7,38.54-15.39,26.45-49.24,30-54.28,30.5l-8,38.22a122.57,122.57,0,0,0,61-23.12,131,131,0,0,0,19.66-17.18c16.49,5.21,52.27,14.45,53.24,14.93C898.62,728.44,875.28,699,863.5,683.69Z"/><path class="cls-5" d="M953.54,495,906,480.91a69.25,69.25,0,0,0-1.93-8.1c-4.42-14.52-13.39-24.11-31.15-42.72-23.48-24.59-28.52-22.53-47.85-43a252.58,252.58,0,0,1-59.74-109.51A107.76,107.76,0,0,0,731,273.37a243.35,243.35,0,0,0,18.43,61.82c-11.59,11-40.59,37.74-40.59,37.74,2.51.5,37.95-8.94,53.49-13.14q1.62,2.71,3.36,5.43a256.73,256.73,0,0,0,55.23,61.34c20.1,15.78,45.27,30.14,51.71,56.84a45.63,45.63,0,0,1,1.28,13.81c-1.62,24.5-23.54,40-29.54,44q5.28,16.44,10.57,32.87c7.18-3.4,30.83-15.72,43.7-43.79a93.64,93.64,0,0,0,7.18-22.49Z"/><path class="cls-5" d="M122.62,295.75c-7.75,20.69-5.77,40.35-4.92,48.49.77,7.41,2,10.77,10.49,39.61,7.58,25.63,14.37,48.59,16.7,57.38,5.46,20.66,9.56,51.2,2.35,93.13l28.48,24.84a256.35,256.35,0,0,0,8-52.16L239,491.75S200.33,481,183.15,476.13a282.63,282.63,0,0,0-5.08-34.26c-5-24.54-7.92-29.88-18.73-64.76-6.2-20-11.19-34.81-8-54.28,1.37-8.43,2.89-20.69,12.21-30.83,5.66-6.16,11.73-9,22.48-13.81a156.18,156.18,0,0,1,33-10.6l6.21-36.18a144.1,144.1,0,0,0-51.39,14.35c-11.21,5.55-24.23,12-35.3,24-16.77-4-52.05-13.44-52.05-13.44C87.61,257.76,110.44,282.55,122.62,295.75Z"/><path class="cls-5" d="M84.71,507.71c3.6,16.4,13,29.76,19.07,38.32,13.24,18.75,22.07,20.92,44.8,42.39,10.34,9.77,30.56,29.09,46.73,55.4a212.05,212.05,0,0,1,27,69.37L258.41,718c-4.22-26.73-11.51-48.09-19.74-65.13l40.78-39.08S240,622.64,223,626.17c-1.36-1.91-2.71-3.74-4-5.47-10.13-13.22-35.87-43-68.88-75-19.2-18.59-32-29.35-33.24-46.89-1.41-20.35,13.68-37.36,23.12-46.25l-8.19-34.2c-3.86,2.62-39.88,27.81-47.19,63.48L36.34,494.32C37.86,494.83,70.71,503.86,84.71,507.71Z"/><text class="cls-6" transform="translate(414.02 700.79) scale(1.67 1)">BITÉ</text><text class="cls-6" transform="translate(382.87 541.18) scale(1.67 1)">A</text><text class="cls-7" transform="translate(554.99 537.52) scale(1.16 1)">Ω</text><text class="cls-8" transform="translate(415.25 743.06) scale(1.74 1)">NIRATA</text><path class="cls-5" d="M599.31,451.29l-18.3-18c-29.68,25.61-55.86,46.69-76.72,62.92q.13-30.83.28-61.64c23.25,2.08,44.14-5.91,52.85-21.23a40.92,40.92,0,0,0,5-19.23c0-3.42-.49-19.57-13.49-29.55a34.37,34.37,0,0,0-17-6.74H475.35a35.39,35.39,0,0,1,5.78,19.59c-.18,39.77,2.44,79.58,2.33,119.33-26.3-23.26-50.6-46.25-73-68.59A46.75,46.75,0,0,0,396,445.51c32.24,27.25,58.69,50.34,78,67.44l3.87,3.42c-47.62,35.75-94.57,68.18-92.5,71.41.28.43,1.37.23,2.25,0l14.13,19c24.58-22.58,51.39-45.83,80.49-69.3-1.09,26.54-1.86,61.89-.85,104.3l22.17.32q.24-51.15.47-102.31l5.5,5c29.93,27.24,54,50.37,70.77,66.82A68.28,68.28,0,0,0,598,589.38c-29.14-21.48-59.51-45.36-90.59-71.82C539,493.08,569.83,471.05,599.31,451.29Zm-95.54-31.47q.17-24.57.32-49.14a30.85,30.85,0,0,1,11.56-1.76c2.19.08,13.36.54,20.56,9,7.89,9.26,7.86,24.44.16,33.88-7.38,9-19.12,9.54-21.36,9.63A31.6,31.6,0,0,1,503.77,419.82Z"/></g></g></svg>