<svg xmlns="http://www.w3.org/2000/svg" viewBox="0 0 992.13 992.13"><defs><style>.cls-1{fill:#222;}</style></defs><g id="Capa_2" data-name="Capa 2"><g id="Capa_1-2" data-name="Capa 1"><path class="cls-1" d="M953.17,303a497.64,497.64,0,1,0,39,193.1A494.45,494.45,0,0,0,953.17,303ZM496,978.84C229.35,978.8,13.24,762.62,13.28,496S229.51,13.24,496.14,13.28s482.75,216.23,482.7,482.86S762.62,978.89,496,978.84Z"/><path class="cls-1" d="M770.86,493.44c-1.33-151.9-124.1-274.8-276-276.32,9.78,38.12,58,218.56,58,218.56Z"/><path class="cls-1" d="M491.5,217.09C338.86,217.38,215,340.32,213.25,492.62a1.24,1.24,0,0,1,.52.23,1.19,1.19,0,0,1,.51-.09h0v-.06c47.67-12.57,221-58.12,221-55.54s46-181.54,55.94-220.06h.21Z"/><path class="cls-1" d="M491.14,774.74h-.7L435.33,554.17,213.22,496.89c.07,18.65,2.33,117.45,82.41,196.93C374.77,772.37,472.14,774.67,491.14,774.74Z"/><path class="cls-1" d="M495.8,774.72c151.43-2,273.72-124.7,275.06-276.3L553.34,554.19Z"/><polygon class="cls-1" points="527.28 465.41 497.8 465.4 497.78 561.34 490.08 561.34 490.1 465.4 460.89 465.4 460.89 457.43 490.1 457.44 490.11 427.23 497.81 427.23 497.8 457.44 527.28 457.44 527.28 465.41"/><path class="cls-1" d="M180.86,269.16c.69-4.07-5-8-14.79-14.56-7.25-4.86-13.06-7.76-19.58-9.46a18.57,18.57,0,0,0-8.47-.67c-3.81.7-6.21,2.6-10,5.65-5.32,4.32-9.51,7.72-11.12,13.6-.81,3-.62,5.28-.34,8.47a48.22,48.22,0,0,0,5.31,17.59,100.25,100.25,0,0,0,20.91,27.56c5.17,4.77,12.52,11.44,24.07,16.1,5.57,2.26,10.08,4,16.26,3.82,11.25-.36,19.13-7,22.91-10.12a41.79,41.79,0,0,0,15.61-36.35c-.17-2.09-.57-4.85-2.66-6.47-1.39-1.08-3.68-1.75-5-.83s-1.18,2.94-1.16,3.65a78.62,78.62,0,0,1-2.66,18.76c-1.62,6.46-6.6,12.87-13,15.6-6,2.58-11.73,1.22-16.6,0-10.3-2.59-16.8-8.24-25.06-15.6-7.82-7-14.45-12.89-19.25-23.08-3-6.45-7.7-19.65-3.15-23.23,2.66-2.1,7.46-.18,12.45,1.82,9.9,4,18.92,11.79,18.92,11.79,2.76,2.4,5.93,5.5,9,4.65a7.19,7.19,0,0,0,3-2.16C177.08,275.14,180.41,271.84,180.86,269.16Z"/><path class="cls-1" d="M276,233.54c-.3-3.11-1.84-16.11-11.78-30.37a72,72,0,0,0-30.87-25.24c-6.77-2.76-16.4-6.69-25.06-3.49a67.63,67.63,0,0,0-12.78,6.64,66.82,66.82,0,0,1-5.64,3.82c-3.72,2.12-5.46,2.41-7.81,4.48A19.41,19.41,0,0,0,178.4,194c-1.93,3.4-3.19,8.93-.71,19,.78,3.15,2.89,10.65,10.46,22.74,4.77,7.63,10.36,16.42,20.57,25.07,5.59,4.73,10.75,9,18.92,11.29,3.67,1,10.84,2.93,18.59.34,2.28-.77,4.67-2.17,9.46-5,4.47-2.62,7.5-4.42,10.79-7.47a33.36,33.36,0,0,0,6.81-8.13C274.13,250.29,277,244.69,276,233.54ZM263.5,247.65c-.75,2.23-3.08,9.25-10,12.78a20.1,20.1,0,0,1-12.28,1.65c-4.53-.65-8.31-2.56-14.28-7.14A91.1,91.1,0,0,1,206.24,234a77.15,77.15,0,0,1-11.62-23.41c-3.16-11-1.45-15.19-.66-16.76,2.92-5.82,9.09-8,10.46-8.46,1.87-.66,6.06-1.82,13.61-.17,11.45,2.51,19.13,9,23.73,13,5,4.34,13.2,11.54,18.42,23.91C263,228.66,266.8,237.74,263.5,247.65Z"/><path class="cls-1" d="M301.84,215.79c-2.66-5.69-6.73-10.78-8.54-16.8-.22-.73-5.76-12.48-16.84-36-1.71-3.63-8.33-17.64-10.95-23.24-3.38-7.21-3.14-6.88-3.4-7.26-.9-1.35-1.56-2-1.41-3,.19-1.3,1.58-1.94,5.64-4,5.59-2.82,5.23-2.76,6.64-3.32,4.08-1.63,6.62-2.64,8.13-1.49,1,.79.82,2,1.33,4.15s1.46,3.87,4.65,8c6.83,8.78,12.28,14.44,12.28,14.44,15.54,16.12,15.41,16,16.76,17.26a131.34,131.34,0,0,0,16.43,12.78c5.1,3.35,11.61,7.63,13.11,6.15,1-1-.76-4.17-4.32-10.63,0,0-4.7-8.55-12.77-23.57-2.66-4.94-6.44-12-10.12-20.08-1.81-4-3.53-7.4-7-14.28a39.55,39.55,0,0,0-2.16-4c-3.42-5.31-6.51-6.46-6.14-8.47.1-.55.45-1,5.65-3.65,6.2-3.11,7.17-3.15,8-3,3,.61,4.57,4.26,5.31,6,3.37,7.75,7.35,15.23,10.46,23.08,2.07,5.24,5.2,11,11.44,22.57,3.16,5.83,5.76,12,9.3,17.6,1.9,3,4.83,7.37,5.8,13.77.45,2.93.73,5-.33,7.14-2.07,4.18-7.62,5.5-13.39,6.87a25.64,25.64,0,0,1-7.19,1.09c-6.22-.17-10.8-3.54-14.77-6.64-9.41-7.33-14.12-11-20.91-18.26-10.85-11.59-15.71-19.16-16.6-18.59s2.3,6.53,8.46,18.59c3.62,7.07,6.84,13.36,11.62,21.58,7.64,13.14,8.4,12.53,9.46,15.27a8.08,8.08,0,0,0,2.82,4.15c1.41,1,2.49.82,2.82,1.66.54,1.39-1.76,3.6-3.16,4.65-1.82,1.36-3.59,1.79-7.13,2.65-4.16,1-5.18.68-5.65.5A6.82,6.82,0,0,1,301.84,215.79Z"/><path class="cls-1" d="M813.6,791.63c-4.89-4-10.78-6.75-15-11.37-.51-.56-10.63-8.71-30.88-25-3.13-2.52-15.2-12.23-20-16.12-6.2-5-5.83-4.81-6.23-5-1.4-.81-2.29-1.15-2.6-2.1-.39-1.25.58-2.43,3.34-6.05,3-3.89,3.43-4.61,4-5.28l.54-.61c.59-.65,3.62-4,6-3.59,1.49.24,1.7,1.82,3.36,3.73,2.28,2.63,5.11,3.37,7.72,4.24,3.12,1-4.8-1.31,17.3,7.84,12,5,18,7.47,21.29,8.47a113,113,0,0,0,21.53,4.36c10.52,1.37,11.51.4,11.7-.12.45-1.18-2.05-3.12-8-7.35-9.39-6.71-14.38-9.88-19.67-13.57-10.23-7.13-9-7.43-16.55-12.2-4-2.54-8.46-5.05-12.2-8.34-.57-.51-2.46-2.2-5.23-4.24-1.83-1.34-3.31-2.3-3.61-2.49-5.87-3.76-7.6-3.45-8.09-5.1-.58-2,1.36-4.18,4.48-7.72,1.69-1.92,2.57-2.88,3.92-3.23,3.08-.79,6.24,2,7.41,3,6.49,5.62,13.59,10.52,20,16.19,2.39,2.09,8.6,6.42,21,15.07,5.32,3.7,10.33,7.86,15.8,11.33a59.14,59.14,0,0,1,12.2,10.46c2.11,2.36,2.92,3.68,3.11,5.35.5,4.3-3.4,8.16-6.22,10.95a21.4,21.4,0,0,1-6.1,4.73c-1.86.88-4.65,1.74-16.93-.13a123.69,123.69,0,0,1-18.18-3.86c-1.8-.53-5.38-1.63-9.83-3.36-13.89-5.39-21.9-11.28-22.32-10.67s8.93,7.89,15.74,13c6.34,4.78,12,9,19.88,14.33,12.62,8.49,13,7.6,15.18,9.6a8,8,0,0,0,4.35,2.5c1.7.27,2.6-.35,3.26.26,1.1,1,0,4-.8,5.56-1,2-2.45,3.19-5.26,5.51-3.3,2.72-4.36,2.88-4.86,2.91A6.77,6.77,0,0,1,813.6,791.63Z"/><path class="cls-1" d="M458.86,184.94c-4.33-4.28-8.37-6.21-11.78-8.13a76.45,76.45,0,0,1-11.62-8.14,28.08,28.08,0,0,0,8-6.31c2.95-3.38,6-8.54,7.31-19.41,2.71-21.91-4.69-39.84-7.79-46.48-5.66-12.08-11.08-16.59-12.78-17.93a42,42,0,0,0-15.6-7.47c-4-1.06-8.67-2.28-14.28-1.16-2.8.55-3,1.13-6,1.49-3.32.4-4.59-.14-11.29-.17-3.1,0-4.45.1-6,.83a11.33,11.33,0,0,0-3.82,3.32c-7.32,10.09-7.14,32.7-7.14,32.7.09,12.87.16,21.14,3.31,32.36a80.32,80.32,0,0,0,12.28,25.9c4.33,5.94,8,10.89,14.6,12.78,2.14.62,8.06,2.33,14.28.17,3.29-1.15,5.65-3,9.46-2.49,1.91.27,3,1,5.14,2.16,6.55,3.61,6.2,2.37,12.95,6s12.11,6.64,12.11,6.64a11.83,11.83,0,0,0,6.64,2c1.77-.09,4.87-.76,5.48-2.65C462.59,190.18,462.64,188.67,458.86,184.94Zm-30-23.24c-1.46,2-7.12,9.83-15.94,10-6.41.09-11-3.93-13.77-6.3-1.09-.95-4.32-3.9-8.34-11.86a79.61,79.61,0,0,1-6.87-19.86A86.73,86.73,0,0,1,384,98.12c2.1-9.78,3.31-15.42,8.47-18.59,7.91-4.85,18.55.12,20.08.84,6.1,2.85,9.45,7.18,12.28,10.95,9.87,13.11,11,27.45,11.45,33.2.69,9.9-.95,17.27-2.33,23.4C431.89,157.24,429.7,160.49,428.83,161.7Z"/><path class="cls-1" d="M481.79,66.77c-1.61,1.69-.53,4.78,0,7.63s.17,3.6-1,13.78c-.22,1.91-1.14,11.84-3,31.7-1,11.06-1.3,14.81-.17,20.25.78,3.74,1.86,8.67,5.8,13.28,3.81,4.44,8.28,6.25,12.12,7.8a47.83,47.83,0,0,0,16.1,3.16A66.25,66.25,0,0,0,523.1,164q-.08,3.15-.17,6.3a4.69,4.69,0,0,0,1.66,2.16,5.88,5.88,0,0,0,3.66.67c4.71,0,4.76,1.17,8,.66,1.58-.25,3.7-.58,4.65-2.15.77-1.29.33-2.68,0-4.49-.53-2.88-.15-5.86-.33-8.79-.55-9.08,2.13-31.7,2.33-33.36,1.31-10.91,2.32-19.35,4.32-28.39,1.06-4.78,1.13-9.83,2.82-14.43.71-1.92,2-5.1,1.33-9-.21-1.18-.66-3.6-2.49-4.65s-2.74.32-5.14-.49c-2.66-.91-2.8-3-4.81-3-1.43,0-1.53,1-3.66,1.32-1.94.28-2.83-.45-3.48.17s-.29,1.76,0,3.65.15,3.77.33,5.65c.69,7.31-2,24.39-2,24.39-.33,2.09-1.27,10.91-3.16,28.55-.65,6.12-1.55,15-2.49,25.89a29.35,29.35,0,0,1-11.95,1.83c-3.27-.2-10.22-.6-14.44-5.48-2.23-2.58-2.89-5.48-3.48-10.13a129.06,129.06,0,0,1-.66-23.9c.94-19.62,1.72-27.34,3.49-32,1-2.74,1.65-5.62,2.82-8.3,1-2.32,1.67-3.36,1.33-4.81-.6-2.57-3.71-3.93-5-4.49-.65-.28-.51-.15-6-1.32-2.63-.57-3.39-.75-4.65-.67S482.86,65.65,481.79,66.77Z"/><path class="cls-1" d="M562.94,161.39c2-5.64,2.83-11.63,4.81-17.26,2.24-6.34.7-3.28,7-26.06,3.35-12.16,4.42-15.31,6.14-22.9,1.89-8.31,2.83-12.46,2.83-14.11,0-3.69-.63-6.84,1.33-8.47,1.66-1.37,4.3-.92,5.81-.66,2.76.48,2.72,1.46,7,3,2.9,1,3.85.93,5.14,2.16a6,6,0,0,1,2,4c0,2.1-1.49,3-3.15,5.65-1.44,2.28-1.23,3.09-2.83,7.8-1.44,4.24-2.56,6.35-3.81,9.29-1.17,2.72-2.14,5.44-6.15,20.58-4.39,16.56-3.3,13.61-5.15,19.92,0,0-2.33,8-4.48,17.42-1.45,6.37-1.37,7.79-1.17,9s.5,2,0,2.82c-1.25,2.13-6.11,1.33-7.13,1.16-1.83-.3-7.39-1.22-9.13-5.15C560.83,167,561.83,164.55,562.94,161.39Z"/><path class="cls-1" d="M588.85,170.41c-.77,2.62,2.42,6.05,12.76,13.72,14.14,10.51,22.86,15,25.72,16.44a60.37,60.37,0,0,0,14.27,5.31c5.9,1.35,9.59,2.14,13.11.17,4.39-2.45,6.33-8,6.31-12.28,0-5.45-3.16-8.67-8.13-15.44-1.2-1.64-8.63-11.76-12.61-19.92-2.89-5.93-9.6-19.69-4.31-33.36.39-1,4.62-11.46,15.44-16.43,3.1-1.42,10.21-4.68,16.43-1.32a13.2,13.2,0,0,1,5.81,6.47c2,4.94.07,10-2.33,16.1-3.16,8.09-6,10-5.14,14.44.17,1,1,4.81,4.48,6.64a8.46,8.46,0,0,0,8.79-.66c1.8-1.37,2.41-3.27,3-5.15,3.19-10.29,4.78-15.44,4.82-15.76.63-5.64,1.31-11.65-1.82-17.6-1.41-2.66-4-5-9.13-9.63-5.65-5.09-8.47-7.63-11.45-8.8-7.34-2.86-14.6-.18-19.59,1.66a39.89,39.89,0,0,0-20.08,15.93,38.64,38.64,0,0,0-6,18.59c-.38,8.47,2.33,14.71,4.81,20.42a92.82,92.82,0,0,0,11.45,18.92,81.08,81.08,0,0,1,9.95,16.27c1.13,2.46,2.17,5.1,1,6.8-1.57,2.28-6.22,1.56-8.63,1.16-9.32-1.54-16.46-6.66-20.75-10.29-7.33-6.22-9.27-10.64-16.59-14.11-3-1.42-6.26-2.39-9-1A5.23,5.23,0,0,0,588.85,170.41Z"/><path class="cls-1" d="M115.37,720.49c-1.7,2-.12,5.6,3.21,13.31,5.35,12.4,8.06,18.86,12.6,26.44.25.42.47.77.65,1.06a60.63,60.63,0,0,0,9.35,12c4.31,4.25,7,6.86,11.07,7,5,.22,9.56-3.44,11.82-7.13,2.84-4.65,1.86-9,1.19-17.41,0-.36,0-.58-.06-.8a108.82,108.82,0,0,1,.79-23.39c1.35-8.1,3.31-19.92,12.95-28.21,1.49-1.28,11.11-9.31,23.12-7.53,2.65.39,9.86,1.45,13.25,7.35a13.28,13.28,0,0,1,1.54,8.56c-.93,5.24-5.19,8.53-10.44,12.47-6.95,5.22-10.31,5.35-12,9.58-.27.69-1.65,4.5.32,8,1.25,2.21,3.82,4.28,6.58,4.16,2.3-.1,3.89-1.7,5.15-2.93,9.72-9.54,8.09-6.44,11.95-11.12,5.78-7,8.67-10.5,9.48-15.67.58-3.72-.12-6.66-1.51-12.54-1.73-7.32-2.6-11-5.31-14.11-5.16-6-13.6-7.71-18.54-8.72-1-.2-1.77-.37-2.9-.5-9.15-1.08-16.4,2.63-20,4.56a45.86,45.86,0,0,0-14.44,12.45A50,50,0,0,0,157,713.86c-3,10.53-2,20.49-1.62,24.74.08.85.19,1.7.3,3.27a79.69,79.69,0,0,1-.38,15.81c-.45,3.57-1.11,5.43-2.73,6.31-2.6,1.41-6.33-.92-7.53-1.67-7.43-4.63-10.29-13.68-12.66-21.54-1.95-6.42-3-12.65-7.25-18-1.62-2.06-3.56-3.78-6-3.82A5.08,5.08,0,0,0,115.37,720.49Z"/><path class="cls-1" d="M689.9,230.62a6.21,6.21,0,0,1,.5-3.65,8.19,8.19,0,0,1,2.49-3.15c2.86-2.31,4.84-5.56,7.47-8.13,4-4,9.51-10.51,20.42-23.57,3.56-4.26,7.35-8.93,14.94-18.25,9.26-11.4,8.9-11.17,9.22-11.38a4.23,4.23,0,0,0,2.07-2.57c.35-2.15-2.22-4.08-4.65-6.14-1.65-1.39-5.08-5-12-12.28-5.6-5.92-6.54-7.76-6-9s2.58-1.42,3.32-1.49c4.31-.41,7.89,2.75,9.13,3.82,5.89,5.13,12.51,9.36,18.58,14.28,7.88,6.38,8.68,6.34,16.76,13.11,6.8,5.7,5.18,4.84,9.58,8.35,8,6.33,13.32,9.19,12.66,11.91a3.92,3.92,0,0,1-2.49,2.32c-1.82.63-3.67-.31-4.65-.83a83.5,83.5,0,0,1-10.62-7,42.89,42.89,0,0,0-10-5.82,7.24,7.24,0,0,0-5-.49,6.56,6.56,0,0,0-3.32,2.82c-5,7.64-12.39,13.39-17.77,20.74s-11.29,15.43-18.59,23.9c-4.1,4.76-7.05,10.72-12.12,14.44-1,.75-3.37,2.29-4,5-.45,2,.31,3.22-.5,4-1.24,1.16-4.47-.42-6-1.16-2.81-1.38-4.36-3-7.46-6.31A6.85,6.85,0,0,1,689.9,230.62Z"/><path class="cls-1" d="M639.69,909.55a6.21,6.21,0,0,1-2.85-2.34,8.18,8.18,0,0,1-1.38-3.77c-.47-3.65-2.19-7-3-10.62-1.26-5.55-4-13.61-9.36-29.75-1.76-5.27-3.74-10.94-7.7-22.29-4.85-13.86-4.84-13.44-4.86-13.82a4.17,4.17,0,0,0-1.1-3.1c-1.64-1.43-4.63-.26-7.66.73-4.92,1.62-8.87,2.3-16.73,3.73-3.68.68-6.65,1-8.77-.7a3.66,3.66,0,0,1-1.52-2.52c0-2.59,4.78-4.76,8-5.77,7.45-2.33,14.53-5.75,21.9-8.34,9.56-3.36,9.95-4.06,20-7.4,6-2,6.9-2.09,8.82-2.66,1.6-.48,2.78-.92,3.31-1.12,9.21-3.39,11.65-4.6,13.52-3.38a3.94,3.94,0,0,1,1.66,3.65c-.22,1.49-1.61,2.44-3.48,3.49a60.3,60.3,0,0,1-8.91,4A41.36,41.36,0,0,0,629.4,813a7.17,7.17,0,0,0-3,4,6.53,6.53,0,0,0,.66,4.3c3.91,8.22,4.91,17.58,8.35,26S642.6,865,646,875.61c1.9,6,5.43,11.63,5.94,17.89.1,1.27.18,4.07,2.15,6,1.43,1.41,2.9,1.43,3.13,2.52.33,1.66-2.71,3.58-4.13,4.47-2.64,1.67-4.86,2.13-9.28,3.06A7,7,0,0,1,639.69,909.55Z"/><path class="cls-1" d="M846.91,247.25c-1.95-3.3-3.61-2.58-5.31-5.81-1-2-.87-3.09-2.49-5.32-1.45-2-2.43-2.25-2.82-2.32-1.54-.27-2.9.9-3.65,1.49-2.71,2.13-6.33,2.72-9.46,4.15-3.32,1.52-7,2.59-21.42,6.47-20.34,5.48-25.6,6.75-31,8-3.79.84-5.68,1.27-7.64,1.66-1.49.3-9,2.3-24.07,6.3a5.93,5.93,0,0,0-3.32,2c-.91,1.21-1,2.54-1,4.64a17.19,17.19,0,0,0,1.32,7.47c.82,1.9,1.44,3.35,2.82,3.82,1.55.53,3.15-.47,4.32-1.16,3.24-1.91,7-2.83,10.29-4.65a50.18,50.18,0,0,1,14.94-5.14,133.5,133.5,0,0,0,23.07,27.72,108.87,108.87,0,0,1-7.47,9.13c-2.18,2.37-4.11,5-6.31,7.3-1.49,1.58-2.61,2.69-3.16,4.65a8.53,8.53,0,0,0,.33,5.48c1.06,2.4,2.36,1.81,4.82,5,1.84,2.37,2.06,3.92,4.14,5a3.48,3.48,0,0,0,2.49.49c2-.59,2.66-4.15,2.83-5,.71-3.59,2.84-5.7,12.61-18.59,14.59-19.24,11.66-16.92,17.77-24.07,14.39-16.83,21.58-25.25,24.9-27.38.78-.5,3.33-2.06,4-4.81S847.45,248.16,846.91,247.25Zm-38,27.38q-6.27,7.56-12.45,14.43-5.43-6.33-11-13.61-3.5-4.63-6.63-9.13,12.51-3.46,25.56-6.8,10.25-2.61,20.25-5Q817.37,264.36,808.9,274.63Z"/><path class="cls-1" d="M535,830.59c-3.83.1-4,1.9-7.66,1.82-2.22-.06-3.12-.75-5.85-.41-2.46.3-3.16,1-3.41,1.33-1,1.22-.62,3-.47,3.92.54,3.4-.71,6.85-1,10.28-.29,3.64-1.15,7.37-4.76,21.86-2,8-2.13,8.26-3.15,12.73-1.88,8.21-1.82,9.33-3.16,15.37-4.55,20.6-6.83,30.89-7.47,33a8.17,8.17,0,0,0,4.15,10.79,11.77,11.77,0,0,0,4.81,1.33c2.24.23,4.24.43,5.48-.67s1-3.35,1-5.64c0-4,1.08-8,1.5-12,.36-3.46.93-8.47,1.82-14.77,5.5-.48,11.38-1.2,17.56-2.22,5.48-.9,10.65-1.95,15.48-3.09,1.21,3,3.67,9.13,4.81,12,1.27,3.16,3,6.15,3.82,9.46.6,2.6.67,4.36,2.15,5.32,2,1.32,5.3.18,5.81,0a42.79,42.79,0,0,1,4.09-1.82,22.29,22.29,0,0,1,2.36-.57c3.57-.66,5,0,5.63-.73,1-1.17-1.2-4.38-1.62-5-3.86-5.79-6.51-12.3-9.79-18.43a100.56,100.56,0,0,1-7-15.1c-.6-1.73-1.44-4.32-3-8.47-1.46-3.9-2.58-6.61-3-7.64-3.85-9.53-9.75-24.13-10.56-35-.09-1.19-.29-4-2.27-5.83C539.22,830.48,536,830.56,535,830.59Zm5.44,46.53Q544,886.29,547,895c-5.45,1.1-11.19,2.1-17.22,3q-5.75.81-11.21,1.36,3.06-12.63,6.49-25.64,2.7-10.22,5.5-20.11Q535.57,864.72,540.42,877.12Z"/><path class="cls-1" d="M700.37,761.71c-3.33,1.9-2.63,3.57-5.89,5.22-2,1-3.1.82-5.35,2.41-2,1.42-2.29,2.4-2.36,2.78-.3,1.54.86,2.92,1.43,3.68,2.09,2.74,2.62,6.37,4,9.52,1.47,3.34,2.48,7,6.15,21.51,2,8,2,8.28,3.25,12.7,2.22,8.12,2.81,9.08,4.49,15,5.73,20.3,8.6,30.45,9,32.64.24,1.15.8,4,3.14,5.85a9.51,9.51,0,0,0,5.62,1.69,11.71,11.71,0,0,0,4.87-1.11c2.08-.85,3.94-1.62,4.51-3.17.63-1.72-.68-3.44-1.79-5.44-1.94-3.52-2.81-7.53-4.34-11.24-1.31-3.22-3.18-7.91-5.38-13.87,4.62-3,9.46-6.44,14.42-10.27,4.4-3.39,8.46-6.76,12.17-10l9.9,8.25c2.61,2.18,5.59,4,7.84,6.53,1.76,2,2.65,3.51,4.41,3.66,2.42.2,4.76-2.35,5.12-2.75,1-1.12,1.16-1.9,2.74-3.53a21,21,0,0,1,1.81-1.62c2.84-2.27,4.43-2.34,4.62-3.31.28-1.48-3.13-3.29-3.81-3.65-6.13-3.27-11.55-7.75-17.34-11.6a99.78,99.78,0,0,1-13.28-10c-1.36-1.24-3.31-3.12-6.64-6.05-3.12-2.74-5.39-4.6-6.24-5.31-7.91-6.57-20-16.64-25.87-25.84-.64-1-2.16-3.4-4.76-4.06C704.06,759.6,701.29,761.18,700.37,761.71Zm26.81,38.41q7.47,6.39,14.25,12.67c-4.28,3.55-8.87,7.15-13.78,10.75Q723,827,718.43,830q-3.3-12.59-6.42-25.66-2.46-10.29-4.68-20.33C713.8,789,720.44,794.37,727.18,800.12Z"/><path class="cls-1" d="M190.75,818.56a3.77,3.77,0,0,1,1.74-2.24c1.79-1.22,1.75-2.38,8.09-10.09,5.9-7.16,13-14.74,21.3-24.51,10-11.75,14.94-17.63,17.3-21.54,5-8.24,9.4-18.27,13.32-17.55a31.67,31.67,0,0,1,3.37,2.24c4.6,3.22,5.1,3.59,5.85,4.24,2.6,2.25,4.33,3.75,4.23,5.6-.09,1.62-1.54,2.71-2.49,3.48-3.45,2.81-5.61,6.91-8.72,10.09-10.92,11.14-13.58,13.23-18.67,19-3.13,3.56-5.5,6.62-7,8.59,3.2,2,6.49,4.19,9.84,6.6a189.1,189.1,0,0,1,16.92,13.69c7.43-8.8,13.69-15.58,18.18-20.29,5.27-5.52,10-11.59,15.69-16.67,2.44-2.18,4.59-3.71,6.22-7,1-2,1.23-3.44,2.25-3.61,1.35-.24,2,2.2,5.35,5.48,2.64,2.58,3.66,2.46,5.35,4.85.9,1.28,2.47,3.5,1.74,5.23-.52,1.24-1.82,1.23-4.36,2.74a28,28,0,0,0-4.23,3.36c-11.32,10-18.67,17.67-18.67,17.67-5.93,6.17-11.76,12.24-18.93,21-6,7.36-9.29,11.39-11.83,15.93-1.66,3-4.06,5.56-5.35,8.71-.64,1.56-1.21,3.32-2.74,3.86-1.25.44-2.49-.15-4.48-1.12a28.24,28.24,0,0,1-5.48-3.86c-3.47-2.87-3.83-3.66-4-4.36-.1-.45-.25-1.59.75-3.73,1.4-3,3.49-4.62,5.35-6.23a103,103,0,0,0,8.09-8.34c1.48-1.61,3.65-4.08,6.1-7.34-3.77-2.61-7.64-5.43-11.57-8.47-5.7-4.4-10.92-8.79-15.69-13.07-1.46,1.82-3.29,4.17-5.35,7s-3.44,4.68-5,7.1c-2.68,4.19-5.46,8.33-8.09,12.57-.69,1.11-1.74,2.79-3.24,2.86-1.18,0-2.2-.91-3.61-2.24s-1.25-1.6-2.61-3c-2.06-2.1-3-2-4.11-3.86A4,4,0,0,1,190.75,818.56Z"/><path class="cls-1" d="M343.36,908.86c-5,2.53-31.13-6.38-31.13-6.38-3.13-1.07-6.15-2.44-9.31-3.42-2.67-.84-4.74-1.36-7.25-3.06a9.74,9.74,0,0,1-3.85-4,9.85,9.85,0,0,1-.5-5.85,16.62,16.62,0,0,1,2.12-6c3.24-5.54,5.15-11.78,8.22-17.42,7.14-13.14,4.85-13.14,13.82-30.87,0,0,4-7.89,8.34-17.18,3.44-7.34,4-8.84,4.36-10.7,1.84-8.6,1.61-5.41,2.12-7.1.63-2.13.9-3,1.74-3.49,1.6-.85,3.82.68,6.1,2,.52.3-3.82-2.22,11.08,4.73,7.59,3.54,11.39,5.32,14.56,7,9.7,5.07,9.39,5.81,12.21,6.87a8.31,8.31,0,0,1,2.6,1.6c.78.71,2.32,2.11,2.12,3.86a4.3,4.3,0,0,1-3.24,3.24c-1.75.46-3-.39-5.72-1.5-3.22-1.32-2.44-.55-7.6-2.37a82.88,82.88,0,0,1-9.95-4c-2.25-1.1-4.51-2.36-7.47-2.37a5.5,5.5,0,0,0-3.24.87,5.32,5.32,0,0,0-1.87,2.62c-1.25,3.44-3.32,6.57-4.36,10.08-.35,1.21-2.4,5.22-6.47,13.19-2.35,4.61-5.45,10.61-9.22,17.68,4.31,2.07,7.83,3.67,10.21,4.73,4.82,2.15,9.34,5.14,14.44,6.48a12.25,12.25,0,0,1,4.36,2.11,6,6,0,0,1,1.86,2c.87,1.65.9,4.15-.37,5.35-.77.72-1.93.9-5.73.12A60.12,60.12,0,0,1,337,875c-3.25-1.19-6.56-2.23-9.84-3.36-2.5-.87-6.17-2.12-10.7-3.61a59.92,59.92,0,0,1-3.86,8.46c-2.28,4.1-4.19,6.35-3.36,8.84a6.84,6.84,0,0,0,2,2.74c1.25,1.17,2.39,1.53,4.35,2.36,2.42,1,.49.39,5.23,2.49,2.36,1.06,5.48,2.39,11.08,4.61,3.35,1.33,6.43,3.31,9.83,4.49,1,.33,3.14,1,3.67,2.75a3.59,3.59,0,0,1-.18,2.35A4.24,4.24,0,0,1,343.36,908.86Z"/><path class="cls-1" d="M468.09,851.47a41.34,41.34,0,0,0-11.82-15.94c-4.91-4.38-12.44-7.28-27.51-13.07,0,0-7.81-3-15.44-1.38-.68.15-2.36.53-2.86,1.75-.32.77,0,1.47.25,2.49.27,1.21.14,2.46-.13,5a59.23,59.23,0,0,1-3.48,14.32c-4.21,10.32-2.68,17.07-8.6,35,0,0-11.62,35.2-9.72,40.58A10.5,10.5,0,0,0,390.4,923a8.35,8.35,0,0,0,2.62,2.12c1,.48,1.84.64,6.34.5s4.93-.34,5.36-.75c1.25-1.19.84-3.19.75-5.35-.15-3.33.59-4,2.24-11.2.82-3.61,1.86-8.8,2.74-15.56l4.36.24,7.59.5c1.14,1.7,2.87,4.29,5,7.47,4.5,6.8,6.75,10.2,7.59,11.58,2.59,4.24,5.59,8.23,8.21,12.45,1,1.55,1.94,3.16,3.74,3.61,1.38.35,3.43-.63,7.47-2.61,2-1,2.93-1.55,2.86-2.12s-1.44-.65-2.74-1.74a6.73,6.73,0,0,1-2-3.61c-.94-3.25-2.84-6.13-4.23-9.21-3.21-7.13-4.32-7.9-6.1-13.07-.75-2.18-1.22-4-1.49-5.11a38,38,0,0,0,17.18-6.72c3.6-2.58,10.68-7.66,12.57-16.68C471.89,861,469.64,855.33,468.09,851.47Zm-13.94,18.67c-4.67,5.6-10.63,7.7-18.06,10.33a53.33,53.33,0,0,1-9.21,2.36c-6.63,1.19-9.82.67-11.66.24a20.86,20.86,0,0,1-2.4-.74c.47-2.93,1.22-7.2,2.36-12.32,1.92-8.56,2.21-7.35,3.86-14.94,1-4.39,2.6-8.6,3.74-13,.35-1.31.92-3.56,2.87-4.85a7.47,7.47,0,0,1,5-.87,47.35,47.35,0,0,1,14.07,3.36c4.6,1.92,6.9,2.87,9.09,4.86,1.14,1,4.82,4.37,5.85,9.46C461.17,861.72,455.8,868.15,454.15,870.14Z"/></g></g></svg>