<svg xmlns="http://www.w3.org/2000/svg" viewBox="0 0 992.13 992.13"><defs><style>.cls-1{fill:#0b0b38;}.cls-2{fill:#110f4f;}.cls-3{fill:#138b08;stroke:#110f4f;stroke-miterlimit:10;stroke-width:4px;}.cls-4{fill:#fefefe;}</style></defs><g id="Capa_2" data-name="Capa 2"><g id="Capa_1-2" data-name="Capa 1"><path class="cls-1" d="M496.06,992.13A496.19,496.19,0,0,1,303,39,496.19,496.19,0,0,1,689.16,953.14,493,493,0,0,1,496.06,992.13Z"/><circle class="cls-2" cx="496.06" cy="496.06" r="482.78"/><path class="cls-3" d="M770.86,493.39c-1.36-151.9-124.15-274.78-276-276.27,9.79,38.12,58,218.55,58,218.55Z"/><path class="cls-3" d="M491.45,217.09c-152.63.32-276.45,123.28-278.2,275.58a1.22,1.22,0,0,1,.52.22,1.6,1.6,0,0,1,.51-.09h0v-.06c47.67-12.58,221-58.16,221-55.58s46-181.55,55.9-220.06h.21Z"/><path class="cls-3" d="M491.19,774.74h-.71L435.34,554.18,213.22,496.94c.08,18.65,2.35,117.45,82.44,196.91C374.82,772.39,472.19,774.67,491.19,774.74Z"/><path class="cls-3" d="M495.84,774.72c151.43-2,273.71-124.74,275-276.34l-217.51,55.8Z"/><path class="cls-4" d="M548.35,441.17,493.41,231,439.8,441.17,226.5,495.61l212.81,52.62Q466,657,492.73,765.82q28-108.3,56.12-216.6L760,495.94ZM527.27,465.4H497.79v95.94H490.1V465.4H460.88v-8H490.1V427.23h7.69v30.21h29.48Z"/><path class="cls-4" d="M180.83,269.21c.68-4.07-5-8-14.8-14.55-7.25-4.87-13.06-7.76-19.59-9.46a18.52,18.52,0,0,0-8.46-.67c-3.81.7-6.22,2.6-10,5.65-5.32,4.32-9.51,7.73-11.12,13.61-.81,2.95-.62,5.27-.33,8.46a48,48,0,0,0,5.31,17.59,100.25,100.25,0,0,0,20.91,27.56c5.17,4.76,12.53,11.43,24.07,16.1,5.58,2.25,10.08,4,16.27,3.81,11.24-.36,19.12-7,22.9-10.12a41.75,41.75,0,0,0,15.6-36.35c-.16-2.1-.56-4.86-2.65-6.47-1.4-1.08-3.68-1.76-5-.83s-1.18,2.94-1.17,3.65a78.17,78.17,0,0,1-2.65,18.75c-1.62,6.47-6.6,12.88-13,15.61-6,2.58-11.73,1.22-16.59,0-10.31-2.59-16.81-8.25-25.07-15.61-7.82-7-14.45-12.88-19.25-23.07-3-6.45-7.7-19.65-3.15-23.23,2.65-2.1,7.45-.18,12.44,1.82,9.91,4,18.93,11.79,18.93,11.79,2.76,2.39,5.93,5.5,9,4.64a7.3,7.3,0,0,0,3-2.15C177.05,275.19,180.37,271.9,180.83,269.21Z"/><path class="cls-4" d="M275.91,233.58c-.31-3.11-1.84-16.12-11.79-30.38A72,72,0,0,0,233.25,178c-6.78-2.77-16.41-6.69-25.06-3.49a67.63,67.63,0,0,0-12.78,6.64,65.44,65.44,0,0,1-5.65,3.82c-3.71,2.12-5.45,2.41-7.8,4.48a19.67,19.67,0,0,0-3.61,4.57c-1.93,3.41-3.19,8.93-.7,19,.78,3.14,2.89,10.64,10.45,22.74,4.78,7.62,10.37,16.41,20.59,25.06,5.58,4.73,10.74,9,18.92,11.28,3.66,1,10.83,2.93,18.59.34,2.27-.77,4.67-2.17,9.46-5,4.47-2.63,7.49-4.42,10.79-7.47a33.79,33.79,0,0,0,6.8-8.13C274.09,250.33,277,244.73,275.91,233.58Zm-12.45,14.11c-.75,2.23-3.08,9.25-10,12.78a20.19,20.19,0,0,1-12.28,1.66c-4.52-.66-8.31-2.56-14.28-7.14a91.51,91.51,0,0,1-20.74-20.91,77.15,77.15,0,0,1-11.62-23.41c-3.17-11-1.46-15.19-.67-16.76,2.92-5.82,9.08-8,10.46-8.47,1.86-.65,6.06-1.81,13.61-.16,11.45,2.5,19.13,9,23.73,12.94,5,4.34,13.2,11.54,18.43,23.91C262.92,228.7,266.76,237.78,263.46,247.69Z"/><path class="cls-4" d="M301.8,215.82c-2.67-5.69-6.74-10.78-8.55-16.8-.21-.72-5.76-12.48-16.85-36-1.71-3.64-8.33-17.65-10.95-23.24-3.38-7.21-3.14-6.88-3.4-7.26-.9-1.35-1.56-2-1.41-3,.19-1.3,1.58-1.94,5.64-4,5.59-2.82,5.23-2.76,6.64-3.32,4.08-1.63,6.62-2.65,8.13-1.5,1,.79.82,2,1.33,4.15s1.46,3.87,4.65,8c6.83,8.79,12.28,14.44,12.28,14.44,15.55,16.12,15.41,16,16.76,17.26a132.89,132.89,0,0,0,16.43,12.78c5.11,3.35,11.62,7.63,13.12,6.14,1-1-.76-4.16-4.32-10.62,0,0-4.71-8.56-12.78-23.57-2.66-4.95-6.44-12-10.12-20.08-1.81-4-3.53-7.4-7-14.28a39.55,39.55,0,0,0-2.16-4c-3.42-5.31-6.52-6.45-6.14-8.46.1-.56.44-1,5.64-3.66,6.21-3.11,7.17-3.15,8-3,3,.61,4.56,4.26,5.31,6,3.37,7.74,7.34,15.22,10.45,23.07,2.08,5.25,5.21,11,11.46,22.58,3.15,5.83,5.75,12,9.29,17.59,1.9,3,4.84,7.37,5.81,13.78.45,2.93.73,5-.33,7.13-2.07,4.18-7.62,5.51-13.39,6.88a26,26,0,0,1-7.19,1.09c-6.21-.17-10.8-3.54-14.77-6.64-9.42-7.34-14.12-11-20.92-18.26-10.85-11.58-15.71-19.16-16.59-18.59s2.3,6.53,8.46,18.59c3.61,7.08,6.84,13.36,11.62,21.58,7.65,13.14,8.4,12.53,9.46,15.27a8.14,8.14,0,0,0,2.82,4.15c1.42,1,2.5.82,2.82,1.66.54,1.39-1.75,3.6-3.15,4.65-1.83,1.36-3.6,1.79-7.14,2.65-4.15,1-5.18.69-5.64.5A6.78,6.78,0,0,1,301.8,215.82Z"/><path class="cls-4" d="M813.65,791.58c-4.89-4-10.78-6.75-15-11.37-.51-.56-10.64-8.71-30.88-25-3.13-2.52-15.21-12.22-20-16.11-6.2-5-5.83-4.81-6.24-5.05-1.4-.81-2.29-1.15-2.59-2.1-.4-1.25.58-2.43,3.34-6.05,3-3.89,3.43-4.61,4-5.28l.54-.61c.59-.65,3.62-4,6-3.59,1.49.24,1.7,1.81,3.36,3.73,2.28,2.63,5.11,3.36,7.72,4.23,3.12,1-4.81-1.3,17.3,7.85,12,5,18,7.46,21.29,8.46A113,113,0,0,0,823.92,745c10.52,1.36,11.51.39,11.7-.13.45-1.17-2-3.11-8-7.34-9.39-6.71-14.38-9.88-19.67-13.57-10.23-7.13-9-7.43-16.56-12.2-4-2.54-8.46-5-12.2-8.34-.57-.5-2.46-2.2-5.22-4.23-1.84-1.35-3.32-2.3-3.61-2.49-5.87-3.76-7.61-3.45-8.1-5.11-.58-2,1.36-4.17,4.48-7.71,1.7-1.92,2.57-2.89,3.92-3.23,3.08-.79,6.24,2,7.41,3,6.5,5.62,13.59,10.52,20,16.18,2.39,2.09,8.61,6.42,21,15.06,5.33,3.7,10.33,7.86,15.81,11.33a60.16,60.16,0,0,1,12.2,10.46c2.11,2.37,2.92,3.68,3.11,5.35.5,4.3-3.4,8.16-6.22,11a21.22,21.22,0,0,1-6.1,4.73c-1.86.88-4.65,1.74-16.93-.12a124.92,124.92,0,0,1-18.17-3.86c-1.81-.53-5.38-1.63-9.84-3.36-13.89-5.39-21.9-11.28-22.32-10.67s8.94,7.89,15.74,13c6.34,4.79,12,9,19.88,14.33,12.63,8.48,13,7.6,15.18,9.6a8.18,8.18,0,0,0,4.36,2.5c1.7.26,2.6-.35,3.26.26,1.09,1,0,4-.81,5.56-1,2-2.45,3.19-5.25,5.51-3.3,2.72-4.36,2.88-4.86,2.91A6.75,6.75,0,0,1,813.65,791.58Z"/><path class="cls-4" d="M458.81,185c-4.33-4.29-8.37-6.21-11.78-8.14a75.53,75.53,0,0,1-11.62-8.13,28.22,28.22,0,0,0,8-6.31c2.95-3.38,6-8.54,7.3-19.42,2.71-21.9-4.69-39.83-7.8-46.47C437.22,84.4,431.8,79.89,430.1,78.55a41.93,41.93,0,0,0-15.6-7.46c-4-1.06-8.67-2.28-14.28-1.17-2.8.56-3,1.14-6,1.5-3.32.4-4.59-.14-11.29-.17-3.1,0-4.45.1-6,.83a11.33,11.33,0,0,0-3.82,3.32c-7.31,10.09-7.14,32.7-7.14,32.7.1,12.88.17,21.14,3.32,32.36a80.53,80.53,0,0,0,12.28,25.9c4.34,5.94,8.05,10.88,14.61,12.78,2.13.61,8.06,2.32,14.27.16,3.3-1.14,5.66-3,9.46-2.49,1.92.27,3,1,5.15,2.16,6.55,3.61,6.2,2.38,12.95,6s12.11,6.64,12.11,6.64a11.83,11.83,0,0,0,6.64,2c1.77-.09,4.87-.77,5.48-2.66C462.54,190.19,462.59,188.67,458.81,185Zm-30-23.24c-1.45,2-7.11,9.84-15.93,10-6.41.09-11-3.94-13.78-6.31-1.09-.94-4.31-3.89-8.33-11.85a79.32,79.32,0,0,1-6.88-19.86A86.73,86.73,0,0,1,384,98.14c2.1-9.78,3.31-15.42,8.46-18.59,7.91-4.86,18.55.11,20.09.83,6.1,2.85,9.44,7.19,12.28,11,9.87,13.1,11,27.44,11.45,33.19.69,9.9-.95,17.27-2.32,23.4C431.84,157.25,429.64,160.5,428.77,161.71Z"/><path class="cls-4" d="M481.72,66.77c-1.61,1.69-.53,4.78,0,7.64s.17,3.6-1,13.77c-.22,1.91-1.14,11.84-3,31.7-1,11.06-1.3,14.81-.17,20.25.78,3.75,1.86,8.68,5.81,13.28s8.27,6.25,12.11,7.8a47.92,47.92,0,0,0,16.1,3.16,65.23,65.23,0,0,0,11.46-.34c-.06,2.11-.11,4.21-.17,6.31a4.67,4.67,0,0,0,1.66,2.16,5.85,5.85,0,0,0,3.65.66c4.72,0,4.77,1.17,8,.67,1.58-.25,3.7-.59,4.65-2.16.77-1.28.33-2.68,0-4.48-.54-2.89-.16-5.87-.34-8.8-.55-9.08,2.13-31.7,2.33-33.36,1.31-10.91,2.32-19.35,4.31-28.38,1.06-4.79,1.13-9.84,2.83-14.44.7-1.92,2-5.1,1.32-9-.21-1.18-.66-3.6-2.49-4.64s-2.74.31-5.14-.5c-2.66-.9-2.8-3-4.82-3-1.42,0-1.52,1-3.65,1.33-1.94.28-2.83-.45-3.48.16s-.29,1.76,0,3.66.15,3.76.33,5.64c.69,7.32-2,24.4-2,24.4-.33,2.09-1.27,10.91-3.16,28.55-.65,6.11-1.55,15-2.49,25.89a29.34,29.34,0,0,1-12,1.82c-3.27-.19-10.22-.59-14.44-5.47-2.22-2.58-2.89-5.48-3.48-10.13a130.11,130.11,0,0,1-.67-23.9c.94-19.62,1.72-27.34,3.49-32,1-2.74,1.65-5.62,2.82-8.3,1-2.32,1.67-3.36,1.33-4.81-.6-2.57-3.71-3.93-5-4.49-.65-.28-.51-.15-6-1.32-2.63-.57-3.39-.75-4.65-.67S482.79,65.65,481.72,66.77Z"/><path class="cls-4" d="M562.88,161.38c2-5.64,2.83-11.63,4.81-17.26,2.24-6.35.7-3.28,7-26.06,3.35-12.17,4.41-15.31,6.14-22.91,1.88-8.3,2.82-12.45,2.82-14.11,0-3.68-.63-6.84,1.33-8.46,1.66-1.38,4.3-.92,5.81-.66,2.76.47,2.72,1.45,7,3,2.9,1,3.85.93,5.14,2.16a6,6,0,0,1,2,4c0,2.11-1.49,3-3.15,5.65-1.44,2.29-1.22,3.1-2.82,7.8-1.45,4.25-2.57,6.36-3.82,9.29-1.16,2.72-2.13,5.45-6.14,20.58-4.39,16.57-3.3,13.61-5.15,19.92,0,0-2.33,8-4.48,17.43-1.45,6.37-1.37,7.78-1.16,9s.5,2,0,2.82c-1.26,2.13-6.11,1.33-7.14,1.17-1.82-.3-7.38-1.22-9.12-5.15C560.77,167,561.78,164.53,562.88,161.38Z"/><path class="cls-4" d="M588.79,170.39c-.76,2.62,2.43,6.05,12.76,13.73,14.15,10.5,22.87,15,25.73,16.43a60.55,60.55,0,0,0,14.27,5.31c5.9,1.35,9.6,2.13,13.12.17,4.38-2.45,6.33-8,6.3-12.29,0-5.44-3.16-8.66-8.13-15.43-1.2-1.64-8.64-11.77-12.61-19.92-2.9-5.93-9.61-19.69-4.32-33.36.39-1,4.62-11.46,15.44-16.43,3.1-1.43,10.2-4.69,16.43-1.33a13.24,13.24,0,0,1,5.81,6.47c2,4.94.07,10-2.33,16.1-3.16,8.09-6,10-5.14,14.44.17,1,1,4.81,4.48,6.64a8.48,8.48,0,0,0,8.8-.66c1.79-1.37,2.4-3.27,3-5.15,3.18-10.29,4.77-15.44,4.81-15.77.63-5.63,1.3-11.64-1.83-17.59-1.4-2.66-4-5-9.13-9.63-5.65-5.09-8.47-7.63-11.45-8.79-7.33-2.86-14.59-.18-19.58,1.66a39.94,39.94,0,0,0-20.09,15.93,38.58,38.58,0,0,0-6,18.59c-.38,8.47,2.33,14.71,4.81,20.42a92.82,92.82,0,0,0,11.45,18.92,80.58,80.58,0,0,1,10,16.26c1.13,2.46,2.17,5.11,1,6.81-1.57,2.27-6.22,1.56-8.63,1.16-9.32-1.54-16.46-6.66-20.75-10.29-7.33-6.22-9.27-10.64-16.6-14.11-3-1.42-6.26-2.38-9-1A5.28,5.28,0,0,0,588.79,170.39Z"/><path class="cls-4" d="M115.41,720.56c-1.7,2-.13,5.59,3.21,13.3,5.35,12.4,8.06,18.86,12.61,26.44l.64,1.06a61,61,0,0,0,9.35,12c4.32,4.24,7.05,6.85,11.07,7,5,.22,9.57-3.44,11.82-7.14,2.84-4.65,1.87-9,1.19-17.4,0-.37,0-.58-.06-.8a108.82,108.82,0,0,1,.79-23.39c1.34-8.11,3.3-19.93,12.95-28.22,1.48-1.28,11.11-9.31,23.12-7.53,2.64.39,9.85,1.45,13.24,7.34a13.23,13.23,0,0,1,1.54,8.56c-.92,5.24-5.18,8.53-10.43,12.48-6.95,5.22-10.31,5.34-12,9.58-.27.69-1.65,4.5.33,8,1.24,2.2,3.81,4.28,6.57,4.16,2.3-.1,3.89-1.7,5.15-2.93,9.72-9.55,8.09-6.44,11.95-11.12,5.78-7,8.67-10.51,9.48-15.68.58-3.71-.12-6.66-1.52-12.54-1.73-7.31-2.6-11-5.31-14.11-5.15-6-13.6-7.7-18.54-8.72-1-.2-1.77-.36-2.9-.49-9.15-1.08-16.4,2.64-20.05,4.57a45.67,45.67,0,0,0-14.44,12.45,49.84,49.84,0,0,0-8.13,16.43c-3,10.53-2,20.49-1.62,24.74.08.85.19,1.69.3,3.27a79.59,79.59,0,0,1-.38,15.8c-.45,3.58-1.11,5.44-2.72,6.32-2.61,1.41-6.34-.92-7.53-1.67-7.43-4.63-10.29-13.68-12.67-21.54-1.95-6.42-3-12.65-7.25-18-1.63-2-3.57-3.78-6-3.82A5,5,0,0,0,115.41,720.56Z"/><path class="cls-4" d="M689.85,230.59a6.36,6.36,0,0,1,.5-3.65,8.1,8.1,0,0,1,2.49-3.15c2.87-2.32,4.85-5.56,7.47-8.14,4.06-4,9.51-10.51,20.42-23.57,3.56-4.26,7.35-8.93,14.93-18.25,9.27-11.4,8.91-11.17,9.22-11.38a4.22,4.22,0,0,0,2.07-2.57c.35-2.15-2.21-4.08-4.65-6.14-1.64-1.39-5.08-5-11.95-12.28-5.6-5.92-6.54-7.76-6-9s2.58-1.43,3.32-1.5c4.31-.41,7.89,2.75,9.13,3.82,5.89,5.13,12.51,9.36,18.59,14.28,7.87,6.38,8.67,6.33,16.76,13.11,6.8,5.69,5.17,4.83,9.58,8.34,8,6.33,13.32,9.19,12.66,11.91a3.92,3.92,0,0,1-2.49,2.32c-1.83.64-3.67-.31-4.65-.83a82.41,82.41,0,0,1-10.62-7,42.79,42.79,0,0,0-10-5.81,7.17,7.17,0,0,0-5-.5,6.65,6.65,0,0,0-3.32,2.82c-4.95,7.64-12.38,13.4-17.76,20.75s-11.29,15.44-18.59,23.9c-4.1,4.76-7,10.72-12.11,14.44-1,.76-3.37,2.29-4,5-.44,2,.32,3.22-.49,4-1.24,1.16-4.47-.42-6-1.16-2.81-1.37-4.36-3-7.47-6.3A7,7,0,0,1,689.85,230.59Z"/><path class="cls-4" d="M639.75,909.53a6.23,6.23,0,0,1-2.84-2.34,8.1,8.1,0,0,1-1.38-3.77c-.47-3.65-2.19-7-3-10.63-1.27-5.54-4-13.6-9.37-29.74-1.76-5.27-3.74-10.94-7.71-22.29-4.84-13.86-4.84-13.44-4.85-13.82a4.26,4.26,0,0,0-1.1-3.1c-1.65-1.43-4.64-.26-7.67.73-4.92,1.62-8.86,2.3-16.72,3.74-3.68.67-6.65,1.05-8.77-.7a3.67,3.67,0,0,1-1.53-2.52c0-2.59,4.79-4.76,8-5.77,7.46-2.33,14.53-5.76,21.9-8.35,9.57-3.36,10-4.06,20-7.4,5.95-2,6.9-2.09,8.82-2.67,1.6-.47,2.78-.91,3.31-1.11,9.21-3.39,11.65-4.61,13.52-3.38a3.93,3.93,0,0,1,1.66,3.65c-.22,1.49-1.61,2.43-3.48,3.49a59.48,59.48,0,0,1-8.9,4,41.55,41.55,0,0,0-10.17,5.44,7.15,7.15,0,0,0-3,4,6.68,6.68,0,0,0,.66,4.3c3.91,8.22,4.92,17.57,8.36,26s7.22,17.71,10.6,28.37c1.9,6,5.43,11.62,5.94,17.88.11,1.28.19,4.07,2.15,6,1.43,1.41,2.91,1.42,3.13,2.51.34,1.66-2.7,3.58-4.12,4.48-2.65,1.67-4.86,2.13-9.29,3A6.89,6.89,0,0,1,639.75,909.53Z"/><path class="cls-4" d="M846.87,247.19c-2-3.3-3.61-2.58-5.31-5.81-1-2-.87-3.09-2.49-5.31-1.46-2-2.44-2.26-2.82-2.33-1.55-.26-2.91.91-3.66,1.5-2.7,2.13-6.33,2.71-9.46,4.15-3.31,1.52-7,2.58-21.41,6.47-20.34,5.49-25.6,6.76-31,8-3.79.84-5.68,1.26-7.64,1.66-1.49.3-9,2.3-24.07,6.3a5.93,5.93,0,0,0-3.32,2c-.91,1.21-.95,2.54-1,4.64A17.06,17.06,0,0,0,736,275.9c.82,1.9,1.44,3.35,2.82,3.82,1.55.53,3.14-.47,4.31-1.16,3.25-1.91,7-2.83,10.29-4.65a49.9,49.9,0,0,1,14.94-5.14,133.77,133.77,0,0,0,23.07,27.71,103.48,103.48,0,0,1-7.47,9.13c-2.17,2.37-4.1,5-6.3,7.31-1.49,1.58-2.61,2.68-3.16,4.64a8.53,8.53,0,0,0,.33,5.48c1.06,2.4,2.36,1.82,4.82,5,1.84,2.37,2.07,3.92,4.15,5a3.5,3.5,0,0,0,2.49.5c2-.59,2.65-4.16,2.82-5,.71-3.59,2.84-5.7,12.61-18.59,14.59-19.24,11.65-16.92,17.76-24.07,14.39-16.84,21.58-25.25,24.9-27.39.78-.5,3.33-2.06,4-4.81S847.41,248.1,846.87,247.19Zm-38,27.38q-6.27,7.57-12.45,14.44c-3.61-4.22-7.28-8.75-10.95-13.61-2.34-3.08-4.55-6.13-6.64-9.12q12.52-3.48,25.56-6.81,10.25-2.61,20.25-5C819.76,261,814.52,267.75,808.86,274.57Z"/><path class="cls-4" d="M535,830.58c-3.83.11-4,1.91-7.66,1.82-2.22,0-3.12-.74-5.85-.41-2.45.3-3.16,1-3.4,1.34-1,1.22-.62,3-.47,3.92.54,3.4-.71,6.85-1,10.28-.28,3.64-1.14,7.37-4.75,21.86-2,8-2.13,8.26-3.15,12.73-1.88,8.2-1.82,9.32-3.15,15.37-4.55,20.6-6.83,30.89-7.47,33a8.17,8.17,0,0,0,4.15,10.79,11.78,11.78,0,0,0,4.81,1.32c2.24.23,4.24.44,5.48-.66s1-3.35,1-5.64c-.06-4,1.07-8,1.49-12,.36-3.46.93-8.48,1.82-14.77,5.5-.49,11.38-1.2,17.56-2.23,5.48-.9,10.65-2,15.48-3.09,1.2,3,3.67,9.13,4.81,12,1.27,3.16,3,6.15,3.82,9.46.61,2.6.67,4.36,2.15,5.32,2,1.32,5.31.18,5.81,0a42,42,0,0,1,4.1-1.82,19.46,19.46,0,0,1,2.35-.57c3.58-.66,5,0,5.63-.73.95-1.18-1.2-4.38-1.62-5-3.86-5.78-6.51-12.29-9.79-18.42a99.58,99.58,0,0,1-7-15.1c-.61-1.73-1.44-4.32-3-8.47-1.45-3.9-2.57-6.61-3-7.63-3.85-9.53-9.76-24.13-10.57-35-.08-1.19-.29-4-2.27-5.82S536.09,830.56,535,830.58Zm5.45,46.53q3.57,9.17,6.57,17.9c-5.45,1.1-11.2,2.11-17.22,3q-5.76.81-11.21,1.36,3-12.63,6.48-25.65,2.7-10.21,5.5-20.11C534,861,537.27,868.85,540.48,877.11Z"/><path class="cls-4" d="M700.41,761.67c-3.32,1.9-2.63,3.57-5.89,5.23-2,1-3.09.82-5.34,2.41-2,1.42-2.3,2.4-2.37,2.78-.29,1.54.86,2.92,1.44,3.68,2.09,2.74,2.62,6.37,4,9.52,1.47,3.33,2.48,7,6.15,21.5,2,8,2,8.29,3.25,12.71,2.23,8.12,2.81,9.07,4.5,15,5.73,20.3,8.6,30.45,9,32.63.24,1.16.8,4,3.15,5.85A9.39,9.39,0,0,0,724,874.7a11.72,11.72,0,0,0,4.87-1.1c2.09-.86,3.94-1.62,4.51-3.18.63-1.72-.68-3.44-1.79-5.44-1.94-3.52-2.81-7.52-4.34-11.24-1.31-3.21-3.18-7.9-5.38-13.87,4.61-3,9.45-6.44,14.42-10.27,4.4-3.39,8.45-6.76,12.17-10l9.89,8.25c2.61,2.18,5.59,4,7.84,6.53,1.77,2,2.66,3.51,4.42,3.65,2.42.2,4.75-2.34,5.11-2.74a43.07,43.07,0,0,1,2.75-3.54,18.7,18.7,0,0,1,1.8-1.62c2.84-2.27,4.44-2.34,4.62-3.31.28-1.48-3.13-3.29-3.8-3.65-6.14-3.27-11.56-7.74-17.35-11.59a102.2,102.2,0,0,1-13.28-10c-1.36-1.24-3.31-3.12-6.64-6-3.12-2.74-5.39-4.6-6.25-5.31-7.9-6.57-20-16.64-25.87-25.84-.64-1-2.15-3.39-4.75-4.05C704.1,759.56,701.33,761.15,700.41,761.67Zm26.82,38.42q7.47,6.38,14.25,12.66c-4.28,3.55-8.87,7.15-13.77,10.75q-4.68,3.43-9.23,6.5-3.29-12.57-6.42-25.66-2.46-10.27-4.68-20.32C713.85,789,720.49,794.33,727.23,800.09Z"/><path class="cls-4" d="M190.8,818.61a3.77,3.77,0,0,1,1.74-2.24c1.79-1.22,1.75-2.38,8.1-10.09,5.89-7.16,13-14.75,21.28-24.52,10-11.75,14.94-17.63,17.31-21.54,5-8.24,9.39-18.27,13.32-17.55a33.57,33.57,0,0,1,3.36,2.24c4.6,3.22,5.1,3.59,5.85,4.24,2.6,2.25,4.33,3.75,4.23,5.6-.09,1.61-1.53,2.7-2.49,3.48-3.44,2.81-5.61,6.91-8.71,10.09-10.92,11.14-13.58,13.23-18.68,19-3.12,3.57-5.49,6.62-7,8.59,3.2,2,6.48,4.19,9.84,6.6a192.55,192.55,0,0,1,16.93,13.69c7.42-8.8,13.68-15.59,18.17-20.29,5.27-5.52,10-11.6,15.69-16.68,2.44-2.18,4.59-3.7,6.22-7,1-2,1.22-3.44,2.24-3.61,1.35-.23,2,2.2,5.35,5.48,2.65,2.58,3.66,2.46,5.36,4.85.9,1.28,2.47,3.5,1.74,5.23-.53,1.24-1.82,1.23-4.36,2.74a28,28,0,0,0-4.23,3.36c-11.32,10-18.67,17.68-18.67,17.68-5.92,6.16-11.76,12.24-18.92,21-6,7.37-9.29,11.4-11.83,15.94-1.67,3-4.06,5.56-5.35,8.71-.65,1.56-1.21,3.32-2.74,3.86-1.25.44-2.49-.14-4.48-1.12a27.71,27.71,0,0,1-5.48-3.86c-3.47-2.87-3.84-3.65-4-4.36-.1-.45-.26-1.58.74-3.73,1.4-3,3.49-4.62,5.36-6.22a106.57,106.57,0,0,0,8.09-8.34c1.47-1.61,3.64-4.09,6.1-7.35q-5.66-3.92-11.58-8.46c-5.7-4.4-10.92-8.79-15.68-13.07-1.47,1.81-3.3,4.17-5.36,7s-3.43,4.68-5,7.09c-2.68,4.2-5.46,8.34-8.09,12.57-.69,1.12-1.73,2.8-3.24,2.87-1.17.05-2.19-.91-3.61-2.24s-1.24-1.6-2.61-3c-2.05-2.1-3-2-4.11-3.86A4.07,4.07,0,0,1,190.8,818.61Z"/><path class="cls-4" d="M343.43,908.89c-5,2.53-31.13-6.38-31.13-6.38-3.13-1.07-6.16-2.44-9.31-3.42a24,24,0,0,1-7.25-3.05,8.52,8.52,0,0,1-4.36-9.84,16.65,16.65,0,0,1,2.12-6c3.24-5.55,5.15-11.79,8.22-17.43,7.14-13.14,4.84-13.13,13.81-30.87,0,0,4-7.89,8.34-17.18,3.44-7.34,4-8.84,4.36-10.71,1.84-8.59,1.61-5.4,2.12-7.09.63-2.13.9-3,1.74-3.49,1.59-.86,3.82.68,6.1,2,.52.31-3.82-2.22,11.08,4.73,7.59,3.55,11.39,5.32,14.56,7,9.71,5.08,9.39,5.81,12.22,6.87a8.22,8.22,0,0,1,2.6,1.6c.77.71,2.31,2.11,2.11,3.86a4.31,4.31,0,0,1-3.23,3.24c-1.75.46-3-.39-5.73-1.5-3.21-1.32-2.44-.55-7.59-2.36a83.07,83.07,0,0,1-10-4c-2.25-1.1-4.51-2.36-7.47-2.36a5.43,5.43,0,0,0-3.24.87,5.24,5.24,0,0,0-1.86,2.61c-1.26,3.44-3.32,6.58-4.36,10.09-.36,1.2-2.4,5.22-6.48,13.19-2.34,4.6-5.45,10.6-9.21,17.68,4.31,2.07,7.83,3.67,10.21,4.73,4.82,2.15,9.34,5.14,14.44,6.47a12.16,12.16,0,0,1,4.36,2.12,5.94,5.94,0,0,1,1.86,2c.87,1.65.9,4.16-.37,5.35-.76.72-1.93.9-5.72.13a61.13,61.13,0,0,1-9.34-2.74c-3.25-1.2-6.56-2.23-9.84-3.36-2.5-.87-6.17-2.12-10.7-3.61a59.92,59.92,0,0,1-3.86,8.46c-2.28,4.1-4.18,6.36-3.36,8.84a6.94,6.94,0,0,0,2,2.74c1.26,1.17,2.39,1.53,4.36,2.36,2.41,1,.49.39,5.23,2.49,2.36,1.05,5.47,2.39,11.08,4.61,3.34,1.33,6.43,3.3,9.83,4.48,1,.34,3.13,1,3.67,2.76a3.64,3.64,0,0,1-.18,2.34A4.36,4.36,0,0,1,343.43,908.89Z"/><path class="cls-4" d="M468.15,851.47a41.48,41.48,0,0,0-11.83-15.93c-4.9-4.38-12.44-7.28-27.51-13.07,0,0-7.81-3-15.43-1.37-.69.14-2.37.53-2.87,1.74-.32.78,0,1.48.25,2.49.28,1.21.15,2.47-.12,5a58.81,58.81,0,0,1-3.49,14.31c-4.2,10.33-2.67,17.07-8.59,35,0,0-11.62,35.2-9.71,40.59a10.5,10.5,0,0,0,1.62,2.86,8.36,8.36,0,0,0,2.62,2.11c1,.49,1.84.65,6.35.5s4.92-.34,5.35-.74c1.25-1.2.84-3.19.74-5.36-.14-3.32.6-4,2.25-11.2.82-3.6,1.86-8.8,2.73-15.56l4.36.25q3.83.23,7.59.5c1.14,1.69,2.88,4.28,5,7.47,4.5,6.79,6.75,10.19,7.6,11.57,2.59,4.24,5.59,8.23,8.21,12.45,1,1.55,1.94,3.16,3.74,3.61,1.38.35,3.43-.63,7.47-2.61,2-1,2.93-1.55,2.86-2.12s-1.44-.66-2.74-1.74a6.73,6.73,0,0,1-2-3.61c-.94-3.25-2.85-6.13-4.23-9.21-3.21-7.14-4.32-7.9-6.1-13.08-.75-2.17-1.23-4-1.5-5.1a38.13,38.13,0,0,0,17.18-6.72c3.61-2.59,10.68-7.67,12.58-16.68C472,861,469.69,855.33,468.15,851.47Zm-13.94,18.67c-4.67,5.61-10.63,7.71-18,10.34a53.79,53.79,0,0,1-9.21,2.36c-6.64,1.19-9.83.68-11.67.24a19,19,0,0,1-2.4-.74c.47-2.93,1.22-7.2,2.36-12.32,1.92-8.56,2.21-7.35,3.86-14.94,1-4.39,2.6-8.6,3.74-13,.34-1.31.92-3.56,2.86-4.85a7.5,7.5,0,0,1,5-.87,47.35,47.35,0,0,1,14.07,3.36c4.6,1.91,6.9,2.87,9.08,4.85,1.14,1,4.83,4.37,5.86,9.46C461.23,861.72,455.86,868.16,454.21,870.14Z"/></g></g></svg>