<svg xmlns="http://www.w3.org/2000/svg" viewBox="0 0 992.13 992.13"><defs><style>.cls-1{fill:#222;}</style></defs><g id="Capa_2" data-name="Capa 2"><g id="Capa_1-2" data-name="Capa 1"><path class="cls-1" d="M496.06,0C222.09,0,0,222.09,0,496.06S222.09,992.13,496.06,992.13,992.13,770,992.13,496.06,770,0,496.06,0Zm1.68,959.28c-254.08,0-460.06-206-460.06-460.06s206-460.06,460.06-460.06,460.06,206,460.06,460.06S751.82,959.28,497.74,959.28Z"/><path class="cls-1" d="M613.5,528.77a7.32,7.32,0,0,1,1.31-6.47,7.45,7.45,0,0,1,7.68-2.53c3.21,1,4.44,4,4.9,5.16a10.2,10.2,0,0,1-.18,7.86c-2,4.29-6.47,5.36-7.42,5.59a12.76,12.76,0,0,1-12.15-3.84,13.31,13.31,0,0,1-2.62-13.2c1.56-4.21,6.07-8,7.16-8.91,2.32-1.95,4.07-2.8,4.2-4.63s-1.5-2.51-1.92-5.59c-.29-2,.14-3.9.52-3.93s.56,2.34,1.57,2.53c.2,0,.68,0,2.62-2.53,2.12-2.81,2-3.42,1.93-3.67a2.38,2.38,0,0,0-2.28-1.49c-1.8.11-2.66,2.88-3.05,2.71s-.24-3.33,1.74-4.28a3.64,3.64,0,0,1,2.89.09c1.51.73,1.79,2.31,2.36,2.18s.76-1.17.52-2.1c-.36-1.38-1.75-1.46-3.06-2.79-2-2.07-2-5.26-1.83-5.33a13,13,0,0,0,1.66,2.88c1.26,1.48,2,1.26,3,2.54a7,7,0,0,1,1.31,4.28c-.07,2-1,2.13-1,4.1.07,1.61.75,2.28.26,3.24s-1.82,1.28-1.75,1.48,1.82-.67,3.24,0,1.87,2.33,1.57,2.62-.94-.55-1.57-.26-.29,1.29-1,2.1a3.22,3.22,0,0,1-2.36.78c-1.12,0-1.38-.57-1.92-.35-.82.34-.42,1.59-1.4,2.63s-2.39,1-2.36,1.13,2.71-.27,2.9.27c.1.31-.59.92-1.33,1.19-.9.32-1.23-.1-2.18.11a3.23,3.23,0,0,0-2.19,1.66c-.37.86.15,1.24-.26,2.19s-.86.69-1.25,1.51c-.49,1,.1,1.64-.29,3a4.4,4.4,0,0,1-.64,1.34c-.49.11-1,.14-1.17-.11s.21-.86.35-1.87,0-2.16-.46-2.27-1.22,1.18-1.4,1.51a9.36,9.36,0,0,0-1.05,3.67c-.35,2.77-.52,4.16.29,5.13.57.68,1.35.89,1.4,1.63s-.45.79-.53,1.4c0,.25,0,1,2.16,2.74a12.58,12.58,0,0,0,3.84,2.27,9.28,9.28,0,0,0,7-.06,8.82,8.82,0,0,0,4.49-5.13,7.59,7.59,0,0,0,0-5.53,6.75,6.75,0,0,0-4.26-3.84,5.72,5.72,0,0,0-5,.81,5.87,5.87,0,0,0-1.51,6.64c0,.08-.45.65-.87.58S613.59,529,613.5,528.77Z"/><path class="cls-1" d="M597.94,537c-.45-.38.79-1.66.61-3.49-.12-1.32-.85-1.62-1.92-3.5-.88-1.55-1.8-3.17-1.66-5.06.16-2.1,1.63-4.46,3.58-5,1.47-.4,2.13.52,4,.35a7,7,0,0,0,4.09-2,4.15,4.15,0,0,1-1.2,2,4.67,4.67,0,0,1-1.18.74,6.77,6.77,0,0,1-2.62.48c-1.67.11-3.06.2-4,1-1.4,1.23-1.08,3.61-1,3.85A7.26,7.26,0,0,0,599,530.3c1.22,1.21,1.76,1.13,2.1,2a3.77,3.77,0,0,1-1.09,3.8C599.37,536.71,598.31,537.29,597.94,537Z"/><path class="cls-1" d="M609,515.43a4.1,4.1,0,0,0-.47-1.78c-.38-.68-.76-.82-1.18-1.31-1.24-1.41-1.28-3.91-.53-4.36a.66.66,0,0,1,.74,0c.32.29-.13.83.05,1.53s1.07.72,1.44,1.61-.19,1.28.17,2a2.07,2.07,0,0,0,1.31.92,2.45,2.45,0,0,1-.74,1A2.56,2.56,0,0,1,609,515.43Z"/><path class="cls-1" d="M603,527.43c-4.19-4.76-6-6.84-7.21-8.87h0a3.17,3.17,0,0,1-.64-1.22c-.14-.31-.28-.64-.42-1a29.55,29.55,0,0,1-2-11.06,35.42,35.42,0,0,1,1.75-11.42,20,20,0,0,0-3.5,6.76c-2.26,7.77,1.06,14.62,2.22,17,1.06,2.2,3.32,4.91,7.8,10.26,7.49,8.93,8,8.6,10.37,12.23s5.69,9,5.82,16.31c.06,3,.19,9.82-4.66,13.74-.2.17-5.13,4.05-10,2.22a10,10,0,0,1-4.31-3.61c-1.34-1.65-5-6.17-4.26-12.12.5-4.06,3.19-9.91,7.11-10,2.44,0,4.33,2.18,5.07,3.15a.62.62,0,0,0,.94-.79c-.49-.93-2.06-3.66-4.73-4.11-4-.68-7.51,4.4-8.79,7.4-2.55,6,.15,11.74.81,13.16.81,1.74,3.86,8.29,10,9.09a11.55,11.55,0,0,0,7.8-2.1c7-4.63,7-14.51,7-16.42,0-7-3-12.07-4.77-15.15C613.48,539.37,613,538.79,603,527.43Z"/><path class="cls-1" d="M595.35,511.35a15.18,15.18,0,0,1,1.92-4.48c.78-1.31,2.09-3.15,2.45-3,.21.1,0,.85-.23,1.86a22.6,22.6,0,0,0-.18,6.18c.14,2.65.21,4,.64,5.06.63,1.56,1.37,2.19,1.69,4.08.1.6.12,1.08.35,2.1a12.43,12.43,0,0,0,.76,2.44c.52,1.16,1.43,2.49,1.73,2.36s-.26-1.27-.33-3.67c0-1.38.12-1.5-.09-2.14-.38-1.13-1.1-1.36-1.22-2.49-.08-.64.14-.67,0-1.39-.15-1.06-.71-1.61-.52-1.8s.74.14,1,.35a3,3,0,0,1,.83,1.1c.6,1,.67,1.49.92,1.49s.48-.52.61-.84a2,2,0,0,0,.22-1.05c-.05-.33-.22-.71-1.18-1.57s-1.54-1.11-1.48-1.31,1.4-.48,2.22.13c.54.4.46.88,1.17,1.34.26.17,1,.66,1.26.44.41-.35-.31-2.6-1.73-3.12-.58-.21-.85,0-1.51-.29-.9-.43-1.46-1.37-1.28-1.63s1,.31,1.57-.1a1,1,0,0,0,.44-.88c-.14-.65-1.39-.5-1.78-1.18-.51-.9.9-2.59,1.46-3.26s2.52-3,5-2.91c.11,0,1.28.07,1.4.52s-1.57,1-1.87,2.33a2.29,2.29,0,0,0,.88,2.28c.8.5,1.56-.14,2.09.34.75.68-.12,2.53.24,2.68s1-.66,1.39-1.69a6.6,6.6,0,0,0,.06-4.07c-.59-3,1.33-3.81,2.51-8.86.9-3.88-.12-3.88.75-9.55.6-3.88,1.09-3.89,1.46-6.87a31,31,0,0,0-.58-10.6,27.16,27.16,0,0,0-4.95-11.36c-1.88-2.38-3.65-3.61-3.38-5.53.22-1.57,1.51-1.6,2.85-4.26a12.39,12.39,0,0,0,1.28-5.47,7.45,7.45,0,0,0-.58-3.73c-.54-1.11-.94-1-1.28-2-.53-1.49.27-2.27.06-4.14a6.66,6.66,0,0,0-.93-2.67,2.26,2.26,0,0,1-1.58,2.85,12.31,12.31,0,0,1-.11-4c.23-1.67.72-2.48.52-3.85a5.53,5.53,0,0,0-1.22-2.68,2.74,2.74,0,0,1-.88,2.28,2.39,2.39,0,0,1-1.28.52,28.25,28.25,0,0,1,.64-3.61c.63-2.51,1.32-3.42,1.11-4.95a7.38,7.38,0,0,0-1.51-3.5,13.35,13.35,0,0,1-1.4,5.25c-1,1.89-1.71,2.12-2.57,3.49-2.09,3.36-1.57,8.19,0,11.42,1.37,2.81,2.46,2.18,4.2,5.71a14,14,0,0,1,1.63,7.39,11.72,11.72,0,0,1-.82,3.38c-.74-.91-1.9-2.3-3.37-4-1.7-1.9-2.31-2.46-3.21-3.49a33.56,33.56,0,0,1-4.37-6.59c-1-2.23-1.29-4.91-1.74-10.19-.76-8.74-.21-12,.11-13.57.73-3.52,1.7-5.25,2.8-6.53.78-.9,3.25-3.77,5.94-3.08a5,5,0,0,1,3,2.79c.54.36,1.18.72,1.4.53s-.45-2.06-1.63-3.21a6.57,6.57,0,0,0-4.43-1.8c-3.32.07-5.42,3.14-6.17,4.25-1.54,2.25-1.82,4.38-2.33,8.56a57.54,57.54,0,0,0-.24,10.9c.23,4.19.35,6.29,1.23,9.08a29.39,29.39,0,0,0,3.32,7,34.47,34.47,0,0,0,4.15,5.4,14.31,14.31,0,0,0-4.74-.1,11.76,11.76,0,0,0-7.28,3.44c-.18.2-3.83,4.33-2.38,9.55.19.72,1.52,5.18,5.7,6.41a7.4,7.4,0,0,0,6.35-1,6.87,6.87,0,0,0,2.39-7.17c-.29-.94-1.07-2.46-1.75-2.38a.81.81,0,0,0-.58.58c-.2.65.53,1.16.87,1.92.62,1.35-.14,3.1-.81,4a5.63,5.63,0,0,1-4.78,2,6.81,6.81,0,0,1-5.12-3.15c-2.22-3.49-.11-7.49.06-7.8,2.12-3.89,6.6-4.35,7.33-4.43a10.43,10.43,0,0,1,6,1.28c1.28.68,2.36,1.24,2.74,2.39.3.9,0,1.59.58,2.45.43.61.74.48,1.4,1.16a5.26,5.26,0,0,1,1.28,2.51c.25,1,.53,2.11-.06,2.91-.41.56-.89.47-1.1,1s.24,1,0,1.69c-.19.56-.52.47-.7,1-.32.89.52,1.59.17,2.09A1,1,0,0,1,607,467c-.83-.54-.26-3.09-.17-3.5.18-.82.43-1.43.11-1.74a.69.69,0,0,0-.75-.12c-.4.18-.49.78-.53,1.75-.09,2.36.31,2.8.06,4a7.26,7.26,0,0,1-1.22,2.33c-1,1.57-1.55,2.35-2.51,2.68a10.11,10.11,0,0,0-2.21.52c-.08,0-1.13.56-1,.87.12.46,2.41,0,2.62.53.15.42-1.05.81-2,2.33-.74,1.15-.61,1.8-1.22,2-.81.31-1.36-.72-2.45-.47a2.83,2.83,0,0,0-1.63,1.46c-.35.69-.11.91-.46,1.51-.57.95-1.58,1.07-1.52,1.4s1.06.38,1.4.41c1.57.1,2.05-.39,2.45-.12.68.47-.28,2.29-.59,5.3a12.26,12.26,0,0,0,.24,4.89c.41,1.49,1,3.71,2.85,4.66.66.35,1.43.51,1.86,1.29a2.14,2.14,0,0,1,.18,1.68,2.56,2.56,0,0,1-1.34,1.29c-1.92,1-3,3.28-3.73,4.83a12.65,12.65,0,0,0-1.11,5.94,14.93,14.93,0,0,0,.89,4.59c.2.42.41.81.64,1.22C596,518.5,594.47,515.3,595.35,511.35Zm8.27-18.14c.51-1.78,1.08-1.69,1.31-3.19a25.7,25.7,0,0,1,.35-2.71c.27-1.22.45-1.3.53-1.31.27,0,.51.86.65,1.36a5.55,5.55,0,0,1,.31,3.27c-.36,1.13-1,1-1.31,2.27-.24.92,0,1.18-.27,2-.37.95-1.26,1.79-1.66,1.62S603.28,494.42,603.62,493.21Zm12.54-14a14.26,14.26,0,0,1-.57,4.59c-.88,2.58-2,2.26-3,4.76-.67,1.69-.58,3.23-.4,6.29.09,1.45.28,2.57,1,2.93.21.1.55.19.7,0s-.18-.78-.44-1.62a6.45,6.45,0,0,1-.22-2.22c.12-1.16.58-1.25.88-2.71.19-1,0-1,.17-1.84.35-1.69,1.44-3,1.66-2.92s-.45,1.11-.52,3c-.06,1.49.3,1.77.08,3.15-.17,1.11-.43,1.09-.48,2.05-.06,1.24.36,1.63.05,2.45s-.71.56-1,1.35,0,1.2-.3,2.4a2.71,2.71,0,0,1-.31.83c-.78,1-2.67-.18-5,.48-2,.57-2.94,2.14-3.49,1.75-.33-.23,0-.74-.27-1.79-.34-1.26-1.1-1.46-1.18-2.32s.57-1.37,1.27-2.22a18,18,0,0,0,2.49-4.24,11.5,11.5,0,0,0,.57-6.25c-.26-1.89-.74-2.35-.92-2.49-.57-.47-1.25-.47-1.88-1.27-.09-.12-.56-.7-.39-1s1.1.2,2.14.31c1.68.18,3.06-.71,4.68-1.75a8.63,8.63,0,0,0,2.92-2.62c1.15-1.78,1-3.47,1.31-3.45S616.21,477.2,616.16,479.23Zm-4.62-18.38c.44-.28,2.25.88,2.51,2.39.15.91-.36,1.36,0,2.16s.83.61,1.28,1.34a2.83,2.83,0,0,1,.12,2.73c-.13,0-.06-.66-.53-1.51-.71-1.29-1.66-1.19-1.92-2.16s.5-1.36.12-2.09-.87-.47-1.34-1.17S611.26,461,611.54,460.85Zm-1.8,5.13c.31-.37,2.33.23,2.85,1.51.36.89-.24,1.5.29,2.45.31.55.61.51,1,1.17s.62,1.69.35,1.86-1.9-.82-2.27-2.27c-.3-1.23.36-2.22-.23-2.74-.31-.28-.59-.08-1.11-.41S609.53,466.23,609.74,466Zm-.66,7.13c.35-.19,1.12.44,1.49.83.53.56.66,1.05.83,1s.26-.67.13-1.27c-.26-1.16-1.16-1.21-1.35-2.23-.15-.74.3-.92.08-1.79-.17-.69-.57-1.07-.43-1.22s.66,0,1,.31c.79.78-.22,2.11.57,3.32.18.28.16.09,1.09,1a5.21,5.21,0,0,1,1.27,1.49,3.05,3.05,0,0,1-.18,2.14c-.3.9-.91,2.72-2.62,3.32a3,3,0,0,1-2.71-.27c-1-.85-.81-2.72-.17-3.75a5.1,5.1,0,0,0,.7-1.09C609.12,474,608.77,473.29,609.08,473.11Zm-6.29,2.06a12.72,12.72,0,0,1,1-1.57c1.07-1.7.92-2,1.61-2.67a2.66,2.66,0,0,1,2.28-.87,1.56,1.56,0,0,1,1.17,1.18c.07.59-.52.7-.91,1.74s-.09,1.38-.53,1.75c-.23.2-.56.23-1.22.31-1,.11-1.19-.08-1.53.13s-.46.65-.7,1.53c-.18.67-.16.93-.39,1.66s-.31.95-.48,1-.71-.92-.79-1.79A4.58,4.58,0,0,1,602.79,475.17Zm-4,14.94c.08-.55.47-.66,1-1.4a4.78,4.78,0,0,0,.92-2c.17-1.29-.54-2.18-.27-2.36s.7.67,1.75.83c.69.1.93-.18,1.53,0,.36.14.92.49,1,1s-.6.61-1,1.44,0,1.44-.61,2.19c-.41.54-.7.34-1.27,1s-.47,1.14-.91,1.31a1.6,1.6,0,0,1-1.53-.56A1.86,1.86,0,0,1,598.77,490.11Zm.13,6a6,6,0,0,1-1.92-4c.12-.05.38,1.2,1.44,1.62a11.05,11.05,0,0,0,1.88.22c1.09.14,1.25.26,1.36.39.28.36.17.88,0,1.66s-.25,1.12-.53,1.27C600.44,497.6,599.12,496.31,598.9,496.09Z"/><path class="cls-1" d="M618.71,480.54a9.06,9.06,0,0,0,3.14-2.91c2.27-3.53,1.14-7.85,1.69-7.92s1.08,2.28,1.46,4a30.82,30.82,0,0,1,.7,6.17c0,5.17-1,8.23-.47,8.39s1.43-1.63,2.1-3.38c2.19-5.78.27-11.47-.35-13.22a27.85,27.85,0,0,0-4.08-7.34,33.21,33.21,0,0,0-3-3.61,3.93,3.93,0,0,0,1.69-2.57c.25-2.47-3.24-3.36-4.19-7-.73-2.81.59-5-.06-5.3s-1.87,1.16-2.21,2.73a5,5,0,0,0,.87,3.73c1,1.52,2,1.21,3.09,2.91.37.58,1.18,1.82.7,2.86a1.64,1.64,0,0,1-1.4,1c-.74-.06-1-1-2-2.39a15.27,15.27,0,0,0-2.86-2.8c-1.17-1-2.66-2.22-3.16-1.86-.19.14-.31.53.08,1.75a19.78,19.78,0,0,1,2.79,1.8,11.17,11.17,0,0,1,3,3.09,9.28,9.28,0,0,1,.82,1.69,1.34,1.34,0,0,1-.7.52c-.41.11-.63-.09-.8,0-.33.26-.09,1.52.54,1.75.21.08.35,0,1-.16a11.86,11.86,0,0,1,1.4-.29c1.19-.06,2.25,2,2.56,2.62a10.94,10.94,0,0,1,1.05,4,13.18,13.18,0,0,1-2.91,9.42C619,479,618.87,479.76,618.71,480.54Z"/><path class="cls-1" d="M612.71,439a13.81,13.81,0,0,0,5.47-4.6c2.86-4.12,2.45-8.56,2.28-10.49a18.48,18.48,0,0,0-3-8.44c-1.43-2.14-3.85-5.76-8.39-6.64-4.93-1-8.81,2-9.61,2.62A9.39,9.39,0,0,0,597,425.38a12.39,12.39,0,0,0,4.54,4,13.64,13.64,0,0,0,12.64,0c6.76-3.86,6.63-13.37,6.59-16.6a28,28,0,0,0-2.22-10.14,41.38,41.38,0,0,0-7.4-11.76c-3.14-3.82-3.46-3.28-7.39-8a41.74,41.74,0,0,1-6.47-9.32,27.25,27.25,0,0,1-2.68-8.1,33.43,33.43,0,0,1,.35-11c.45-2.27,1-3.82.71-3.94s-2.18,2.41-3.15,5.23c-2,5.89-.09,11.56.64,13.57,1.06,2.94,2.34,4.76,4.89,8.38a107.87,107.87,0,0,0,7.51,9.09c4.87,5.55,5.41,5.85,7,8.1a38.3,38.3,0,0,1,4.95,9.32c.93,2.66,5.21,14.9-1.16,21.55a12.41,12.41,0,0,1-11.07,3.61c-.8-.16-6.33-1.37-8-6.47a9.9,9.9,0,0,1,1.23-8.32c3.33-4.72,9.57-3.85,10-3.79,5.07.79,7.64,5.09,8.5,6.52,3.15,5.26,3.47,13.14-.81,17.48a10.61,10.61,0,0,1-4,2.5Z"/><path class="cls-1" d="M580.15,393.81a8.68,8.68,0,0,1,2-5.24c2.62-3,6.53-2.95,7.69-2.86,5.36.42,8,5.15,8.09,5.36a10.77,10.77,0,0,1,.47,8.51c-.4,1-1.86,4.64-5,5a4.77,4.77,0,0,1-4.25-1.69c-1.86-2.49.06-6.6.17-6.58a6.87,6.87,0,0,0,.12,3.78c.1.28,1,2.73,2.85,3,2.09.35,4.13-2.32,4.9-4.31a8,8,0,0,0-1.64-8.27c-1.69-1.77-4.6-3.09-6.93-2.27-1.9.67-2.06,2.29-4.89,4A13,13,0,0,1,580.15,393.81Z"/><path class="cls-1" d="M588.94,406.8c-.28.33-3.31-.81-4.19-3.2-1.26-3.43,2.62-7.35,3-7.69,5.42-5.34,14.38-3.07,15-2.91,1.15.3,7.19,1.93,10.25,7.63a12.12,12.12,0,0,1,1.46,8.27c-.12.56-1.23,5.78-4.84,6.52-2.51.52-4.74-1.45-5.18-1.86-3.36-3.13-3.61-9.27-1.4-13.57,3.29-6.42,11.18-7.12,13.11-7.29,1.49-.13,6.7-.51,11,2.8,1.17.9,3.46,2.67,3.72,5.53a5.8,5.8,0,0,1-2,5.13c-1.43,1-3.3,1-3.38.76s1.6-.51,2.68-1.93a5.83,5.83,0,0,0,.58-5.24c-.85-2.42-3.07-3.49-4.89-4.37a15.62,15.62,0,0,0-9.27-1.28,14.12,14.12,0,0,0-8.32,4.66c-.85,1-4,4.68-3,9.21.6,3,3,6.52,5.36,6.29s4-4.6,4.07-7.63a11.44,11.44,0,0,0-2.91-7.69,14.27,14.27,0,0,0-8.74-4.55c-1.8-.33-6.2-1.15-10.25,1.34-.56.35-4.65,2.87-4.54,6.18C586.24,404.69,589.25,406.45,588.94,406.8Z"/><path class="cls-1" d="M635.08,393.75a8.52,8.52,0,0,0-1.64-5.53c-2.59-3.38-7-3.18-8-3.09a10.89,10.89,0,0,0-8.74,6.53c-.47,1.06-2,4.89-.06,8.56.17.33,2.52,4.7,6,4.31a5.42,5.42,0,0,0,3.73-2.68c1.66-2.88,0-6-.12-6.12l-1.34-.4a5.41,5.41,0,0,1,.12,4.89c-.62,1.18-2,2.59-3.55,2.5-2.34-.13-3.76-3.61-4.08-5.82-.44-3,.62-7.43,4.08-8.91a7.47,7.47,0,0,1,7.63,1.34c1.18,1.13,1.41,2.42,3.2,3.49A7.14,7.14,0,0,0,635.08,393.75Z"/><path class="cls-1" d="M616.5,385.66c-.22,0-1.74-2.53-1-5.07.79-2.93,4.15-4.47,6.87-4.49a8.26,8.26,0,0,1,6.52,3.62,8.59,8.59,0,0,1,1.23,5.18,10.42,10.42,0,0,1-3.15,7.4,10.73,10.73,0,0,1-8,2.44c-.29,0-7.18-.43-9.61-4.95-1.19-2.21-.74-4.34-2.85-6-.79-.62-1.52-.84-2.16-1.8s-.31-1.7-.7-3.73a29.92,29.92,0,0,0-1.22-3.79c-1-3-1.17-3-1.4-3.78-.45-1.59-.32-2.71.18-6.47.79-5.94,1.19-8.93,1.51-10.19.72-2.77,1-2.93,1.81-6.18.66-2.79.47-2.89,1.16-5.7.92-3.71,1.25-3.58,1.81-6.47a21,21,0,0,1,.93-3.84c.53-1.45.78-1.52,1.28-2.8,1.16-2.94.91-5.24,1.23-5.24s.57,1.23.58,2.56c0,1.77-.58,2.23-1.17,4.78-.53,2.34-.12,2.35-.7,4a19.46,19.46,0,0,0-1.28,3.26,18.3,18.3,0,0,0-.11,2.74c-.21,2.16-1.14,2.38-1.93,4.83-.61,1.92-.09,1.94-.75,5.42-.46,2.37-.65,2.08-.94,4a49.5,49.5,0,0,0-.35,5.71c-.05,2,0,1.72-.05,2.91-.16,3.65-.52,3.88-.47,6.12a17.45,17.45,0,0,0,.64,4.77,25.86,25.86,0,0,1,1.17,3.79,6.19,6.19,0,0,0,.46,2.1c.6,1.14,1.45,1.23,2.33,2,1.5,1.37.92,2.82,2,5.07a9.61,9.61,0,0,0,3.56,3.9c2.41,1.57,6.82,2.76,10.48.35,2.67-1.75,4.71-5.26,3.9-8.79-.05-.25-1.08-4.43-4.77-5.36-2.08-.53-4.74,0-5.94,1.75a7.35,7.35,0,0,0-1,3.67C616.38,384.78,616.61,385.63,616.5,385.66Z"/><path class="cls-1" d="M600,392.76c-.13-1.85.33-2.54.24-3.49s-.59-.83-1.93-2.8c-1.07-1.58-1.82-2.68-1.86-4.19a5.38,5.38,0,0,1,.82-2.91,6.66,6.66,0,0,1,3.61-2.86c2.62-.83,3.66.78,5.65-.23a7.72,7.72,0,0,0,2.73-3c.87-1.37.81-1.95,1.69-2.74s1.15-.5,2.74-1.34c1.35-.71,2.67-1.41,3.32-2.85a4.74,4.74,0,0,0,.35-2.45c-.17-1.81-1.24-3.23-1.46-3.15a17.75,17.75,0,0,1,.12,2.39c-.09.75-.22,1.74-.93,2.16s-2.17-.07-2.86-.88a2.71,2.71,0,0,1-.64-1.92c.14-1.21,1.25-1.71,1.05-2.09s-1.73-.11-2.62.17a6.93,6.93,0,0,0-3.14,1.75c-.42.42-2.08,2.24-1.81,4.37.19,1.51,1.17,1.68,1.17,3.32,0,.93-.33,1.6.11,2.21.3.41.64.35,1.11.64,1.32.81,1.43,3,1.51,4.54s-.16,1.55,0,3a8.25,8.25,0,0,1,.12,1.87c0,.25-.17,2-.82,2.09-.38.08-.87-.44-1.1-.93-.43-.88,0-1.59.23-3.32a7.13,7.13,0,0,0,.06-2.5c-.32-1.53-1.17-1.64-2-3.5a21,21,0,0,1-.76-2.91c-.71-2.69-1-2.71-1.16-3.73-.52-3.28,2-6.15,2.21-6.41.47-.52,2.56-2.85,5.24-2.79.8,0,1.13.23,3.55.46,2,.2,2.54.12,2.63-.11s-.42-.81-.88-1.05a4.41,4.41,0,0,0-1.22-.35c-.52-.1-.65-.07-.7-.17-.13-.28.58-1.08,1.46-1.4a3.42,3.42,0,0,1,2.5.17c1.05.52,1.26,1.33,1.81,1.23s.73-.75.81-1.17c.15-.8-.35-1.06-.23-1.69.16-.88,1.22-.79,1.75-1.8a2.6,2.6,0,0,0-.35-2.8c-.45-.5-1.33-1-1.93-.7-1,.47-.47,2.64-1,2.75s-1.29-1.08-1.14-2.23a2.77,2.77,0,0,1,2.27-2.09,3.92,3.92,0,0,1,3.15,1.1c.72.65,1,1.29,1.1,1.23s0-1.46-.75-2.68c-.6-1-1.13-1.2-2.45-2.39a11.67,11.67,0,0,1-2.68-2.91,6.66,6.66,0,0,1-.76-4.55c.56-2.44,2.72-4.16,3.15-3.9s-.66,1.61-.82,4.37a7,7,0,0,0,.7,4.19c.78,1.28,1.48,1,2.68,2.33a9.15,9.15,0,0,1,2.16,5.48c0,2.34-1.07,3.06-.41,4.83.34.91.93,1.54.64,2.22s-1.45.78-1.46,1.22,1,.52,2.16,1.28c1.33.86,2.25,2.15,2,2.45s-1.41-.67-2.22-.18-.36,2.34-1.1,2.62c-.45.18-.75-.43-2.1-.81a2.83,2.83,0,0,0-1.69-.18c-.85.28-.76,1.06-2,2.33-.73.77-1.31,1.07-1.22,1.29s2-.37,2.39.23c.17.28,0,.77-.3,1.05-.57.58-1.34.06-2.56.35a6.65,6.65,0,0,0-2.62,1.8,5.68,5.68,0,0,0-1.75,2c-.15.38-.19.71-.06,2.62.19,2.62.36,3.37-.11,3.73a1.09,1.09,0,0,1-1.34-.06c-.28-.28-.13-.68-.06-1.74s.15-2.29-.29-2.51-.74.12-1,.41c-.61.68,0,1.48-.41,2.15s-1.76.42-4.37.82a25.85,25.85,0,0,0-3.9,1.05c-2.13.66-3.2,1-3.61,1.57a4.32,4.32,0,0,0,.41,4.89c.86,1.06,1.61.73,2.44,1.87a4.9,4.9,0,0,1,.7,3.61c-.28,1.68-1.39,3.22-1.8,3.09C600.09,393.61,600,393.48,600,392.76Z"/><path class="cls-1" d="M611.54,370.57a2.64,2.64,0,0,0-.11-1.69c-.32-.84-.73-.81-1.28-1.86-.38-.73-.25-.87-.59-1.28-.61-.76-1.7-1.08-1.92-.82s.22.49.88,2a5.1,5.1,0,0,0,.69,1.4c.48.57.77.51,1,.93.4.77,0,2-.52,2.1s-.9-.7-1.11-1.23-.05-.86-.23-1.63a7.34,7.34,0,0,0-1-1.92c-1-1.61-1.23-1.64-1.34-1.63-.35,0-.72.56-.7,1.05,0,.8,1.09.88,1.4,1.92.17.58-.14.62-.06,1.63a3.26,3.26,0,0,0,.76,2.1c.48.49.78.3,1.16.76.69.81.25,2,.47,2.09s.35-1.25,1.4-2.5C611,371.32,611.35,371.19,611.54,370.57Z"/><path class="cls-1" d="M596.86,372.61a19.37,19.37,0,0,1,.47-5.65,17.7,17.7,0,0,1,3-5.42c2.76-3.74,3.65-3.59,5.77-6.58,1.53-2.16,3-4.17,3.32-7.11.57-4.62-1.86-8.38-2-8.33a19.15,19.15,0,0,1,.93,6.3,15.7,15.7,0,0,1-2,6.87c-1.44,2.5-2.32,2.25-5.42,5.76-2.37,2.69-4,4.55-4.66,7.34C595.44,369.4,596.66,372.63,596.86,372.61Z"/><path class="cls-1" d="M507.08,410.3c.15.48,7.35-1.33,11.09-2.28,10.93-2.75,11.91-3.77,18.26-4.8,5.4-.88,3.82,0,12.5-1.05,5.93-.72,8.55-1.35,11,.35,1.91,1.32,1.52,2.54,4.1,4.54a14.29,14.29,0,0,0,6.82,2.89c3.68.47,4.57-1.06,7.86-.27,2.69.65,5,2.37,4.81,3s-3.91.14-4.2.09c-2.59-.41-2.94-1.07-4.37-1.05-3.16.05-5.68,3.36-5.41,3.76s2.37-1.82,4.89-1.22c2.28.54,2.11,2.67,4.72,3.4a7.79,7.79,0,0,0,4.89-.26,4.9,4.9,0,0,1,2-.7,4.26,4.26,0,0,1,2.8,1.49c3,2.81,9.67,2.61,13.63,1,1.83-.73,2.12-1.36,3.88-1.64,2.23-.35,3.65.37,6,1,3,.84,6.47,1.81,9.87,1,3.73-.94,4.48-3.32,7.52-3,2.08.23,2.24,1.41,3.93,1.31,3-.19,3.5-3.95,6.55-4.37,2.69-.38,4.79,2.19,5.16,1.75s-1-2.66-3.15-3.5c-1.55-.6-3-.28-5.15.18-1.6.34-2.45,1.54-3.59,1.13-.32-.11-.78-.38-.78-.7,0-.7,2.26-1.23,3-1.4,4.2-1,5.5.15,8.39-.52,3.45-.8,3.06-2.77,6.11-3.32,4-.72,7.66,2.19,8.74,3.06a14.68,14.68,0,0,1,4.45,5.85c.73,1.8,1.1,3.89,1.49,3.85s.09-2,.87-2.28,2.21.83,2.54,2.19c.25,1.05-.41,1.31-.18,2.36.3,1.34,1.47,1.34,2.1,3,.45,1.15.14,1.86.52,2,.56.21,1.85-1,2.19-2.45.3-1.29-.34-2,0-2.45.6-.84,3,.93,6.64,1.49a11.35,11.35,0,0,0,6.55-.52c2.82-1.3,2.45-3.16,4.89-4.11,3.56-1.38,7.22,1.44,7.69.61.32-.56-1.14-2.25-2.88-3a5.92,5.92,0,0,0-4.46.09c-1.76.75-1.7,1.76-3.84,3.49-2.34,1.89-4.87,2.67-5.07,2.36s2-1.3,2.19-3.14-1.79-4.08-3.15-3.85c-.93.16-1.67,1.47-1.4,1.92s1.12-.14,2,.35a2.23,2.23,0,0,1,1,2.62c-.48.85-2.11.87-3.15.35s-1-1.47-2.18-2.18-2.49-.32-2.62-.79,1.51-1,1.75-2.27c.18-1-.69-2.16-1-2.09s-.14.43-.53.87-1,.8-1.39.61c-.64-.3.08-1.9-.79-2.71-.47-.44-.85-.12-1.57-.61s-.71-1.3-1.31-1.66c-1-.61-3.49.25-3.67,1.75-.14,1.16,1.12,2.33,2.27,2.53s2.14-.7,2.36-.44-.42,1.51-1.49,1.93c-1.48.58-3.19-.64-4-1.23-1.46-1-1.8-1.86-3.23-3.58a18.62,18.62,0,0,0-4.72-4.45c-3.26-1.91-6.12-1.18-6.2-1.93s2.93-2.2,6-2.18c1.68,0,2,.43,3.84.52,2.48.12,3.36-.57,5.68-1,2-.33,4.7.1,10.14,1,1.23.2,3.09.51,5.41,1a91.28,91.28,0,0,1,11,2.54,36,36,0,0,0,5.24,1.4c1.65.28,1.82.16,3,.43,3.28.76,5.22,2.44,5.33,2.27A7.69,7.69,0,0,0,704,408c-2.39-1.22-3.86-.92-7.08-1.74a37.75,37.75,0,0,1-5-1.84c-3.08-1.19-6.66-2-13.8-3.58-9.29-2.07-5.37-.79-10.14-1.92-3.28-.78-5.68-1.52-7.51-.35a16.91,16.91,0,0,1-3.14,1.57c-1.05.39-1.66.61-1.93.35-.52-.52.34-2.82,1.66-3.15,1-.23,1.87.68,2.19.35s-.56-1.14-.26-1.83c.1-.25.4-.59,3.14-1,1.94-.26,2.46-.18,3.41-.61a11,11,0,0,0,1.57-1.05c1-.6,1.81-.64,6.38-.61a17.35,17.35,0,0,1,3.84.17c1.95.45,3.18,1.34,3.32,1.14s-.75-1.2-1.92-1.93c-1.34-.82-2.65-1-5.77-1.22a47.08,47.08,0,0,0-5.5-.17c-3.07.26-5.61.47-7.86,2.18-1.63,1.23-1.94,2.35-4,3.23-1.41.6-1.77.31-2.71,1-1.93,1.35-1.88,3.61-3,3.67-.79.05-.93-1.14-1.92-1.22s-1.37,1.23-3.5,2.36c-1,.53-1.19.38-2,.87-1.72,1.05-2.14,2.82-2.44,2.71s.39-2.49-.09-2.71c-.3-.13-.74.68-1.66,1.31-1.22.84-2.23.65-3.58.88-2,.34-3.33,1.38-5.16,2.79-2.11,1.64-3.28,2.55-3.84,4.2-.81,2.35.37,4-.88,5.41a4.23,4.23,0,0,1-2.36,1.14,14.68,14.68,0,0,1-8-.17c-2.17-.66-2.14-1.15-4.36-1.66a12.7,12.7,0,0,0-4.64-.35c-2.25.29-2.46,1.1-5.24,2.09-2,.72-5.6,2-7.77.44-.52-.37-.55-.61-1.93-3.41a40.7,40.7,0,0,0-3.14-5.85,10.29,10.29,0,0,0-5.16-3.93c-2-.57-2.86.08-4.36-.88-1.68-1.06-2.19-2.88-2.71-2.71s-.1,2.52-.7,2.71c-.43.14-.82-1-2.19-2.09a17.85,17.85,0,0,0-3.05-1.58c-2.68-1.23-3.21-1.35-3.41-1.13s.39,1.4.26,1.48-1.34-1.84-2.71-3.32c-1-1.12-2.06-1.82-6.46-4.1-3.73-1.94-5.6-2.9-6.12-3.06a19.6,19.6,0,0,0-11.1.09c-3.29.92-6.06,2.55-5.94,2.88s1.71-.26,6-1.05c3.86-.7,5.81-1.05,7-.7a37.84,37.84,0,0,1,5.07,2.27,7.8,7.8,0,0,0,1.92.79c1.67.38,2.73-.09,3.06.44s-.7,1.45-.35,2,1.86-.25,3,.52c.82.57,1.19,1.87.79,2.36s-1.13.23-2.89-.26c-3.46-1-4-1.31-5.15-1.58-1.44-.32-3.28,0-6.9.62-2.27.39-3.84.75-6,1.22-8.81,2-8.08,1.75-9,2-4.95,1.42-5,2.14-9.7,3.32-3,.76-3.46.57-6.29,1.4C510.7,408.32,507,409.94,507.08,410.3Z"/><path class="cls-1" d="M517,419.73c.45.65,2.69-1.42,5.5-.79.49.11.66.23,4.63,3.06,2.68,1.91,3,2.15,3.76,2.27,1.22.21,1.7-.17,4,0,1.54.12,1.4.3,2.18.27,2.52-.11,3.44-1.92,4.55-1.49,1.32.52,1,3.53,1.83,3.58.41,0,.51-.77,1.66-1.83.92-.85,1.23-.68,1.57-1.22.73-1.16-.48-2.25,0-3.59.39-1.07,1.33-.87,3.24-2.27s1.52-1.92,3.75-3.84a9.76,9.76,0,0,1,3.41-2.27c2.71-.89,5,.35,5.16,0s-1.51-1.46-3.5-1.66a7.48,7.48,0,0,0-4.37,1c-1.43.78-1.31,1.2-3.75,3.06-2.23,1.69-3,1.89-3.67,1.92-1.29.08-2.75-.46-2.8-1,0-.38.51-.84,1-1,.9-.21,1.36.62,2.1.44a2.23,2.23,0,0,0,1.22-2.62,2.49,2.49,0,0,0-2.45-1.66c-1.44.05-2.08,1.56-2.62,1.31s-.44-2.57.53-4.37c.27-.51,1.42-2.65,3.14-2.71a6.37,6.37,0,0,1,2.53,1.14c1.84,1.05,2.08,1.46,3.06,1.66,1.3.26,2.22-.18,2.27,0s-1.17,1.13-2.62,1.14c-2.12,0-3.48-1.92-3.75-1.66s.46,1.74,1.83,2.62a5.72,5.72,0,0,0,3.5.7,7.19,7.19,0,0,0,5-1.66,6.3,6.3,0,0,0,1.74-3.15c.36-1.47-.11-1.79.09-3.67.16-1.51.32-3,1.4-3.93,1.65-1.43,4.36-.61,4.63-.53,1.78.57,1.68,1.48,4,2.54,1.1.5,2.77,1.25,4.1.52.89-.48,1.46-1.51,1.23-1.83s-1.73.84-3.41.43-1.43-1.69-3.23-2.7a7.29,7.29,0,0,0-5-.53c-1.22.24-2.94.58-3.93,1.92-1.76,2.38.29,5.76-1.23,6.73A3.09,3.09,0,0,1,557,404a7.17,7.17,0,0,1-2.28-1.48c-2-1.41-4.49-1.56-4.63-1.22s1.16.6,2.45,2.18c.74.9.71,1.25,1.31,1.57.88.47,1.38,0,2.62.35,1.06.33,1.93,1.08,1.84,1.31s-.44.08-2-.17c-3.12-.5-3.36-.56-3.76-.79-1.19-.68-.86-1.27-2-2a5.58,5.58,0,0,0-4.19-.52,5.9,5.9,0,0,0-3.41,2.62c-1.16,1.83-1.15,3.93-1.14,6.2,0,2.06.32,3.48-.17,3.67-.33.13-.87-.34-1.14-.78-.61-1,0-2.19-.26-2.28s-1.31,1-1.31,2.36,1.28,2.12,1,2.8-1.77,0-3.32,1.05c-.91.6-.91,1.18-1.75,1.4a1.94,1.94,0,0,1-2.18-.7,1.69,1.69,0,0,1,.61-1.93c.87-.61,2.11,0,2.19-.17s-1-1.1-2.36-1a2.83,2.83,0,0,0-2.45,1.4c-.73,1.63,1.43,3.6.87,4.19s-2.27-.41-3.4-1.13c-2.47-1.59-2.41-2.83-4.37-3.76a5.45,5.45,0,0,0-4.63-.17C517.66,417.66,516.69,419.25,517,419.73Z"/><path class="cls-1" d="M522.19,406.45c-.05.2,3.57,2.18,7.95,1.75a15.72,15.72,0,0,0,8.22-3.76c4.47-3.46,3.94-5.72,7.77-7.95,4.14-2.41,8.24-1.8,8.22-2.18s-3.65-1.1-7.17.35c-1.64.67-2.89,1.85-5.33,4.19-4.34,4.16-4.22,5.06-6.55,6.38a15.67,15.67,0,0,1-7,1.83A25.3,25.3,0,0,1,522.19,406.45Z"/><path class="cls-1" d="M647.74,413c.06-.15,5,.18,7.08,3.41a7.92,7.92,0,0,1-.35,8.39c-2.69,4-8.93,4.62-12.84,2.1-3.56-2.3-4.12-6.55-4.28-7.78-.81-6.18,3.29-11,3.58-10.92s-2.47,4-1.92,9.43c.13,1.34.72,7.07,5.07,9a7.23,7.23,0,0,0,7.42-.78,6.94,6.94,0,0,0,2.27-6.64,8,8,0,0,0-3-4.55A12.54,12.54,0,0,0,647.74,413Z"/><path class="cls-1" d="M639.18,398.5c.11-.37,2.08.62,4.37-.26,1.77-.69,1.67-1.7,3.5-2.54.15-.07,3.18-1.4,5.33,0,1,.69,1.45,1.8,2.27,4,1.13,3.1.87,4.33,1.74,4.72,1.15.52,2.13-1.33,4.72-2.27a10.44,10.44,0,0,1,9.09,1.31c.75.51,3.73,2.52,4,5.94.26,3.05-1.75,5.6-2,5.51s.78-1.82.52-4.37a7.4,7.4,0,0,0-2.62-5.25,7.83,7.83,0,0,0-3.93-1.22,10.92,10.92,0,0,0-4.28.18,38.71,38.71,0,0,0-3.76,1.57c-2.39,1-2.9,1-3.23.79s.11-1.2-.09-2.71c-.11-.85-.36-1.16-1.22-2.89-1.69-3.37-1.47-3.66-2.1-4-1.56-.87-3.91.36-4.89.88-2,1-2.09,1.94-3.5,2.18C641.08,400.42,639.07,398.89,639.18,398.5Z"/><path class="cls-1" d="M653.37,410.94c.06.23,2.22-.91,4.07.05,1.09.57,1.38,1.5,2.16,1.4.49-.06.84-.49,1.51-1.34s.66-1.21,1.11-1.57c.91-.72,1.76,0,3-.47a4.17,4.17,0,0,0,2.33-3.2c-.1-.06-.65,1.49-2.1,1.92-.86.26-1.15-.14-2.56,0s-2,.63-2.16.41.59-1.72,1.81-2,1.54.51,2.56.29a3.4,3.4,0,0,0,2.22-2.79c-.16-.13-.91,1.41-2.45,1.63-1,.14-1.26-.46-2.45-.41a3.44,3.44,0,0,0-2.91,1.57c-.56,1.23.59,2.35,0,3-.45.53-1.27,0-3,.23S653.31,410.75,653.37,410.94Z"/><path class="cls-1" d="M662.8,395.5a24.72,24.72,0,0,1,5.59,1.57,18.58,18.58,0,0,1,3.27,1.87c2.89,2.08,3.09,3.58,5.47,5.65a13.43,13.43,0,0,0,5.53,3.08c5,1.22,9.86-1.73,9.79-2a27.68,27.68,0,0,1-4.78.64,14.31,14.31,0,0,1-6.46-1.1c-.87-.4-1.29-.73-4.66-3.73-4.78-4.25-4.87-4.42-5.65-4.83C667,394.59,662.82,395.31,662.8,395.5Z"/><path class="cls-1" d="M434.84,665.78c-1.81,1.6-37.29-28.16-63.53-72.83-12.51-21.31-18.68-38.78-24-54.14-7.17-20.69-24.14-75.23-22.2-149.28,1.36-52,10.87-87.77,13.13-95.81,9.53-33.92,20.87-54.35,25.61-62.41,13.95-23.77,26.19-44.62,51.74-55.48a85.83,85.83,0,0,1,47.54-5.33c32.61,5.75,52.66,30.22,62.4,42a139,139,0,0,1,21,34.81,47,47,0,0,0-5.4,11.4c-3.57,11.24.14,14.57-3,23.4-3.45,9.68-11.46,15.66-16.21,19.21a57.23,57.23,0,0,1-11.4,6.6c-.17,4.34-1,9.29-4.2,10.8-2.76,1.31-4.64-1.26-8-.41-3.66.92-6.15,6.21-11,16.74-2.57,5.59-3.58,8.5-6.94,10.67-2.47,1.6-3.56,1.08-6.46,2.4-5.67,2.58-7.33,7.19-10.6,11.2-2.8,3.42-7.73,7.6-17.07,10.14a45.33,45.33,0,0,0-14.94-17.6c-1.69-1.17-19.2-12.86-35.74-6.14-8.32,3.39-13.29,10.17-18.13,18.94a163.84,163.84,0,0,0-19.2,64c-1.4,21.23-3.61,60.55,11.2,110.41,14.1,47.51,34.41,81.92,43.74,96C426,654.43,435.86,664.88,434.84,665.78Z"/><path class="cls-1" d="M584.94,703.77a104.74,104.74,0,0,1-40.81-.78c-12.28-2.71-23.66-7.63-37.2-16.42-44.45-28.88-71.34-73.09-76.41-81.62-17.39-29.25-24.84-53.88-33.92-83.88-7.23-23.88-9.22-37.43-12.71-61.24-1.15-7.83-2.05-15.29-1.37-24.9a102.25,102.25,0,0,1,10-37.2,51.63,51.63,0,0,1,22.4,14c7,7.69,9.61,15.78,14.4,32.8,6,21.22,10,37.31,10.4,38.81,5.54,22,12.28,48.68,30,75.21,13.14,19.67,24.28,27.2,28.8,30a85.84,85.84,0,0,0,29.6,11.2,89.81,89.81,0,0,0,44-3.2c.65,15.7,1.58,28.9,2.4,38.81,1.35,16.34,2.28,27.38,4.8,42C581.25,688.47,583.37,697.55,584.94,703.77Z"/><path class="cls-1" d="M598.54,687.37c-.17,0-.69-.83-1.6-35.61-.42-16-.66-29.19-.8-38,7.15,0,15.55-1.38,22.41-6.8,12-9.53,12.2-25.94,14-25.61s4.6,17.17-5.2,28.41c-9,10.32-23.28,9.73-25.61,9.6,0,5.87-.09,14.44-.4,24.8C600.81,662,599.52,687.38,598.54,687.37Z"/><path class="cls-1" d="M568.94,328.92c30.88-46.63,28.63-107.42-4.8-149.62-36.87-46.55-104.06-60.89-159.22-32.4,5.28-1.55,74-20.42,127.61,25.2C575.82,208.93,590.92,272.15,568.94,328.92Z"/><path class="cls-1" d="M294.2,717.5c-5.84-1.21-12.2,8.71-30.37,34.67-14.26,20.38-19,26.61-24.8,29.34a17.79,17.79,0,0,0-6.93,5.6c-1.2,1.65-4,5.58-2.67,10.14a10.26,10.26,0,0,0,8.53,6.93c4.2.48,7.37-2,8.8-3.2,3.52-2.81,3.14-4.9,7.74-12.27,2.94-4.71,3.49-4.5,6.67-9.6s2.79-5.53,5.6-10.4c6-10.34,8.92-10.63,13.07-18.94.68-1.38,1.88-3.32,4.26-7.2s3.11-4.81,4.27-5.07c.56-.12,2.28-.3,7.2,5.07,3.49,3.81,7.18,7.85,9.34,14.4a58.44,58.44,0,0,1,1.86,8.54c1,5.65.5,5.9,1.34,8.8,1.6,5.54,3.78,6.16,3.73,9.6,0,1.25-.33,2.37-3.73,7.74-4.19,6.59-5.09,7.06-8,11.73C296,810,296.57,811,294,813c-3.32,2.59-5.74,2.11-7.2,4.8-.58,1.07-.58,1.84-.27,7.74.42,7.88.5,8.4,1.07,8.8,2.59,1.79,9.6-3.06,14.13-8,2.82-3.07,3.33-4.7,8-12.81,3.94-6.82,3-4.66,9.6-15.73,8.37-14,8.07-14.47,10.67-17.07,5.23-5.25,8-5,10.66-10.13,1.82-3.5,1.89-6.25,5.07-9.07,2.35-2.09,4.33-2.37,4.53-4s-1.51-2.51-5.06-5.87c-5.49-5.19-6.55-7.87-8.54-7.47-.95.2-1.34.93-3.46,4.27-1.49,2.33-3.08,4.59-4.54,6.93-.87,1.4-7.19,11.59-9.6,10.67-1.42-.54.43-4.25-1.87-9.33-1.48-3.29-2.95-3.26-4.9-7.39-1.66-3.54-.81-4-2.3-6.48-2.21-3.62-4.25-2.78-6.93-6.4a15.9,15.9,0,0,1-3.2-9.34c0-2.68.92-3.59.26-5.33C299,718.92,295.33,717.73,294.2,717.5Z"/><path class="cls-1" d="M393.18,883.12c3.51-.88,4.07-9.79,4.8-23.2.51-9.25,1.17-18.49,1.6-27.74.15-3.07.52-11.1,1.6-18.67.8-5.53,1.34-8.26,1.34-8.26.83-4.22,1.16-4.69,1.33-6.94.26-3.44-.42-3.76-.53-8.53-.13-5.24.64-6.94-.27-7.47-1.44-.85-4.61,2.68-9.33,6.67s-5.7,4-13.34,9.33c-7.45,5.2-16.27,12.43-33.6,26.67-3.38,2.78-8.14,6.71-13.87,11.47-1.06-.15-8.49-1.09-13.34,4-.93,1-5.23,5.82-3.2,10.14,1.31,2.77,4.71,4.17,7.47,4,2.58-.16,4.33-1.67,6.67-3.74a34.46,34.46,0,0,0,5.87-6.93c2.67-3.81,4.6-4.5,13.33-10.94,5.53-4.07,9.34-7.17,14.94-11.73,15-12.19,17.6-14.4,17.6-14.4,6.07-5.1,8.68-7.45,9.87-6.67s-.56,4.52-2.14,13.07c-1.35,7.35-.47,7.3-1.86,15.73-1.36,8.22-2.15,8-3.2,15.47-1.11,7.88-.25,8.28-1.6,12.27-1.52,4.47-2.92,4.93-5.61,11.73-2.5,6.35-2.24,8.4-1.6,9.87a7.94,7.94,0,0,0,4.81,4.27c2.41.71,3.45-.53,7.46-.27C391.63,882.54,392,883.42,393.18,883.12Z"/><path class="cls-1" d="M422.52,902.59c5.83-1.23,12.52-8.51,17.87-13.33,10.56-9.52,14-7.72,16.8-13.87,2.36-5.24,1.64-10.49.8-16.54-.49-3.57-1.14-5.51-5.07-16.8-2.4-6.93-4.34-14-7.2-20.8-4.12-9.76-6.58-12.65-5.6-17.87.83-4.41,3.52-7.35,5.34-9.33,4.22-4.62,8.82-6.28,17.33-9.34,7.36-2.65,11.21-3.48,15.47-3.73,3.09-.19,5.94,0,7.2-1.87s.52-5-1.07-6.93c-3.11-3.79-9.7-2.95-15.46-2.14-4.71.66-10.82,2-21.34,6.94-12.09,5.69-18.14,8.54-20.54,13.33-2.75,5.51-1.78,11.17-.53,18.4.83,4.84,2.88,10,6.94,20,2.83,7,5.11,12.2,7.73,20.53,2,6.41,2.72,9.91,1.6,13.87-1,3.59-3,5.79-6.13,9.07-1.24,1.3-5.77,6-16.81,12.8-6.81,4.22-9.64,5.26-10.4,8.53a8.09,8.09,0,0,0,2.4,7.74c1.5,1.2,3.31,1.39,5.34,1.6A19.74,19.74,0,0,0,422.52,902.59Z"/><path class="cls-1" d="M522.78,916.06c5.34-2.64,10-11.36,14-17.36,7.86-11.85,11.67-11,12.82-17.62,1-5.66-1-10.56-3.34-16.21-1.37-3.34-2.48-5.06-9.09-15-4.06-6.11-7.71-12.52-12.16-18.36-6.42-8.42-9.52-10.61-9.87-15.91-.3-4.47,1.58-8,2.84-10.37,2.94-5.51,7-8.27,14.47-13.35,6.47-4.4,10-6.17,14.05-7.47,2.95-.95,5.75-1.49,6.51-3.6s-.74-5-2.76-6.45c-4-2.89-10.13-.44-15.51,1.78-4.4,1.82-10,4.61-18.94,12-10.29,8.53-15.44,12.8-16.57,18-1.3,6,1.06,11.26,4.07,18,2,4.47,5.26,8.92,11.69,17.64,4.49,6.09,8,10.54,12.61,18,3.54,5.7,5.1,8.92,5,13-.09,3.73-1.5,6.36-3.68,10.31-.87,1.57-4.1,7.22-13.09,16.58-5.55,5.78-8,7.49-7.95,10.86a8.09,8.09,0,0,0,4.25,6.89c1.75.79,3.56.52,5.57.22A19.44,19.44,0,0,0,522.78,916.06Z"/><path class="cls-1" d="M615.88,785c-3.8-2.9-12.94,4.3-28.54,11.2-7,3.11-10.55,4.66-11.66,5-3.73,1-6.33,1.2-8.61,3.56a9.49,9.49,0,0,0-2.66,6.4c.07,2.62,1.51,4,2.93,6.41,2.45,4.11,1.7,5.86,3.47,12,2.05,7.13,3.27,5.45,6.93,15.2,1.69,4.5,2.27,7.1,5.07,14.13.77,1.93,1.43,3.51,1.86,4.54l-6.4,4c-1.35,7.39,0,8.54.54,8.8.77.36,1.62-.26,5.06-1.6,1.89-.73,3.47-1.26,4.54-1.6a23.53,23.53,0,0,0,4,11.47c1.39,2,5.55,7.4,12.53,9.06,4.14,1,8-.14,15.74-2.4a123.47,123.47,0,0,0,19.73-7.73,99.54,99.54,0,0,1,9.61-4.53c2.32-.92,3.52-1.27,5.86-2.4a28.08,28.08,0,0,0,6.94-4.27c1.75-1.56,5.32-4.71,4.53-6.94-.2-.57-.63-.89-8.27-3.46-2-.68-2.45-.82-3.2-.8-2.79.06-4.63,2.16-6.4,3.73s-4.46,2.91-9.87,5.6c-7.65,3.81-8,2.12-13.33,5.34-4.1,2.47-5.07,4.18-9.07,5.33-2.27.65-4.88,1.4-7.47.27-.88-.39-1.72-1-6.4-8.27-2.33-3.64-2.53-4.13-2.4-4.8.27-1.37,1.67-2.44,10.67-5.34,7.86-2.53,7.23-1.86,10.4-3.2,5.81-2.45,6.74-4.21,10.14-4,2.44.15,3.92,1.18,6.13.27,1.9-.79,1.65-1.9,3.47-2.67,2.9-1.22,4.86,1,7.2-.26.66-.37,1.25-1.41,2.4-3.47,2-3.63,3-5.44,2.4-6.67-.55-1.05-1.55-.59-4-2.13s-2.22-2.48-3.73-2.94c-2.21-.65-4.55.81-6.67,2.14s-2.28,2-4,3.2c-3,2-4.86,1.45-9.07,2.67-2.42.7-1.75.88-9.6,4.8s-6.55,2.73-9.6,4.53c-3.53,2.08-5.36,3.69-8.27,3.47a7.11,7.11,0,0,1-3.73-1.34c-2.47-1.85-2.41-4.75-3.47-8.53-.4-1.4-.36-.85-5.07-10.14-1.62-3.19-3.52-7-5.6-11.73-2.58-5.87-3.31-8.34-2.4-10.94a9.73,9.73,0,0,1,2.67-3.73c3.27-3.29,6.24-4,11.73-6.4,6.92-3,5.83-3.55,11.2-5.6,4.89-1.86,5.85-1.47,10.4-3.47,1.23-.54,9.31-4.15,8.81-6.4-.2-.87-1.51-.79-4.27-2.67A28.07,28.07,0,0,1,615.88,785Z"/><path class="cls-1" d="M757.76,809c-1.63-3.86-5.77-6.9-9.33-6.4-2.49.35-2.87,2.19-6.67,4.53-3.47,2.15-4.77,1.61-8.8,3.2-7.87,3.12-7.27,6.9-14.67,9.61-4,1.45-3.9.26-9.6,2.13-4.91,1.61-6.37,3-9.87,2.93a15.41,15.41,0,0,1-7.47-2.13c-4.51-2.52-6.58-6.42-8.26-9.6s-2.52-4.75-2.4-6.4c.31-4.47,5.55-6.19,13.6-12,3.83-2.78,10.57-7.73,16-15.47,2.66-3.79,5.85-8.47,6.4-15.21.24-2.91.72-8.78-3.2-13.33s-9.8-5-11.2-5.07c-6.12-.44-8,2.47-20.8,8-11.3,4.89-17.34,6.94-17.34,6.94-4.88,1.65-8.71,2.7-12,6.4a13.12,13.12,0,0,0-3.73,7.73c-.18,2.52.61,4.75,4.53,10.94,3.67,5.8,6.83,9.92,7.2,10.4,5.8,7.57,8.7,11.35,11.47,15.47,7.16,10.64,5.19,10.85,10.67,17.6,3.4,4.2,5.66,6,6.66,10.13.83,3.45.08,5.53,1.87,8.81.95,1.72,2.32,2.92,5.07,5.33,4.52,4,6.79,5.94,8.8,5.6,3.27-.55,5.23-5.14,5.6-8.27.11-1,.53-4.52-1.6-6.66-1.55-1.56-2.86-.79-5.07-2.41s-4-4.72-3.2-6.4c.72-1.43,2.73-.51,6.4-1.86,4.84-1.78,4.52-4.53,8.54-5.34,3.1-.62,4.77.72,6.93-.8,1.41-1,1-1.75,2.4-2.93,2.33-2,4.32-.55,8-1.87s3.2-3.19,6.4-4c2.14-.54,2.87.17,7.47.8,5.47.76,8.21,1.14,9.94-.2C759.11,817.16,759.17,812.3,757.76,809Zm-82.94-14.13c-3.11-.66-5.16-3.74-5.87-4.81-1.57-2.36-1-3.17-2.67-6.4-2.15-4.06-3.79-4-4-6.13-.33-3.43,3.75-6.52,6.4-8.53s3.24-1.74,8.81-4.81c6.1-3.35,6.27-4.15,9.6-5.33,3-1.05,6.19-2.2,9.87-1.07.24.08,5.79,1.86,6.66,5.87.35,1.6-.39,2-.8,6.14-.36,3.72.18,3.88-.26,5.33-.91,2.92-3.53,3.55-8,6.67-4.09,2.85-3,3.09-8.26,7.2C680.71,793.32,677.86,795.48,674.82,794.85Z"/><path class="cls-1" d="M757.23,787.91c-3.49-2.27-4.17-5.24-6.93-10.93a110.28,110.28,0,0,0-7.74-13.07c-2.3-3.54-4.65-6.63-9.33-12.8s-6.9-9.09-9.07-11.47C720,735,719,734.79,714,729.24a101,101,0,0,1-6.66-8.54c-4.47-6.13-4.69-7.34-4.27-8,.85-1.34,4.57-.73,7.2.27,5.55,2.1,7,6.15,12.54,12.8,4.66,5.59,4.47,3.73,13.06,12.8,5.24,5.53,7.85,8.29,10.94,12.54,5.26,7.23,5.09,9.27,9.33,12.53,2.06,1.59,3.64,2.29,8.8,6.14,3.41,2.53,4.58,3.61,5.6,5.33a13.69,13.69,0,0,1,1.87,7.73c-.12,1.88-.25,4-1.87,5.6-1.84,1.79-4.46,1.68-6.4,1.6A13.73,13.73,0,0,1,757.23,787.91Z"/><path class="cls-1" d="M223.7,709.77c-.9-2.28-3.81-5.82-9.61-12.8-8.13-9.8-12.26-14.74-15.6-16.41-7.05-3.52-18.73-4.68-26.12,1.87-9.39,8.32-5.69,23.59-4.68,27.74,2,8.13,6.3,13.62,10.4,18.8,4.88,6.18,8.11,10.27,14,12.8,1,.41,14.76,6.1,25.2-2C227,732.22,226.93,718.05,223.7,709.77Zm-14,21.21c-6.54,5.22-15.19,1.56-15.79,1.29-3.69-1.63-5.71-4.27-8.77-8.25-2.57-3.34-5.28-6.88-6.52-12.13-.63-2.67-2.95-12.52,2.93-17.88,4.64-4.23,12-3.48,16.37-1.21,2.09,1.08,4.68,4.26,9.78,10.58,3.63,4.5,5.45,6.79,6,8.26C215.69,717,215.75,726.12,209.65,731Z"/><path class="cls-1" d="M187.36,648.43c-.18-2.44-1.91-6.68-5.38-15.07-4.86-11.77-7.34-17.71-10-20.29-5.69-5.46-16.5-10-25.51-6C135,612.26,134,628,133.75,632.21c-.53,8.35,2,14.88,4.36,21,2.83,7.34,4.71,12.21,9.58,16.38.79.68,12.29,10.19,24.66,5.56C183.89,670.87,188,657.3,187.36,648.43Zm-19.7,16.1c-7.8,3.05-15-3-15.47-3.45-3-2.65-4.19-5.77-5.93-10.48-1.46-4-3-8.14-2.62-13.52.19-2.74.89-12.83,8.1-16.21,5.67-2.66,12.44.22,16,3.7,1.67,1.65,3.2,5.46,6.2,13,2.13,5.38,3.2,8.1,3.29,9.67C177.58,652.94,174.93,661.69,167.66,664.53Z"/><path class="cls-1" d="M188.09,711.77a308.82,308.82,0,0,1-18-30.81c-4.19-8.21-7.75-16.12-10.8-23.6a6.89,6.89,0,0,1,12.4-6c2.58,7.23,5.62,14.87,9.2,22.8a302.38,302.38,0,0,0,16.8,32,5.86,5.86,0,0,1-9.6,5.6Z"/><path class="cls-1" d="M784.67,711c.89-2.28,3.8-5.82,9.6-12.81,8.13-9.8,12.26-14.73,15.6-16.4,7-3.52,18.73-4.69,26.12,1.87,9.39,8.31,5.69,23.59,4.68,27.74-2,8.13-6.3,13.62-10.4,18.8-4.88,6.17-8.11,10.27-14,12.8-1,.41-14.76,6.09-25.2-2C781.33,733.49,781.43,719.32,784.67,711Zm14,21.21c6.54,5.22,15.19,1.56,15.79,1.29,3.69-1.63,5.71-4.27,8.77-8.25,2.57-3.35,5.28-6.88,6.52-12.13.63-2.67,3-12.52-2.93-17.89-4.64-4.22-12-3.47-16.37-1.2-2.09,1.08-4.68,4.26-9.78,10.58-3.63,4.5-5.45,6.78-6,8.25C792.67,718.24,792.61,727.38,798.71,732.25Z"/><path class="cls-1" d="M821,649.7c.18-2.44,1.91-6.69,5.38-15.07,4.86-11.77,7.34-17.71,10-20.29,5.69-5.46,16.5-10,25.51-6,11.43,5.16,12.42,20.85,12.69,25.11.53,8.35-2,14.87-4.36,21-2.83,7.34-4.71,12.21-9.58,16.37-.79.68-12.29,10.2-24.66,5.57C824.47,672.13,820.37,658.57,821,649.7Zm19.7,16.1c7.8,3,15-3,15.47-3.45,3-2.65,4.19-5.78,5.93-10.49,1.46-4,3-8.13,2.63-13.51-.2-2.74-.9-12.83-8.11-16.21-5.67-2.66-12.44.22-16,3.7-1.67,1.65-3.2,5.46-6.2,13-2.13,5.38-3.2,8.1-3.29,9.67C830.78,654.21,833.43,663,840.7,665.8Z"/><path class="cls-1" d="M820.27,713a308.82,308.82,0,0,0,18-30.81c4.19-8.21,7.75-16.12,10.8-23.6a6.89,6.89,0,0,0-12.4-6c-2.58,7.23-5.62,14.87-9.2,22.8a303.36,303.36,0,0,1-16.8,32,5.86,5.86,0,0,0,9.6,5.6Z"/></g></g></svg>