<svg xmlns="http://www.w3.org/2000/svg" viewBox="0 0 920.82 827.07"><defs><style>.cls-1{fill:#222;}</style></defs><g id="Capa_2" data-name="Capa 2"><g id="Capa_1-2" data-name="Capa 1"><path class="cls-1" d="M603,131.52A974.18,974.18,0,0,0,461.16,95.08a1257,1257,0,0,0-272.39,94.37q.47,140.63.94,281.25a561.6,561.6,0,0,0,86.07,159.79c64.77,84,139.27,131.3,185.08,155.61A570.68,570.68,0,0,0,733.55,473.51V186.65A971.36,971.36,0,0,0,603,131.52Zm106.89,337.9a557.46,557.46,0,0,1-41.25,87.29,545.56,545.56,0,0,1-85.28,110.63,550.66,550.66,0,0,1-122.47,92.13,558.54,558.54,0,0,1-70.83-47.09,542.63,542.63,0,0,1-95.52-96,537.31,537.31,0,0,1-81.25-149.58l-.88-262.64c33.94-15.82,68.88-30.22,104-42.86A1239.51,1239.51,0,0,1,461.67,118.9,949.43,949.43,0,0,1,709.92,201Z"/><path class="cls-1" d="M371.31,779.78c-10.88-5.54-20.44-10.06-29.06-13.87-1.9-14.69-8.66-26.63-14-35.79-16.17-27.83-39.52-45.07-51.07-53.43-13.56-9.82-22.33-13.7-35-27a141.22,141.22,0,0,1-19.86-26.48,206.35,206.35,0,0,0,38.17,110.3l-2.23-1.06a307,307,0,0,1-32.74-18.38c1.39-6.7,1.19-17.12-4.14-34.59-3.27-10.67-9.35-27-35.47-66.68-16.53-25.13-21.93-30.52-32.16-49.65a320.1,320.1,0,0,1-16.08-35,243.16,243.16,0,0,0,10.39,117.06c-5.28-6.26-9.52-11.69-12.75-15.85-5.72-7.38-11-14.72-15.78-21.95,1.69-7.23,1.85-17.29,2.06-30.55.15-9.48-.24-24.78-5.67-54.38-6-33-9.69-36.48-11.35-54.86a162.29,162.29,0,0,1,4.25-53.43,131.58,131.58,0,0,0-39.07,82.59,336.34,336.34,0,0,1-7.1-38.2c11.74-10.86,22.1-37.73,28.68-54.8,11.72-30.43,10.2-42.11,21.75-72.35a284.78,284.78,0,0,1,25.06-50.13,106.92,106.92,0,0,0-36.41,19.39c-20.58,17-29.63,38.28-35.64,49.18a364.35,364.35,0,0,1,9.63-39.25c3.82-4.64,9.42-11.75,15.61-20.81,14.08-20.62,19-33.46,35-67.62,23.3-49.63,31-60.79,37.36-69a212.64,212.64,0,0,1,26.48-28.37c-16.13,5.34-54.72,20.54-85.59,59.58C64.73,234.8,65.18,290.26,65.81,305.46a349.37,349.37,0,0,0-10.73,35.37c-.65-6.94-1.22-16.87-1.57-31.12-.59-24.8.14-35.51-.47-53.91-.63-19.29-2.35-35.12-3.78-45.87a420.09,420.09,0,0,0-27.43,96.95c-9.48,60.88-.94,96,2.84,109.24s11.18,39.23,22.56,45.77A370.56,370.56,0,0,0,57.08,515a243.94,243.94,0,0,1-14.44-22.24c-8.78-15.29-11.8-24.42-24.12-49.18-7.47-15-14-27.09-18.44-35a368.21,368.21,0,0,0,9.45,91.27c8.7,37.25,17.85,74.21,49.19,100.26C70.6,610,91.54,623.14,105.8,621.4a458.92,458.92,0,0,0,32.4,40.46,364.2,364.2,0,0,0-38.34-18.75,363.73,363.73,0,0,0-54.86-18,343.63,343.63,0,0,0,48.24,64.31c29.3,30.73,49.88,40.69,60.06,44.93,26.67,11.11,40.72,7.41,45.87,5.68a47,47,0,0,0,15.89-8.85c12.54,9.1,26.06,18,40.6,26.49-8.91-.47-18.47-.58-28.59-.15A300.11,300.11,0,0,0,159,768.43a256.9,256.9,0,0,0,56.28,35.94C234,813.12,257.86,824,289,822.81c13.82-.5,30.54-1.35,42.09-13.71A38.42,38.42,0,0,0,338,798.62c6.68,2.77,16,6.6,29.49,12.37,15.67,6.69,28.44,12.32,36.89,16.08q6.73-3.14,13.71-6.62,6.58-3.3,12.77-6.62C417.54,805.32,397.13,792.93,371.31,779.78Z"/><path class="cls-1" d="M549.51,779.78c10.88-5.54,20.44-10.06,29.06-13.87,1.9-14.69,8.65-26.63,14-35.79,16.17-27.83,39.52-45.07,51.07-53.43,13.56-9.82,22.33-13.7,35-27a141.22,141.22,0,0,0,19.86-26.48,206.35,206.35,0,0,1-38.17,110.3l2.23-1.06a305.85,305.85,0,0,0,32.73-18.38c-1.39-6.7-1.18-17.12,4.15-34.59,3.26-10.67,9.35-27,35.47-66.68,16.53-25.13,21.93-30.52,32.16-49.65a320.1,320.1,0,0,0,16.08-35,243,243,0,0,1-10.4,117.06c5.28-6.26,9.53-11.69,12.76-15.85,5.72-7.38,11-14.72,15.78-21.95-1.69-7.23-1.85-17.29-2.06-30.55-.15-9.48.24-24.78,5.67-54.38,6-33,9.69-36.48,11.35-54.86A162,162,0,0,0,812,414.23a131.53,131.53,0,0,1,39.08,82.59,338.56,338.56,0,0,0,7.1-38.2c-11.75-10.86-22.1-37.73-28.68-54.8-11.73-30.43-10.21-42.11-21.75-72.35a284,284,0,0,0-25.07-50.13,107,107,0,0,1,36.42,19.39c20.58,17,29.62,38.28,35.64,49.18a366.75,366.75,0,0,0-9.63-39.25c-3.82-4.64-9.42-11.75-15.61-20.81-14.08-20.62-19-33.46-35-67.62-23.3-49.63-31-60.79-37.36-69a211.93,211.93,0,0,0-26.49-28.37c16.14,5.34,54.73,20.54,85.6,59.58C856.09,234.8,855.64,290.26,855,305.46a349.37,349.37,0,0,1,10.73,35.37c.65-6.94,1.22-16.87,1.56-31.12.6-24.8-.13-35.51.48-53.91.63-19.29,2.35-35.12,3.78-45.87A420.09,420.09,0,0,1,899,306.88c9.47,60.88.94,96-2.84,109.24S885,455.35,873.58,461.89A369.23,369.23,0,0,1,863.74,515a243.94,243.94,0,0,0,14.44-22.24c8.78-15.29,11.8-24.42,24.12-49.18,7.47-15,14-27.09,18.44-35a367.65,367.65,0,0,1-9.46,91.27c-8.69,37.25-17.84,74.21-49.18,100.26C850.22,610,829.27,623.14,815,621.4a460.78,460.78,0,0,1-32.4,40.46,363.32,363.32,0,0,1,93.2-36.72,343.63,343.63,0,0,1-48.24,64.31c-29.31,30.73-49.89,40.69-60.06,44.93-26.67,11.11-40.72,7.41-45.87,5.68a47,47,0,0,1-15.89-8.85c-12.54,9.1-26.06,18-40.6,26.49,8.91-.47,18.47-.58,28.59-.15a300.11,300.11,0,0,1,68.1,10.88,256.9,256.9,0,0,1-56.28,35.94C686.84,813.12,663,824,631.8,822.81c-13.82-.5-30.54-1.35-42.09-13.71a38.19,38.19,0,0,1-6.92-10.48c-6.68,2.77-16,6.6-29.49,12.37-15.67,6.69-28.44,12.32-36.89,16.08q-6.73-3.14-13.71-6.62-6.58-3.3-12.77-6.62C503.28,805.32,523.69,792.93,549.51,779.78Z"/><path class="cls-1" d="M283.35,302.15c15.52,9,22.34,5.22,46.58,16.08a169.61,169.61,0,0,1,26.24,14.66A67.14,67.14,0,0,0,340.33,313c-10.05-8.5-18-9.84-30-15.6a147.62,147.62,0,0,1-35.7-25.77c-7.9-7.87-20.28-22.57-28.61-46.59a76.78,76.78,0,0,0,3.78,37.13C250.93,265.34,259.78,288.43,283.35,302.15Z"/><path class="cls-1" d="M284.76,339.27c12.74,1.55,16.61-1.62,35.24-.95a159.21,159.21,0,0,1,32.15,4.5,53.94,53.94,0,0,0-17.26-12.77c-12.16-5.58-20.68-3.59-34.28-4.73-6.15-.51-28-2.9-45.88-14.66-6.68-4.4-19.9-14.77-29.08-36.65,0,6,.63,27.51,16.79,44.93C258.32,336.06,279.34,338.61,284.76,339.27Z"/><path class="cls-1" d="M297.77,368.83c11.74-2.93,15.5-7.82,26.72-10.41a55,55,0,0,1,22.93-.23,47.49,47.49,0,0,0-21.28-8.52c-14.06-1.74-19.46,4.77-40.19,6.39-8.25.64-16.89,1.24-27-1.89-13.33-4.15-22.09-12.63-26.72-18,2.66,4.75,17.41,30.17,42.56,33.81A67.58,67.58,0,0,0,297.77,368.83Z"/><path class="cls-1" d="M304.15,391.76c8.71-1.69,18.12-8.46,19.16-9.22,4.8-3.51,6.05-5.59,10.4-8a35.41,35.41,0,0,1,18.21-4.25c-6.52-2.13-15.95-4-26-1.19-10.61,3-14,9-24.36,12.3-6.24,2-15.63,3.12-28.84-1.18C276.07,383.2,289.5,394.61,304.15,391.76Z"/><path class="cls-1" d="M339.38,400.75a40.88,40.88,0,0,0,9.7-17.26,21.9,21.9,0,0,0-12.53,1.89c-6.51,3.28-6.13,8-13.24,13a30.35,30.35,0,0,1-17.5,5.44,29.36,29.36,0,0,1-13-3.31c2,2.75,7.85,10.16,17.74,12.06C325.37,415.42,336.78,403.48,339.38,400.75Z"/><path class="cls-1" d="M347.19,407.37a22.68,22.68,0,0,1-5.91,13.71c-7.87,8.34-19.23,6.79-20.34,6.62a36.35,36.35,0,0,0,20.34,4.5c4.18-.38,10.67-1,13-5.44,2-3.88-.08-8.77-1.18-11.35A22.25,22.25,0,0,0,347.19,407.37Z"/><path class="cls-1" d="M435.15,401.93c-2.6.69-5-1-9.7-4.26-4.55-3.17-7-4.87-6.85-7.09,0-.88.51-1.79,6.62-5.91,7.68-5.2,9-5.17,9.93-5,3.42.77,5.11,5.13,5.63,6.68h12.34v-13.3c-5.13-1.06-6.2-3.54-6.39-4-1.2-3.1,1.6-7.1,4.73-11.58,1-1.42,1.9-2.54,2.53-3.27-5.68.37-47.66,3.8-73.94,40.63a91.48,91.48,0,0,0-8.83,15.27,41.78,41.78,0,0,1-1.81-15.75c.41-4.73,1.61-7.95,9.46-23.17,10.74-20.82,12.7-22.94,13-29.32a38.45,38.45,0,0,0-5-20.1,39.91,39.91,0,0,0-10.64-12.06c-11.49-9.06-21.11-20-39-40.43a219.9,219.9,0,0,1-31-46.58A245.14,245.14,0,0,1,290,182.5a103.15,103.15,0,0,0-.71,39c5.1,29,21.67,48.2,26.72,53.91,19.33,21.9,34,32.16,34,32.16a52.51,52.51,0,0,1,15.85,16.55c4.59,7.8,4.92,13.6,5,15.37.12,4.53-1,7.86-3.31,13.95-6.12,16-8.37,18.55-10.64,25.53-2.07,6.39-5.13,15.83-2.6,25.78,2,7.74,6.85,13.89,12.12,18.41-9.57,33.64,2.24,64,3.25,66.47q-26.72,28.62-53.44,57.22l10.64-.23,79-95.76,10.87,10.64,36.44-45.37v-20.6H440.59C440.23,396.65,438.68,401,435.15,401.93Z"/><path class="cls-1" d="M581.51,322.33a67.31,67.31,0,0,0-15.84,19.87,169.8,169.8,0,0,1,26.25-14.66c24.24-10.86,31.05-7.05,46.58-16.08,23.56-13.72,32.41-36.81,33.57-40a76.94,76.94,0,0,0,3.79-37.13c-8.34,24-20.72,38.72-28.61,46.58a147.44,147.44,0,0,1-35.71,25.78C599.54,312.49,591.56,313.83,581.51,322.33Z"/><path class="cls-1" d="M621.24,334.63c-13.6,1.14-22.13-.85-34.29,4.73a53.94,53.94,0,0,0-17.26,12.77,159.44,159.44,0,0,1,32.16-4.5c18.62-.67,22.49,2.5,35.23.95,5.42-.66,26.44-3.21,42.32-20.33,16.16-17.42,16.81-38.94,16.79-44.93C687,305.2,673.79,315.57,667.11,320,649.23,331.73,627.38,334.11,621.24,334.63Z"/><path class="cls-1" d="M662.85,363.48c-10.06,3.12-18.71,2.53-27,1.89-20.74-1.62-26.14-8.13-40.2-6.39a47.54,47.54,0,0,0-21.28,8.52,55,55,0,0,1,22.93.23c11.22,2.59,15,7.48,26.72,10.41A67.58,67.58,0,0,0,647,379.32c25.16-3.64,39.9-29.06,42.56-33.81C684.94,350.85,676.18,359.33,662.85,363.48Z"/><path class="cls-1" d="M620.29,390.67c-10.38-3.27-13.74-9.3-24.35-12.3-10.07-2.84-19.49-.94-26,1.19a35.36,35.36,0,0,1,18.2,4.25c4.35,2.45,5.6,4.53,10.41,8,1,.76,10.44,7.53,19.15,9.22,14.66,2.85,28.08-8.56,31.45-11.58C635.93,393.79,626.53,392.63,620.29,390.67Z"/><path class="cls-1" d="M598.54,407.69c-7.12-5-6.74-9.72-13.24-13a21.94,21.94,0,0,0-12.54-1.89,40.88,40.88,0,0,0,9.7,17.26c2.61,2.73,14,14.66,28.85,11.82,9.89-1.9,15.77-9.31,17.73-12.06a29.36,29.36,0,0,1-13,3.31A30.27,30.27,0,0,1,598.54,407.69Z"/><path class="cls-1" d="M580.57,430.39a22.55,22.55,0,0,1-5.91-13.71,22.14,22.14,0,0,0-5.92,8c-1.1,2.58-3.19,7.47-1.18,11.35,2.33,4.47,8.82,5.06,13,5.44A36.33,36.33,0,0,0,600.9,437C599.79,437.18,588.43,438.73,580.57,430.39Z"/><path class="cls-1" d="M552.69,434.68c6.25-4.63,12.56-11.52,14.87-20.6,2.53-9.95-.53-19.39-2.6-25.78-2.26-7-4.52-9.56-10.64-25.53-2.33-6.09-3.42-9.42-3.31-13.95,0-1.77.37-7.57,5-15.37a52.51,52.51,0,0,1,15.84-16.55s14.71-10.26,34-32.16c5-5.71,21.61-24.95,26.72-53.91a103.56,103.56,0,0,0-.71-39A245.32,245.32,0,0,1,615.56,232a220.16,220.16,0,0,1-31,46.58c-17.9,20.4-27.53,31.37-39,40.43a40,40,0,0,0-10.64,12.06,38.37,38.37,0,0,0-5,20.1c.3,6.38,2.27,8.5,13,29.32,7.85,15.22,9,18.44,9.46,23.17A42.67,42.67,0,0,1,549.76,422,91.59,91.59,0,0,0,536.6,395.3c-26.28-36.82-68.26-40.26-73.94-40.63.63.74,1.53,1.85,2.53,3.27,3.14,4.49,5.93,8.48,4.73,11.59-.19.48-1.25,3-6.39,4v13.29h12.34c.52-1.55,2.22-5.91,5.63-6.67.9-.21,2.25-.23,9.93,5,6.11,4.13,6.57,5,6.62,5.91.14,2.22-2.3,3.93-6.85,7.1-4.74,3.3-7.1,4.94-9.7,4.25-3.53-.94-5.07-5.28-5.44-6.38H463.51v20.6L500,462l10.87-10.64,79,95.76,10.64.24Q573.72,518.72,547,490.12A112.05,112.05,0,0,0,552.69,434.68Z"/><path class="cls-1" d="M400,493.2s6-26.17,6.31-25.69,30.42,36.88,30.42,36.88l-26.64-20.18Z"/><path class="cls-1" d="M427.74,486.89c-.47-.15-7.73-10.08-7.73-10.08s36.89-48.4,36.89-47.92S427.74,486.89,427.74,486.89Z"/><path class="cls-1" d="M434.36,490.52s25.38-60.69,25.22-60.22,11.35,44,11.67,44,2-25.38,2-25.38,24,27.28,24,27.91-11.51,17.81-11.51,17.34,17.81,10.24,17.81,10.24l-35.94,19.55-16.39-53.28Z"/><path class="cls-1" d="M503.56,492.73c1.1-.16,6.94-25.23,6.94-25.23l30.42,36.89L514.6,484.06Z"/><path class="cls-1" d="M456.9,499.66c-15.58,4-28.23,7.76-37.36,10.56-8.46,2.6-15.37,4.86-15.6,8.52-.22,3.31,5.14,6.2,8.82,8.19,6.3,3.4,11.92,4.78,22.86,6.62,15.63,2.63,19.95,2.48,27.9,6,5.56,2.46,8.5,4.77,10.72,7.41,1.21,1.44,4.07,5.21,5.68,13.24,2.61,13.08-.91,23.28-.63,23.33s5.65-11.19,2.52-24.43c-.68-2.85-3.05-12.27-11.35-18.76-4.44-3.47-9.86-4.67-20.5-6.93-14.06-3-18.51-2.2-28.84-6-4.08-1.5-13.23-4.87-12.93-8.2.12-1.32,1.71-2.42,10.25-5.2,9.62-3.14,16.65-4.68,22.07-6.15a140.55,140.55,0,0,0,17-5.83Z"/><path class="cls-1" d="M457.85,504.23a130.8,130.8,0,0,0-14.51,4.89s-8.1,3.28-10.71,7.73a3.9,3.9,0,0,0-.64,2.52c.21,1.55,1.58,2.6,2.68,3.31,3.73,2.38,7.74,3,10.25,3.47,3.41.62,6.7,1.79,10.09,2.52a188.06,188.06,0,0,1,25.38,7.72c9.58,3.7,17.14,6.63,25.38,13.4a62.66,62.66,0,0,1,14.5,16.55c6.19,10.42,7.3,19.71,8,19.55s.52-8-2.37-16.24c-4.8-13.69-14.87-21.72-20.17-25.85-11.7-9.1-23.22-12.72-33.74-15.92-19-5.79-32.09-5.67-32.31-9.3-.18-3.07,8.93-6.65,11.66-7.72a40,40,0,0,1,7.89-2.21C458.79,507.18,458.32,505.71,457.85,504.23Z"/><path class="cls-1" d="M424.39,515c-.16-.37-7,.9-7.33,3.79-.07.58,0,2,3.55,4.37,8.14,5.62,18,5.48,18.08,5.08s-4.79-.54-11.7-3.78c-3.29-1.54-7.34-3.48-7.21-5.67S424.52,515.26,424.39,515Z"/><path class="cls-1" d="M472.86,538.24c-.17.27,12.72,5,20.93,18.09,8.52,13.55,6.93,27.95,7.33,27.9s2.66-14.46-5.2-27.66C487.72,542.8,473,538,472.86,538.24Z"/><path class="cls-1" d="M497.69,549.59c-.28.25,5.9,5.77,10.88,15.85,5.56,11.27,5.87,20.64,6.26,20.57s.76-10.41-4.49-21C505.5,555.15,498,549.33,497.69,549.59Z"/><path class="cls-1" d="M479.6,290.56A38,38,0,0,1,481.85,302c.07,2.09-.08,3.38-.83,4.61-1.8,3-5.7,3.35-6.5,3.43-.42,0-6.06.51-8.28-3.08-.34-.55-1.13-2.05-.47-5.91A25.11,25.11,0,0,1,471.56,289l-14.42-21.87-14.07,22.58a51.12,51.12,0,0,1,5.67,11c.73,2,1.07,3.31.59,4.73-1.16,3.47-6.15,4.28-6.73,4.37-2.78.42-6.88-.14-8.52-2.84a5.89,5.89,0,0,1-.71-3.31A117.93,117.93,0,0,1,434.56,290l-22-5.44a89.13,89.13,0,0,1,13.83,43.86l62.54.36A107,107,0,0,1,503,284.18Zm-49.23,29.92a2.43,2.43,0,1,1,2.42-2.42A2.42,2.42,0,0,1,430.37,320.48Zm12.49,1.6a3.93,3.93,0,1,1,3.92-3.93A3.93,3.93,0,0,1,442.86,322.08Zm14.54,1.71a5.71,5.71,0,1,1,5.71-5.7A5.7,5.7,0,0,1,457.4,323.79Zm15-1.71a3.93,3.93,0,1,1,3.93-3.93A3.92,3.92,0,0,1,472.41,322.08Zm12.49-1.6a2.43,2.43,0,1,1,2.42-2.42A2.42,2.42,0,0,1,484.9,320.48Z"/><path class="cls-1" d="M224,111.38q-12.36,8.53-24.24,18l-4.25-5.29,2-1.57L188.32,111l-2.07,1.65L182,107.32Q194.69,97.15,207.92,88l5.14,7.46q-3.56,2.46-7.07,5l-1.33-1.86c-2,1.47-4.08,3-6.1,4.47l2.61,3.49c1.74-1.29,3.49-2.58,5.25-3.85l3.37,4.68q-2.59,1.88-5.18,3.8l2.78,3.73c2-1.46,3.92-2.9,5.89-4.32L212,108.78q3.44-2.48,6.91-4.87Z"/><path class="cls-1" d="M233.8,104.82c-2,1.28-3.94,2.58-5.89,3.9l-5.07-7.54c2-1.35,4-2.67,6-4,2.07,1.61,4.08,1.77,6.07.51,1.44-.91,1.84-1.87,1.19-2.91a1.88,1.88,0,0,0-1.6-.87,20.47,20.47,0,0,0-4.47.56,45.56,45.56,0,0,1-6.33.89,9.69,9.69,0,0,1-4.08-.74A7,7,0,0,1,216.35,92a7.2,7.2,0,0,1-.94-6.8,11.88,11.88,0,0,1,5-5.91,12.33,12.33,0,0,1,7.41-2.16l-.92-1.49c2.14-1.32,4.29-2.63,6.45-3.91l4.12,6.94c-2.09,1.24-4.18,2.51-6.25,3.79a4.76,4.76,0,0,0-5.82-.3C224,83,223.66,84,224.3,85a1.41,1.41,0,0,0,1.27.71,39.5,39.5,0,0,0,4.66-.6,58.27,58.27,0,0,1,7-.76,8.39,8.39,0,0,1,2.1.27,10.08,10.08,0,0,1,2.09.78,7.89,7.89,0,0,1,3.29,3.08,7.73,7.73,0,0,1,.55,6.69,11.21,11.21,0,0,1-5,6,13.69,13.69,0,0,1-7.52,2.16C233.13,103.79,233.46,104.31,233.8,104.82Z"/><path class="cls-1" d="M268.3,70.66q4.26-.7,8.51-1.3a13,13,0,0,1-1,8.77c-1.37,2.84-4,5.22-7.81,7.23-5.25,2.75-9.76,3.64-13.67,2.58a14.11,14.11,0,0,1-9-6.81A13.8,13.8,0,0,1,244,69.86c1.19-4,3.92-7.12,8.16-9.37a16,16,0,0,1,9.53-2.15l-.86-1.69c2.36-1.18,4.73-2.35,7.1-3.49q2.24,4.67,4.49,9.33-3.62,1.74-7.2,3.55A5.93,5.93,0,0,0,262,64.27a5.56,5.56,0,0,0-3.54.58c-3.13,1.63-3.44,4.81-.94,9.47s5.31,6.16,8.43,4.54C268.64,77.44,269.43,74.73,268.3,70.66Z"/><path class="cls-1" d="M277.11,56.34q-1.12.51-2.25,1L272,51.24q7.62-3.57,15.34-6.84L290,50.65l-1.41.6L292.31,60a10.23,10.23,0,0,0,2.5,4,2.73,2.73,0,0,0,2.85.13,2.51,2.51,0,0,0,1.66-1.82c.17-.81-.14-2.18-.94-4.13l-3.89-9.47-1.5.62-2.6-6.27q5.69-2.35,11.41-4.55l2.43,6.34-2.37.91q1.86,4.79,3.73,9.58a14.59,14.59,0,0,1,1.18,6.45A8.79,8.79,0,0,1,304.39,67a16.66,16.66,0,0,1-6,4,23,23,0,0,1-5.79,1.68,9.72,9.72,0,0,1-4.76-.33A9.19,9.19,0,0,1,284.27,70a19.7,19.7,0,0,1-3.34-5.42Q279,60.47,277.11,56.34Z"/><path class="cls-1" d="M323.89,60.66c-3.81,1.32-7.59,2.71-11.37,4.15-.8-2.12-1.61-4.23-2.42-6.35l2.22-.83q.12-8,.46-15.92l-2.43.88L308,36.22q11-4,22.17-7.47,1,3.26,2,6.49l-2.46.76q5.13,6.14,10.09,12.37l2.17-.65c.64,2.18,1.27,4.35,1.91,6.52q-7.61,2.23-15.15,4.76l-2-5.9,2.58-.85-2.25-3q-3.78,1.26-7.55,2.58c0,1.28-.07,2.55-.1,3.82l2.4-.84Q322.86,57.72,323.89,60.66Zm-4.13-21c-.1,2.8-.19,5.59-.26,8.39q2.65-.93,5.33-1.82C323.15,44.07,321.47,41.88,319.76,39.7Z"/><path class="cls-1" d="M360.19,49.81q-6.84,1.71-13.63,3.65c-.63-2.17-1.25-4.35-1.88-6.52l2.33-.66-4-14.23-2.41.68c-.62-2.17-1.24-4.35-1.87-6.52q7.47-2.14,15-4a47.41,47.41,0,0,1,8.54-1.46,17.32,17.32,0,0,1,6.68.93,12.4,12.4,0,0,1,5.48,3.81,12.91,12.91,0,0,1,1.85,2.83,13.88,13.88,0,0,1,1.11,3.35,13.61,13.61,0,0,1-.36,6.93,12.63,12.63,0,0,1-3.21,5.4,14.64,14.64,0,0,1-4.88,3.23A72.69,72.69,0,0,1,360.19,49.81ZM355,28.89q1.79,7.17,3.59,14.33l1.1-.27c2.72-.67,4.33-1.75,4.84-3.28a9.85,9.85,0,0,0,0-5.33,12.56,12.56,0,0,0-1.37-3.49,5.08,5.08,0,0,0-2.6-2.3c-1.07-.43-2.8-.36-5.17.23Z"/><path class="cls-1" d="M400.41,41.81q-8.12,1.2-16.2,2.73L383,37.87l2.46-.46-2.67-14.53-2.54.47-1.26-6.67q8.63-1.62,17.29-2.91c1.56-.24,3-.42,4.35-.56S403.06,13,404,13s1.85,0,2.67,0a10,10,0,0,1,5.75,2.09,7,7,0,0,1,2.64,4.84,6.83,6.83,0,0,1-.82,4.11,7.45,7.45,0,0,1-3,3c1.68,2,3.33,4,5,6l2.19-.24c.23,2.25.47,4.5.7,6.75-3.6.38-7.2.79-10.8,1.26q-4-5.33-8.18-10.57c-1.26.19-2.52.37-3.77.57.24,1.58.48,3.15.73,4.73l2.29-.34C399.74,37.33,400.08,39.57,400.41,41.81Zm-5.64-21.54q.42,2.67.83,5.34l1.34-.2a31,31,0,0,0,3.55-.67,3.07,3.07,0,0,0,1.59-1,2.26,2.26,0,0,0,.46-1.82,2.31,2.31,0,0,0-.94-1.64,3.09,3.09,0,0,0-1.9-.55,30.22,30.22,0,0,0-3.82.42Z"/><path class="cls-1" d="M420.68,25A13.41,13.41,0,0,1,422,18a14.8,14.8,0,0,1,5.49-6,15.52,15.52,0,0,1,2.89-1.49,20.77,20.77,0,0,1,3.28-.94A24.69,24.69,0,0,1,437.39,9c5.77-.32,10.31,1,13.51,3.92a14.79,14.79,0,0,1,3.61,4.69A12.8,12.8,0,0,1,455.78,23a14,14,0,0,1-4.48,10.41c-3,3-7.08,4.59-12.28,4.88-5,.28-9.19-.78-12.57-3.25A13.51,13.51,0,0,1,420.68,25ZM438.58,7.8c-1.84.09-3.68.2-5.52.32,1.3-2.55,2.63-5.1,4-7.65Q442.49.17,448,0,443.18,3.85,438.58,7.8Zm-4.4,16.1c.2,3.15.67,5.24,1.4,6.3a3.21,3.21,0,0,0,3.07,1.5,3.32,3.32,0,0,0,2.91-1.77q.92-1.66.69-6.48-.21-4.66-1.29-6.3a3.32,3.32,0,0,0-3.2-1.51,3.39,3.39,0,0,0-3,1.79Q433.87,19.1,434.18,23.9Z"/><path class="cls-1" d="M472,37.35q-6.18-.14-12.37-.1,0-3.41,0-6.79h2.68V15.67h-2.78c0-2.26,0-4.52,0-6.78q7.62-.06,15.24.16,5.64,7.56,10.89,15.27c.15-2.67.29-5.35.44-8l-2.58-.13.33-6.78q6.48.31,13,.81c-.17,2.25-.34,4.51-.52,6.76l-2.75-.2q-.76,10.93-1.55,21.88c-3.29-.23-6.59-.43-9.89-.58q-5.94-8.87-12.39-17.55-.09,5-.17,10c.9,0,1.8,0,2.7.06Z"/><path class="cls-1" d="M525.89,42.07q-8.14-1.24-16.34-2.17c.25-2.25.51-4.5.76-6.75l2.45.29L513.3,29c-2.19-3.7-4.44-7.4-6.75-11.07l-2.15-.21q.32-3.37.65-6.76,8.37.81,16.72,1.92l-.9,6.73L519,19.32q1.31,3.09,2.56,6.18,2.4-2.59,4.83-5.16l-1.92-.28,1-6.72q6.14.87,12.25,1.91l-1.14,6.69-2-.33q-4.79,4.42-9.39,8.93L524.52,35l2.4.36C526.58,37.6,526.24,39.83,525.89,42.07Z"/><path class="cls-1" d="M543.32,45.11Q537.44,44,531.54,43q.56-3.34,1.12-6.69l2.3.39q4.1-6.8,8.39-13.51l-2.52-.46c.4-2.23.81-4.46,1.21-6.68q11.41,2.06,22.74,4.71-.78,3.3-1.55,6.61l-2.5-.58q1.32,7.87,2.44,15.75l2.19.54c-.55,2.2-1.09,4.39-1.64,6.59q-7.68-1.91-15.41-3.52c.42-2,.85-4.06,1.27-6.09l2.64.56c-.13-1.24-.27-2.49-.4-3.73q-3.89-.82-7.77-1.58l-2,3.25,2.47.48Zm7-20.18c-1.5,2.37-3,4.74-4.45,7.12,1.82.36,3.65.73,5.47,1.11C551,30.42,550.69,27.67,550.34,24.93Z"/><path class="cls-1" d="M581.53,54.48q-7.66-2.26-15.4-4.23l1.68-6.58,2.25.58q1.88-7.16,3.73-14.3l-2.37-.61,1.68-6.58q8.26,2.11,16.49,4.54-1,3.25-1.93,6.5l-2-.57c-.41,1.38-.81,2.77-1.21,4.15q3.51,1,7,2.1c.42-1.37.85-2.75,1.27-4.13l-2-.6,2-6.5q8.19,2.49,16.29,5.3L606.85,40l-2.29-.78q-2.37,7-4.76,14l2.21.76-2.22,6.41q-7.59-2.62-15.26-5l2-6.49,1.91.58c.45-1.48.91-3,1.37-4.44Q586.34,44,582.87,43c-.44,1.48-.87,3-1.3,4.46l1.89.56Q582.5,51.22,581.53,54.48Z"/><path class="cls-1" d="M608.61,48.34a13.2,13.2,0,0,1,4.15-5.81,15,15,0,0,1,7.62-3.11,15.7,15.7,0,0,1,3.28-.1,21.15,21.15,0,0,1,3.42.56,25.81,25.81,0,0,1,3.68,1.2c5.44,2.2,9,5.39,10.77,9.39a15.23,15.23,0,0,1,1.33,5.82,12.72,12.72,0,0,1-1.16,5.45,13.89,13.89,0,0,1-8.57,7.47c-4.07,1.4-8.49,1.08-13.39-.91s-8.11-4.66-10.16-8.35A13.41,13.41,0,0,1,608.61,48.34Zm12.84,4.82c-1.16,2.94-1.62,5-1.4,6.31a3.24,3.24,0,0,0,2.18,2.67,3.38,3.38,0,0,0,3.43-.33c1-.75,2.17-2.6,3.41-5.56s1.69-5,1.5-6.27a3.4,3.4,0,0,0-2.3-2.74,3.44,3.44,0,0,0-3.5.33C623.73,48.31,622.62,50.18,621.45,53.16Z"/><path class="cls-1" d="M646,79.49c-2.08-1-4.16-2-6.26-3l3.84-8.24c2.14,1,4.27,2,6.4,3-.32,2.59.55,4.39,2.63,5.43,1.5.75,2.52.59,3.07-.5a1.9,1.9,0,0,0-.06-1.82,21.07,21.07,0,0,0-2.74-3.51,43.67,43.67,0,0,1-4-4.93,9.38,9.38,0,0,1-1.42-3.85,7.11,7.11,0,0,1,.59-4.16,7.21,7.21,0,0,1,5.29-4.34,11.44,11.44,0,0,1,7.51,1.17,12.11,12.11,0,0,1,5.6,5.2l.8-1.56c2.22,1.14,4.42,2.3,6.63,3.48L670.09,69c-2.14-1.14-4.28-2.27-6.43-3.37A4.71,4.71,0,0,0,661,60.55c-1.43-.71-2.41-.54-2.93.52a1.44,1.44,0,0,0,0,1.46A39.73,39.73,0,0,0,661,66.18a57.94,57.94,0,0,1,4.23,5.61,7.75,7.75,0,0,1,.84,1.94,9.44,9.44,0,0,1,.41,2.19,7.87,7.87,0,0,1-.94,4.4,7.72,7.72,0,0,1-5.43,3.94,11,11,0,0,1-7.64-1.15,13.34,13.34,0,0,1-5.64-5.29Z"/><path class="cls-1" d="M679.67,97.85q-7.23-4.38-14.6-8.44l3.28-6,2.1,1.17,7.21-12.9-2.23-1.24,3.27-5.95q7.89,4.35,15.64,9l-3.51,5.81-2.22-1.34L681,90.75,683.18,92Zm16.41,10.47q-6.75-4.53-13.63-8.77L686,93.77c.44.26.87.53,1.3.8q-.82-5.26-1.79-10.55c3.5-.51,7-1,10.57-1.39l-2.27-1.41,3.56-5.78q7,4.31,13.85,8.89L707.45,90l-2.13-1.42q-4.29.39-8.54.88,1,6.19,1.76,12.36l1.32.88Z"/><path class="cls-1" d="M707.42,116.2q-5.08-3.66-10.24-7.14c1.27-1.87,2.53-3.75,3.8-5.63l2,1.37q6.64-4.41,13.44-8.66l-2.18-1.53L718.12,89q9.92,6.9,19.55,14.4l-4.17,5.36c-.7-.56-1.41-1.1-2.12-1.65q-2,7.8-4.14,15.52l1.86,1.48-4.25,5.29q-6.48-5.19-13.13-10.11l3.69-5,2.26,1.68c.39-1.19.77-2.39,1.15-3.59q-3.33-2.48-6.69-4.88l-3.22,2.08,2.14,1.53Zm14.88-15.35c-2.38,1.5-4.76,3-7.11,4.54q2.37,1.71,4.71,3.44Q721.13,104.86,722.3,100.85Z"/></g></g></svg>