<svg xmlns="http://www.w3.org/2000/svg" viewBox="0 0 992.13 992.13"><defs><style>.cls-1{fill:#222322;}.cls-2{fill:#000201;}.cls-3{fill:#fff;}</style></defs><g id="Capa_2" data-name="Capa 2"><g id="Capa_1-2" data-name="Capa 1"><path class="cls-1" d="M496.06,992.13A496.19,496.19,0,0,1,303,39,496.19,496.19,0,0,1,689.16,953.14,493,493,0,0,1,496.06,992.13Z"/><circle class="cls-2" cx="496.06" cy="496.06" r="482.94"/><path class="cls-3" d="M641.08,204.34A974.18,974.18,0,0,0,499.21,167.9a1257.36,1257.36,0,0,0-272.4,94.37q.48,140.63.95,281.25a561.34,561.34,0,0,0,86.07,159.79c64.76,84,139.27,131.3,185.08,155.61A570.68,570.68,0,0,0,771.6,546.33V259.47A971.36,971.36,0,0,0,641.08,204.34ZM748,542.24a558.36,558.36,0,0,1-41.25,87.29,545.25,545.25,0,0,1-85.29,110.63A550.37,550.37,0,0,1,499,832.29a558.54,558.54,0,0,1-70.83-47.09,542.63,542.63,0,0,1-95.52-96,537.31,537.31,0,0,1-81.25-149.58l-.88-262.64c33.94-15.82,68.88-30.22,104-42.86a1239.51,1239.51,0,0,1,145.19-42.36A949.43,949.43,0,0,1,748,273.79Z"/><path class="cls-3" d="M409.35,852.6c-10.88-5.54-20.44-10.06-29.05-13.87-1.91-14.69-8.66-26.63-14-35.79-16.18-27.83-39.52-45.07-51.07-53.43-13.56-9.82-22.33-13.7-35-27a140.78,140.78,0,0,1-19.86-26.48,206.35,206.35,0,0,0,38.17,110.3l-2.23-1.06a307,307,0,0,1-32.74-18.38c1.39-6.7,1.19-17.12-4.15-34.59-3.26-10.67-9.35-27-35.46-66.68-16.54-25.13-21.93-30.52-32.16-49.65a320.1,320.1,0,0,1-16.08-35,243.16,243.16,0,0,0,10.39,117.06c-5.28-6.26-9.52-11.69-12.75-15.85-5.73-7.38-11-14.72-15.78-22,1.69-7.23,1.85-17.29,2.06-30.55.15-9.48-.24-24.78-5.67-54.38-6.06-33-9.69-36.48-11.35-54.86a162,162,0,0,1,4.25-53.43,131.58,131.58,0,0,0-39.07,82.59,336.34,336.34,0,0,1-7.1-38.2c11.74-10.86,22.1-37.73,28.68-54.8,11.72-30.43,10.2-42.11,21.75-72.35a284.08,284.08,0,0,1,25.06-50.13,106.92,106.92,0,0,0-36.41,19.39c-20.59,17-29.63,38.28-35.64,49.18a364.35,364.35,0,0,1,9.63-39.25c3.82-4.64,9.42-11.75,15.61-20.81,14.08-20.62,18.95-33.46,35-67.62,23.29-49.63,31-60.79,37.36-69.05a212.64,212.64,0,0,1,26.48-28.37c-16.13,5.34-54.72,20.54-85.59,59.58-39.86,50.41-39.41,105.87-38.78,121.07a349.37,349.37,0,0,0-10.73,35.37c-.66-6.94-1.22-16.87-1.57-31.12-.6-24.8.14-35.51-.47-53.91-.64-19.29-2.35-35.12-3.78-45.87A420.09,420.09,0,0,0,59.88,379.7c-9.48,60.88-1,96,2.84,109.24s11.18,39.23,22.56,45.77a370.56,370.56,0,0,0,9.85,53.08,243.94,243.94,0,0,1-14.44-22.24c-8.78-15.29-11.81-24.42-24.12-49.18-7.47-15-14-27.09-18.44-35a367.73,367.73,0,0,0,9.45,91.27c8.7,37.25,17.85,74.21,49.19,100.26,11.88,9.87,32.82,23.06,47.08,21.32a458.92,458.92,0,0,0,32.4,40.46,364.2,364.2,0,0,0-38.34-18.75,363.73,363.73,0,0,0-54.86-18,343.2,343.2,0,0,0,48.24,64.31C160.59,793,181.17,803,191.35,807.2c26.66,11.11,40.72,7.41,45.87,5.68A47,47,0,0,0,253.11,804c12.53,9.1,26.06,18,40.6,26.49-8.92-.47-18.47-.58-28.59-.15A300,300,0,0,0,197,841.25a256.9,256.9,0,0,0,56.28,35.94c18.73,8.75,42.61,19.58,73.77,18.44,13.82-.5,30.54-1.35,42.09-13.71a38.42,38.42,0,0,0,6.92-10.48c6.68,2.77,16,6.6,29.49,12.37,15.67,6.69,28.44,12.32,36.89,16.08q6.72-3.14,13.71-6.62,6.58-3.3,12.77-6.62C455.58,878.14,435.18,865.75,409.35,852.6Z"/><path class="cls-3" d="M587.56,852.6c10.88-5.54,20.44-10.06,29.05-13.87,1.91-14.69,8.66-26.63,14-35.79,16.17-27.83,39.52-45.07,51.07-53.43,13.56-9.82,22.33-13.7,35-27a140.91,140.91,0,0,0,19.87-26.48,206.26,206.26,0,0,1-38.18,110.3l2.23-1.06a306,306,0,0,0,32.74-18.38c-1.39-6.7-1.19-17.12,4.15-34.59,3.26-10.67,9.35-27,35.47-66.68,16.53-25.13,21.93-30.52,32.16-49.65a320.1,320.1,0,0,0,16.08-35,243,243,0,0,1-10.4,117.06c5.28-6.26,9.53-11.69,12.76-15.85,5.72-7.38,11-14.72,15.78-22-1.69-7.23-1.86-17.29-2.07-30.55-.15-9.48.25-24.78,5.68-54.38,6.05-33,9.69-36.48,11.35-54.86A162.27,162.27,0,0,0,850,487.05a131.53,131.53,0,0,1,39.08,82.59,338.56,338.56,0,0,0,7.1-38.2c-11.75-10.86-22.1-37.73-28.68-54.8-11.73-30.43-10.21-42.11-21.75-72.35a284,284,0,0,0-25.07-50.13,107,107,0,0,1,36.42,19.39c20.58,17,29.62,38.28,35.64,49.18a366.75,366.75,0,0,0-9.63-39.25c-3.82-4.64-9.42-11.75-15.61-20.81-14.08-20.62-19-33.46-35-67.62-23.29-49.63-30.95-60.79-37.35-69.05a212.59,212.59,0,0,0-26.49-28.37c16.13,5.34,54.73,20.54,85.6,59.58,39.86,50.41,39.4,105.87,38.78,121.07a349.37,349.37,0,0,1,10.73,35.37c.65-6.94,1.22-16.87,1.56-31.12.6-24.8-.13-35.51.47-53.91.64-19.29,2.36-35.12,3.79-45.87A420.09,420.09,0,0,1,937,379.7c9.47,60.88.94,96-2.84,109.24S923,528.17,911.63,534.71a367.81,367.81,0,0,1-9.85,53.08,244.32,244.32,0,0,0,14.45-22.24c8.78-15.29,11.8-24.42,24.12-49.18,7.47-15,14-27.09,18.44-35a367.65,367.65,0,0,1-9.46,91.27c-8.7,37.25-17.84,74.21-49.18,100.26-11.88,9.87-32.83,23.06-47.08,21.32a462.65,462.65,0,0,1-32.4,40.46A363.42,363.42,0,0,1,913.86,698a343.22,343.22,0,0,1-48.23,64.31C836.32,793,815.74,803,805.57,807.2c-26.67,11.11-40.72,7.41-45.87,5.68A47,47,0,0,1,743.81,804c-12.54,9.1-26.06,18-40.6,26.49,8.91-.47,18.46-.58,28.59-.15a299.92,299.92,0,0,1,68.09,10.88,256.64,256.64,0,0,1-56.27,35.94c-18.73,8.75-42.62,19.58-73.77,18.44-13.83-.5-30.54-1.35-42.09-13.71a38.47,38.47,0,0,1-6.93-10.48c-6.67,2.77-16,6.6-29.49,12.37-15.66,6.69-28.43,12.32-36.88,16.08q-6.74-3.14-13.72-6.62-6.57-3.3-12.76-6.62C541.33,878.14,561.74,865.75,587.56,852.6Z"/><path class="cls-3" d="M321.39,375c15.53,9,22.35,5.22,46.58,16.08a169.8,169.8,0,0,1,26.25,14.66,67.31,67.31,0,0,0-15.84-19.87c-10.05-8.5-18-9.84-30-15.6a147.62,147.62,0,0,1-35.7-25.77c-7.9-7.87-20.28-22.57-28.62-46.59A76.94,76.94,0,0,0,287.82,335C289,338.16,297.83,361.25,321.39,375Z"/><path class="cls-3" d="M322.81,412.09c12.74,1.55,16.61-1.62,35.23-.95a159.32,159.32,0,0,1,32.16,4.5,53.94,53.94,0,0,0-17.26-12.77c-12.16-5.58-20.68-3.59-34.29-4.73-6.14-.51-28-2.9-45.87-14.66-6.68-4.4-19.9-14.77-29.08-36.65,0,6,.63,27.51,16.79,44.93C296.37,408.88,317.39,411.43,322.81,412.09Z"/><path class="cls-3" d="M335.82,441.65c11.74-2.93,15.5-7.82,26.72-10.41a55,55,0,0,1,22.93-.23,47.54,47.54,0,0,0-21.28-8.52c-14.06-1.74-19.46,4.77-40.2,6.39-8.24.64-16.89,1.24-26.95-1.89-13.33-4.15-22.09-12.63-26.72-18,2.66,4.75,17.4,30.17,42.56,33.81A67.58,67.58,0,0,0,335.82,441.65Z"/><path class="cls-3" d="M342.2,464.58c8.71-1.69,18.12-8.46,19.15-9.22,4.81-3.51,6.06-5.59,10.41-8a35.36,35.36,0,0,1,18.2-4.25c-6.51-2.13-15.94-4-26-1.19-10.61,3-14,9-24.36,12.3-6.24,2-15.64,3.12-28.85-1.18C314.12,456,327.55,467.43,342.2,464.58Z"/><path class="cls-3" d="M377.43,473.57a40.88,40.88,0,0,0,9.7-17.26,21.9,21.9,0,0,0-12.53,1.89c-6.51,3.28-6.13,8-13.25,13a30.27,30.27,0,0,1-17.49,5.44,29.36,29.36,0,0,1-13-3.31c2,2.75,7.85,10.16,17.74,12.06C363.41,488.24,374.83,476.3,377.43,473.57Z"/><path class="cls-3" d="M385.24,480.19a22.65,22.65,0,0,1-5.92,13.71c-7.86,8.34-19.22,6.79-20.33,6.62a36.33,36.33,0,0,0,20.33,4.5c4.19-.38,10.68-1,13-5.44,2-3.88-.08-8.77-1.18-11.35A22.25,22.25,0,0,0,385.24,480.19Z"/><path class="cls-3" d="M473.2,474.75c-2.6.69-5-1-9.7-4.26-4.55-3.17-7-4.87-6.86-7.09.06-.88.52-1.79,6.62-5.91,7.69-5.2,9-5.17,9.94-5,3.41.77,5.11,5.13,5.63,6.68h12.34V445.9c-5.14-1.06-6.2-3.54-6.39-4-1.2-3.1,1.59-7.1,4.73-11.58A40.67,40.67,0,0,1,492,427c-5.68.37-47.66,3.8-73.94,40.63a92.25,92.25,0,0,0-8.84,15.27,41.81,41.81,0,0,1-1.8-15.75c.41-4.73,1.61-7.95,9.46-23.17,10.74-20.82,12.7-22.94,13-29.32a38.45,38.45,0,0,0-5-20.1,39.91,39.91,0,0,0-10.64-12.06c-11.49-9.06-21.12-20-39-40.43a220.16,220.16,0,0,1-31-46.58A245.32,245.32,0,0,1,328,255.32a103.39,103.39,0,0,0-.7,39c5.1,29,21.67,48.2,26.71,53.91,19.34,21.9,34.05,32.16,34.05,32.16A52.62,52.62,0,0,1,403.92,397c4.59,7.8,4.92,13.6,5,15.37.12,4.53-1,7.86-3.31,13.95-6.12,16-8.37,18.55-10.64,25.53-2.07,6.39-5.13,15.83-2.6,25.78,2,7.74,6.85,13.89,12.12,18.41-9.57,33.64,2.23,64,3.25,66.47Q381,591.09,354.26,619.69l10.64-.23,79-95.76,10.87,10.64L491.19,489v-20.6H478.63C478.27,469.47,476.73,473.81,473.2,474.75Z"/><path class="cls-3" d="M619.56,395.15A67.31,67.31,0,0,0,603.72,415,170.1,170.1,0,0,1,630,400.36c24.24-10.86,31.06-7.05,46.59-16.08,23.56-13.72,32.41-36.81,33.57-40a76.78,76.78,0,0,0,3.78-37.13c-8.33,24-20.71,38.72-28.61,46.58a147.5,147.5,0,0,1-35.7,25.78C637.59,385.31,629.61,386.65,619.56,395.15Z"/><path class="cls-3" d="M659.28,407.45c-13.6,1.14-22.12-.85-34.28,4.73A53.94,53.94,0,0,0,607.74,425a159.32,159.32,0,0,1,32.16-4.5c18.62-.67,22.49,2.5,35.23.95,5.42-.66,26.44-3.21,42.32-20.33,16.16-17.42,16.81-38.94,16.79-44.93-9.18,21.88-22.4,32.25-29.08,36.65C687.28,404.55,665.43,406.93,659.28,407.45Z"/><path class="cls-3" d="M700.9,436.3c-10.06,3.12-18.71,2.53-27,1.89-20.73-1.62-26.13-8.13-40.19-6.39a47.54,47.54,0,0,0-21.28,8.52,55,55,0,0,1,22.93.23c11.22,2.59,15,7.48,26.72,10.41a67.58,67.58,0,0,0,22.94,1.18c25.16-3.64,39.9-29.06,42.56-33.81C723,423.67,714.23,432.15,700.9,436.3Z"/><path class="cls-3" d="M658.34,463.49c-10.38-3.27-13.75-9.3-24.36-12.3-10.06-2.84-19.49-.94-26,1.19a35.39,35.39,0,0,1,18.21,4.25c4.35,2.45,5.6,4.53,10.41,8,1,.76,10.44,7.53,19.15,9.22,14.65,2.85,28.08-8.56,31.45-11.58C674,466.61,664.58,465.45,658.34,463.49Z"/><path class="cls-3" d="M636.59,480.51c-7.12-5-6.74-9.72-13.25-13a21.9,21.9,0,0,0-12.53-1.89,40.88,40.88,0,0,0,9.7,17.26c2.6,2.73,14,14.66,28.84,11.82,9.89-1.9,15.78-9.31,17.74-12.06a29.36,29.36,0,0,1-13,3.31A30.27,30.27,0,0,1,636.59,480.51Z"/><path class="cls-3" d="M618.61,503.21a22.68,22.68,0,0,1-5.91-13.71,22.25,22.25,0,0,0-5.91,8c-1.1,2.58-3.19,7.47-1.18,11.35,2.33,4.47,8.82,5.06,13,5.44a36.35,36.35,0,0,0,20.34-4.5C637.84,510,626.48,511.55,618.61,503.21Z"/><path class="cls-3" d="M590.73,507.5c6.26-4.63,12.57-11.52,14.88-20.6,2.53-9.95-.53-19.39-2.6-25.78-2.27-7-4.52-9.56-10.64-25.53-2.33-6.09-3.43-9.42-3.31-13.95,0-1.77.37-7.57,5-15.37a52.51,52.51,0,0,1,15.85-16.55s14.71-10.26,34-32.16c5-5.71,21.61-24.95,26.71-53.91a103.15,103.15,0,0,0-.71-39,245.14,245.14,0,0,1-16.31,40.2,219.9,219.9,0,0,1-31,46.58c-17.9,20.4-27.52,31.37-39,40.43A39.91,39.91,0,0,0,573,403.9a38.45,38.45,0,0,0-5,20.1c.31,6.38,2.27,8.5,13,29.32,7.85,15.22,9.05,18.44,9.46,23.17a42.82,42.82,0,0,1-2.67,18.31,91.63,91.63,0,0,0-13.17-26.68c-26.27-36.82-68.25-40.26-73.93-40.63.63.74,1.53,1.85,2.53,3.27,3.13,4.49,5.93,8.48,4.73,11.59-.19.48-1.26,2.95-6.39,4v13.29h12.34c.52-1.55,2.21-5.91,5.63-6.67.9-.21,2.25-.23,9.93,5,6.11,4.13,6.57,5,6.62,5.91.14,2.22-2.3,3.93-6.85,7.1-4.74,3.3-7.11,4.94-9.7,4.25-3.53-.94-5.08-5.28-5.44-6.38H501.56v20.6Q519.79,512.11,538,534.8l10.88-10.64,79,95.76,10.64.24-53.44-57.22A112.11,112.11,0,0,0,590.73,507.5Z"/><path class="cls-3" d="M438,566s6-26.17,6.31-25.69,30.42,36.88,30.42,36.88L448.13,557Z"/><path class="cls-3" d="M465.79,559.71c-.48-.15-7.73-10.08-7.73-10.08S495,501.23,495,501.71,465.79,559.71,465.79,559.71Z"/><path class="cls-3" d="M472.41,563.34s25.38-60.69,25.22-60.22,11.35,44,11.66,44,2-25.38,2-25.38,24,27.28,24,27.91S523.8,567.44,523.8,567s17.81,10.24,17.81,10.24l-35.94,19.55-16.4-53.28Z"/><path class="cls-3" d="M541.61,565.55c1.1-.16,6.93-25.23,6.93-25.23L579,577.21l-26.33-20.33Z"/><path class="cls-3" d="M495,572.48c-15.58,4-28.23,7.76-37.36,10.56-8.46,2.6-15.37,4.86-15.61,8.52-.21,3.31,5.15,6.2,8.83,8.19,6.29,3.4,11.92,4.78,22.86,6.62,15.62,2.63,19.95,2.48,27.9,6,5.56,2.46,8.5,4.77,10.72,7.41,1.21,1.44,4.06,5.21,5.67,13.24,2.62,13.08-.9,23.28-.63,23.33s5.66-11.19,2.53-24.43c-.68-2.85-3.05-12.27-11.35-18.76-4.45-3.47-9.86-4.67-20.5-6.93-14.07-3-18.51-2.2-28.84-6-4.08-1.5-13.23-4.87-12.93-8.2.12-1.32,1.7-2.42,10.25-5.2,9.62-3.14,16.65-4.68,22.07-6.15a141.14,141.14,0,0,0,17-5.83Z"/><path class="cls-3" d="M495.9,577.05a130.8,130.8,0,0,0-14.51,4.89s-8.11,3.28-10.72,7.73a3.88,3.88,0,0,0-.63,2.52c.21,1.55,1.58,2.6,2.68,3.31,3.73,2.38,7.74,3,10.25,3.47,3.41.62,6.7,1.79,10.09,2.52a188.58,188.58,0,0,1,25.38,7.72c9.58,3.7,17.14,6.63,25.38,13.4a62.66,62.66,0,0,1,14.5,16.55c6.19,10.42,7.3,19.71,8,19.55s.52-8-2.37-16.24c-4.8-13.69-14.87-21.72-20.17-25.85-11.71-9.1-23.23-12.72-33.74-15.92-19-5.79-32.1-5.67-32.31-9.3-.19-3.07,8.93-6.65,11.66-7.72a39.92,39.92,0,0,1,7.88-2.21Z"/><path class="cls-3" d="M462.44,587.77c-.16-.37-7,.9-7.33,3.79-.07.58,0,2,3.54,4.37,8.14,5.62,18,5.48,18.09,5.08s-4.79-.54-11.7-3.78c-3.29-1.54-7.34-3.48-7.21-5.67S462.57,588.08,462.44,587.77Z"/><path class="cls-3" d="M510.91,611.06c-.17.27,12.71,5,20.93,18.09,8.51,13.55,6.92,28,7.33,27.9s2.65-14.46-5.21-27.66C525.76,615.62,511.09,610.79,510.91,611.06Z"/><path class="cls-3" d="M535.74,622.41c-.29.25,5.9,5.77,10.87,15.85,5.57,11.27,5.88,20.64,6.27,20.57s.76-10.41-4.49-21.05C543.54,628,536,622.15,535.74,622.41Z"/><path class="cls-3" d="M517.65,363.38a37.65,37.65,0,0,1,2.24,11.47c.07,2.09-.08,3.38-.82,4.61-1.8,3-5.7,3.35-6.51,3.43-.41,0-6,.51-8.27-3.08-.34-.55-1.13-2.05-.47-5.91a25.11,25.11,0,0,1,5.79-12.06Q502.4,350.91,495.19,340l-14.07,22.58a51.59,51.59,0,0,1,5.67,11c.73,2,1.07,3.31.59,4.73-1.16,3.47-6.15,4.28-6.74,4.37-2.77.42-6.87-.14-8.51-2.84a5.81,5.81,0,0,1-.71-3.31,119.65,119.65,0,0,1,1.18-13.71l-22-5.44a88.9,88.9,0,0,1,9.23,19.27,89.82,89.82,0,0,1,4.61,24.59l62.54.36A106.57,106.57,0,0,1,541.06,357ZM468.42,393.3a2.43,2.43,0,1,1,2.42-2.42A2.42,2.42,0,0,1,468.42,393.3Zm12.48,1.6a3.93,3.93,0,1,1,3.93-3.93A3.93,3.93,0,0,1,480.9,394.9Zm14.55,1.71a5.71,5.71,0,1,1,5.71-5.7A5.7,5.7,0,0,1,495.45,396.61Zm15-1.71a3.93,3.93,0,1,1,3.93-3.93A3.92,3.92,0,0,1,510.46,394.9ZM523,393.3a2.43,2.43,0,1,1,2.42-2.42A2.42,2.42,0,0,1,523,393.3Z"/><path class="cls-3" d="M262.05,184.2q-12.36,8.53-24.23,18l-4.25-5.29,2-1.57-9.17-11.59-2.07,1.65-4.25-5.29Q232.74,170,246,160.85l5.14,7.47q-3.56,2.46-7.07,5l-1.33-1.86q-3.08,2.2-6.1,4.47l2.61,3.49c1.74-1.29,3.49-2.58,5.25-3.85l3.37,4.68q-2.59,1.88-5.18,3.8l2.78,3.73c1.95-1.46,3.92-2.9,5.89-4.32-.45-.61-.89-1.23-1.33-1.85q3.44-2.47,6.91-4.87Z"/><path class="cls-3" d="M271.85,177.64c-2,1.28-3.94,2.58-5.89,3.9q-2.54-3.76-5.08-7.54,3-2,6-4c2.07,1.6,4.08,1.77,6.07.51,1.43-.91,1.83-1.87,1.19-2.91a1.91,1.91,0,0,0-1.6-.88,21.38,21.38,0,0,0-4.47.57,45.56,45.56,0,0,1-6.33.89,9.66,9.66,0,0,1-4.08-.74,6.92,6.92,0,0,1-3.28-2.64,7.17,7.17,0,0,1-.94-6.8,11.83,11.83,0,0,1,5-5.91,12.33,12.33,0,0,1,7.41-2.16l-.92-1.49c2.14-1.32,4.29-2.63,6.45-3.91l4.12,6.94c-2.09,1.24-4.18,2.51-6.25,3.79a4.76,4.76,0,0,0-5.82-.3c-1.37.86-1.73,1.8-1.09,2.79a1.41,1.41,0,0,0,1.27.71,39.44,39.44,0,0,0,4.65-.6,58.67,58.67,0,0,1,7-.76,8.28,8.28,0,0,1,2.1.27,10.18,10.18,0,0,1,2.1.78,7.86,7.86,0,0,1,3.28,3.08,7.7,7.7,0,0,1,.56,6.69,11.25,11.25,0,0,1-5,6,13.69,13.69,0,0,1-7.52,2.16C271.18,176.61,271.51,177.13,271.85,177.64Z"/><path class="cls-3" d="M306.34,143.47q4.28-.69,8.52-1.29a13.11,13.11,0,0,1-1,8.77c-1.37,2.84-4,5.22-7.81,7.23-5.25,2.75-9.76,3.64-13.67,2.58a14.11,14.11,0,0,1-9-6.81,13.76,13.76,0,0,1-1.34-11.27,15.66,15.66,0,0,1,8.15-9.37,16,16,0,0,1,9.53-2.14c-.28-.57-.56-1.13-.85-1.7,2.36-1.19,4.72-2.35,7.1-3.49q2.24,4.67,4.49,9.33-3.62,1.74-7.2,3.55a5.93,5.93,0,0,0-3.27-1.77,5.56,5.56,0,0,0-3.54.58c-3.13,1.64-3.44,4.81-.94,9.46s5.31,6.17,8.42,4.55C306.69,150.26,307.48,147.55,306.34,143.47Z"/><path class="cls-3" d="M315.16,129.16l-2.26,1.05L310,124.06q7.62-3.57,15.33-6.84,1.33,3.12,2.65,6.25l-1.4.6q1.88,4.4,3.76,8.79a10.44,10.44,0,0,0,2.49,4,2.73,2.73,0,0,0,2.85.13,2.5,2.5,0,0,0,1.67-1.82c.17-.8-.14-2.18-.94-4.13q-1.95-4.74-3.89-9.47l-1.5.62q-1.31-3.14-2.6-6.27,5.67-2.36,11.41-4.55l2.43,6.34-2.37.91q1.86,4.78,3.73,9.58a14.59,14.59,0,0,1,1.18,6.45,8.81,8.81,0,0,1-2.39,5.14,16.49,16.49,0,0,1-6,4,22.84,22.84,0,0,1-5.78,1.68,9.72,9.72,0,0,1-4.76-.33,9.11,9.11,0,0,1-3.59-2.32,19.68,19.68,0,0,1-3.35-5.42Z"/><path class="cls-3" d="M361.93,133.48c-3.8,1.32-7.59,2.71-11.36,4.14q-1.2-3.17-2.42-6.34l2.21-.84q.13-7.93.47-15.91l-2.43.88L346.06,109q11-4,22.16-7.47c.67,2.16,1.34,4.33,2,6.49l-2.46.76q5.14,6.14,10.09,12.37l2.17-.65,1.92,6.52q-7.62,2.24-15.15,4.76l-2-5.9,2.57-.85c-.74-1-1.49-2-2.24-3q-3.78,1.26-7.55,2.58c0,1.27-.07,2.55-.1,3.82l2.39-.84Q360.92,130.54,361.93,133.48Zm-4.12-21c-.1,2.8-.19,5.59-.26,8.39,1.77-.62,3.55-1.23,5.32-1.82Q360.37,115.79,357.81,112.52Z"/><path class="cls-3" d="M398.24,122.63q-6.84,1.71-13.64,3.65c-.62-2.17-1.24-4.35-1.87-6.52l2.33-.66-4-14.23-2.41.68L376.79,99q7.47-2.15,15-4a47.64,47.64,0,0,1,8.55-1.46,17.24,17.24,0,0,1,6.67.93,12.37,12.37,0,0,1,5.49,3.81,12.91,12.91,0,0,1,1.85,2.83,13.88,13.88,0,0,1,1.11,3.35,13.61,13.61,0,0,1-.36,6.93,12.77,12.77,0,0,1-3.21,5.4A14.74,14.74,0,0,1,407,120,72.69,72.69,0,0,1,398.24,122.63ZM393,101.71l3.6,14.33,1.09-.27c2.73-.67,4.34-1.75,4.85-3.28a9.85,9.85,0,0,0,.05-5.33,12.87,12.87,0,0,0-1.37-3.49,5.12,5.12,0,0,0-2.6-2.3c-1.07-.43-2.8-.36-5.17.23Z"/><path class="cls-3" d="M438.46,114.63q-8.11,1.2-16.2,2.73L421,110.69l2.46-.46L420.79,95.7l-2.54.47L417,89.5q8.63-1.62,17.29-2.91c1.56-.24,3-.42,4.34-.56s2.49-.22,3.45-.26a25.7,25.7,0,0,1,2.66,0,9.88,9.88,0,0,1,5.76,2.08,7,7,0,0,1,2.64,4.84,6.83,6.83,0,0,1-.82,4.11,7.57,7.57,0,0,1-3,3c1.68,2,3.33,4,5,6l2.19-.23q.35,3.38.7,6.75c-3.61.38-7.21.79-10.8,1.26q-4-5.32-8.18-10.57c-1.26.19-2.52.37-3.77.57.24,1.58.48,3.15.73,4.73l2.29-.34Q438,111.27,438.46,114.63Zm-5.64-21.54c.28,1.78.55,3.56.83,5.34l1.34-.2a31,31,0,0,0,3.55-.67,3.11,3.11,0,0,0,1.59-1,2.51,2.51,0,0,0-.48-3.46,3.09,3.09,0,0,0-1.9-.55,31.62,31.62,0,0,0-3.82.41Z"/><path class="cls-3" d="M458.73,97.8a13.31,13.31,0,0,1,1.27-7,14.8,14.8,0,0,1,5.49-6.05,15.22,15.22,0,0,1,2.89-1.49,20.77,20.77,0,0,1,3.28-.94,26,26,0,0,1,3.78-.49c5.77-.31,10.3,1,13.51,3.93a14.93,14.93,0,0,1,3.61,4.69,12.6,12.6,0,0,1,1.26,5.42,14,14,0,0,1-4.48,10.41c-3,3-7.07,4.59-12.27,4.88-5,.28-9.19-.78-12.57-3.25A13.51,13.51,0,0,1,458.73,97.8Zm17.9-17.18c-1.84.1-3.68.2-5.52.32q2-3.82,4-7.65,5.46-.3,10.92-.47Q481.23,76.68,476.63,80.62Zm-4.4,16.1q.3,4.73,1.4,6.3a3.2,3.2,0,0,0,3.07,1.5,3.32,3.32,0,0,0,2.91-1.77c.6-1.11.84-3.27.69-6.48s-.57-5.21-1.29-6.3a3.34,3.34,0,0,0-3.2-1.51,3.39,3.39,0,0,0-3,1.79Q471.92,91.92,472.23,96.72Z"/><path class="cls-3" d="M510.05,110.17q-6.19-.14-12.37-.1c0-2.27,0-4.53-.05-6.79h2.69V88.49h-2.78c0-2.26,0-4.52,0-6.78q7.62-.06,15.24.16,5.64,7.56,10.89,15.27c.15-2.67.29-5.35.43-8L521.49,89l.33-6.78c4.32.21,8.64.47,12.95.81-.17,2.25-.35,4.51-.52,6.76l-2.75-.2q-.78,10.93-1.55,21.88c-3.29-.23-6.59-.43-9.9-.58q-5.92-8.86-12.39-17.54c-.05,3.32-.11,6.65-.16,10l2.7,0Z"/><path class="cls-3" d="M563.94,114.89q-8.16-1.24-16.35-2.17c.26-2.25.51-4.5.77-6.75l2.45.29c.18-1.49.36-3,.53-4.48-2.18-3.7-4.43-7.4-6.74-11.07l-2.15-.21.64-6.76q8.38.81,16.73,1.92l-.9,6.73L557,92.14q1.31,3.09,2.56,6.18c1.59-1.73,3.21-3.45,4.83-5.16l-1.92-.28,1-6.72q6.13.87,12.25,1.91l-1.14,6.69-2-.33q-4.79,4.42-9.39,8.93l-.66,4.46,2.4.36Q564.46,111.53,563.94,114.89Z"/><path class="cls-3" d="M581.37,117.93q-5.88-1.16-11.79-2.14.57-3.35,1.12-6.7l2.31.4q4.1-6.8,8.39-13.51l-2.52-.46q.6-3.34,1.21-6.69,11.42,2.07,22.74,4.72-.78,3.3-1.55,6.61l-2.5-.58q1.32,7.88,2.43,15.75l2.2.54c-.55,2.2-1.1,4.39-1.64,6.59q-7.68-1.9-15.41-3.52.63-3,1.27-6.09l2.64.56c-.14-1.24-.27-2.49-.41-3.73q-3.87-.83-7.76-1.58l-2,3.25,2.47.48Zm7-20.18q-2.25,3.56-4.44,7.12c1.82.36,3.65.73,5.47,1.11C589.08,103.24,588.74,100.49,588.38,97.75Z"/><path class="cls-3" d="M619.58,127.3q-7.67-2.26-15.4-4.23l1.68-6.58,2.25.58q1.86-7.16,3.73-14.3l-2.37-.61c.56-2.2,1.11-4.39,1.67-6.58q8.28,2.1,16.49,4.54l-1.92,6.5-2-.57c-.41,1.38-.81,2.77-1.21,4.15q3.51,1,7,2.1c.42-1.37.85-2.75,1.27-4.13l-2-.6,2-6.5q8.19,2.49,16.29,5.3l-2.22,6.41-2.29-.78q-2.39,7-4.76,14l2.21.76-2.22,6.41q-7.59-2.62-15.26-5c.66-2.16,1.32-4.33,2-6.49l1.92.58c.45-1.48.91-3,1.37-4.44-2.31-.71-4.61-1.4-6.93-2.07l-1.29,4.46,1.89.55Q620.55,124,619.58,127.3Z"/><path class="cls-3" d="M646.65,121.16a13.3,13.3,0,0,1,4.16-5.81,14.94,14.94,0,0,1,7.62-3.11,15.7,15.7,0,0,1,3.28-.1,21.32,21.32,0,0,1,3.42.56,25.81,25.81,0,0,1,3.68,1.2c5.44,2.2,9,5.39,10.77,9.39a15,15,0,0,1,1.32,5.82,12.57,12.57,0,0,1-1.15,5.45,13.91,13.91,0,0,1-8.58,7.47c-4.06,1.4-8.48,1.08-13.39-.91-4.74-1.91-8.1-4.66-10.16-8.35A13.48,13.48,0,0,1,646.65,121.16ZM659.5,126c-1.16,2.94-1.62,5-1.4,6.31a3.24,3.24,0,0,0,2.18,2.67,3.39,3.39,0,0,0,3.43-.33c1-.75,2.17-2.6,3.4-5.56s1.7-5,1.51-6.27a3.82,3.82,0,0,0-5.8-2.41C661.78,121.13,660.67,123,659.5,126Z"/><path class="cls-3" d="M684,152.31q-3.12-1.51-6.26-3l3.84-8.24c2.14,1,4.27,2,6.4,3-.32,2.59.55,4.39,2.62,5.43,1.5.75,2.53.59,3.08-.5a1.88,1.88,0,0,0-.07-1.82,20.51,20.51,0,0,0-2.74-3.51,43.09,43.09,0,0,1-3.94-4.93,9.38,9.38,0,0,1-1.42-3.85,7,7,0,0,1,.59-4.16,7.2,7.2,0,0,1,5.29-4.34,11.44,11.44,0,0,1,7.51,1.17,12.11,12.11,0,0,1,5.6,5.2l.8-1.56c2.22,1.14,4.42,2.3,6.62,3.48l-3.81,7.11q-3.2-1.71-6.42-3.37a4.73,4.73,0,0,0-2.69-5.12c-1.43-.71-2.41-.54-2.93.52a1.44,1.44,0,0,0,0,1.46A39.73,39.73,0,0,0,699,139a57.94,57.94,0,0,1,4.23,5.61,8.14,8.14,0,0,1,.84,1.94,9.44,9.44,0,0,1,.41,2.19,8,8,0,0,1-.94,4.4,7.74,7.74,0,0,1-5.43,3.94,11.07,11.07,0,0,1-7.64-1.15,13.35,13.35,0,0,1-5.64-5.29Z"/><path class="cls-3" d="M717.72,170.67q-7.23-4.38-14.6-8.44c1.09-2,2.19-4,3.28-5.95l2.1,1.17,7.21-12.9-2.24-1.24,3.28-5.95q7.89,4.35,15.64,9l-3.51,5.81-2.22-1.34-7.58,12.69,2.15,1.29Zm16.41,10.47q-6.76-4.53-13.64-8.77l3.56-5.78c.44.26.87.53,1.3.8q-.83-5.26-1.79-10.55,5.25-.76,10.57-1.39L731.86,154q1.77-2.89,3.56-5.78,7,4.31,13.85,8.89l-3.77,5.65-2.13-1.42c-2.87.26-5.71.55-8.54.88q1,6.19,1.76,12.36c.44.29.88.58,1.31.88Z"/><path class="cls-3" d="M745.47,189q-5.09-3.66-10.24-7.14c1.27-1.87,2.53-3.75,3.8-5.63l2,1.37q6.65-4.41,13.44-8.66l-2.19-1.53q2-2.77,3.88-5.57,9.92,6.9,19.55,14.4l-4.17,5.36c-.71-.56-1.42-1.1-2.13-1.65q-2,7.8-4.13,15.52l1.86,1.48-4.25,5.29q-6.49-5.19-13.14-10.11,1.86-2.49,3.7-5l2.26,1.68c.38-1.19.77-2.39,1.15-3.59q-3.33-2.48-6.69-4.88L747,182.44,749.1,184Zm14.88-15.35c-2.39,1.5-4.76,3-7.11,4.54,1.57,1.14,3.15,2.29,4.71,3.44C758.77,179,759.56,176.34,760.35,173.67Z"/></g></g></svg>